<svg xmlns="http://www.w3.org/2000/svg" viewBox="0 0 1200 675" width="1200" height="675" role="img" aria-label="A city skyline with lit windows — original cover illustration">
<defs>
<linearGradient id="bg" x1="0" y1="0" x2="1" y2="1">
<stop offset="0" stop-color="#17301c"/><stop offset="0.55" stop-color="#12170d"/><stop offset="1" stop-color="#3f5f25"/>
</linearGradient>
<radialGradient id="core" cx="0.4" cy="0.35" r="0.75">
<stop offset="0" stop-color="#81f9cb" stop-opacity="0.95"/><stop offset="0.5" stop-color="#75e39b" stop-opacity="0.55"/><stop offset="1" stop-color="#50b529" stop-opacity="0"/>
</radialGradient>
<radialGradient id="halo" cx="0.49" cy="0.32" r="0.85">
<stop offset="0" stop-color="#81f9cb" stop-opacity="0.4"/><stop offset="1" stop-color="#81f9cb" stop-opacity="0"/>
</radialGradient>
<radialGradient id="vig" cx="0.5" cy="0.5" r="0.75">
<stop offset="0.55" stop-color="#000000" stop-opacity="0"/><stop offset="1" stop-color="#000000" stop-opacity="0.55"/>
</radialGradient>
<filter id="grain" x="0" y="0" width="100%" height="100%">
<feTurbulence type="fractalNoise" baseFrequency="0.85" numOctaves="3" stitchTiles="stitch" result="t"/>
<feColorMatrix type="saturate" values="0" in="t" result="g"/>
</filter>
<clipPath id="frame"><rect x="0" y="0" width="1200" height="675"/></clipPath>
</defs>
<rect width="1200" height="675" fill="url(#bg)"/>
<g clip-path="url(#frame)" opacity="0.42"><rect x="-30" y="76.91" width="34.6" height="402.52" fill="#81f9cb" fill-opacity="0.75"/><rect x="-30" y="479.43" width="34.6" height="200.63" fill="#50b529" fill-opacity="0.18"/><rect x="9.38" y="160.02" width="34.6" height="319.41" fill="#81f9cb" fill-opacity="0.74"/><rect x="48.75" y="18.13" width="34.6" height="461.3" fill="#81f9cb" fill-opacity="0.7"/><rect x="88.13" y="105.79" width="34.6" height="373.64" fill="#75e39b" fill-opacity="0.63"/><rect x="127.5" y="183.95" width="34.6" height="295.48" fill="#75e39b" fill-opacity="0.52"/><rect x="166.88" y="355.41" width="34.6" height="124.03" fill="#50b529" fill-opacity="0.4"/><rect x="206.25" y="421.96" width="34.6" height="57.47" fill="#50b529" fill-opacity="0.26"/><rect x="245.63" y="382.31" width="34.6" height="97.12" fill="#50b529" fill-opacity="0.29"/><rect x="285" y="262.6" width="34.6" height="216.83" fill="#50b529" fill-opacity="0.42"/><rect x="285" y="479.43" width="34.6" height="63.53" fill="#50b529" fill-opacity="0.18"/><rect x="324.38" y="228.64" width="34.6" height="250.8" fill="#75e39b" fill-opacity="0.54"/><rect x="363.75" y="28.88" width="34.6" height="450.55" fill="#81f9cb" fill-opacity="0.64"/><rect x="403.13" y="192.49" width="34.6" height="286.94" fill="#81f9cb" fill-opacity="0.71"/><rect x="442.5" y="99.25" width="34.6" height="380.18" fill="#81f9cb" fill-opacity="0.75"/><rect x="481.88" y="49.54" width="34.6" height="429.9" fill="#81f9cb" fill-opacity="0.74"/><rect x="481.88" y="479.43" width="34.6" height="190.04" fill="#50b529" fill-opacity="0.18"/><rect x="521.25" y="12.06" width="34.6" height="467.37" fill="#81f9cb" fill-opacity="0.7"/><rect x="560.63" y="119.16" width="34.6" height="360.27" fill="#81f9cb" fill-opacity="0.63"/><rect x="600" y="270.28" width="34.6" height="209.15" fill="#75e39b" fill-opacity="0.53"/><rect x="639.38" y="309.51" width="34.6" height="169.92" fill="#50b529" fill-opacity="0.4"/><rect x="678.75" y="421.62" width="34.6" height="57.81" fill="#50b529" fill-opacity="0.26"/><rect x="718.13" y="388.48" width="34.6" height="90.96" fill="#50b529" fill-opacity="0.28"/><rect x="757.5" y="253.16" width="34.6" height="226.27" fill="#50b529" fill-opacity="0.42"/><rect x="796.88" y="153.73" width="34.6" height="325.7" fill="#75e39b" fill-opacity="0.54"/><rect x="796.88" y="479.43" width="34.6" height="135.42" fill="#50b529" fill-opacity="0.18"/><rect x="836.25" y="175.55" width="34.6" height="303.88" fill="#81f9cb" fill-opacity="0.64"/><rect x="875.63" y="161.59" width="34.6" height="317.84" fill="#81f9cb" fill-opacity="0.71"/><rect x="915" y="111.4" width="34.6" height="368.03" fill="#81f9cb" fill-opacity="0.75"/><rect x="915" y="479.43" width="34.6" height="138.98" fill="#50b529" fill-opacity="0.18"/><rect x="954.38" y="24.19" width="34.6" height="455.25" fill="#81f9cb" fill-opacity="0.74"/><rect x="993.75" y="50.4" width="34.6" height="429.03" fill="#81f9cb" fill-opacity="0.7"/><rect x="1033.13" y="54.38" width="34.6" height="425.06" fill="#81f9cb" fill-opacity="0.63"/><rect x="1072.5" y="146.89" width="34.6" height="332.54" fill="#75e39b" fill-opacity="0.53"/><rect x="1111.88" y="293.45" width="34.6" height="185.98" fill="#50b529" fill-opacity="0.4"/><rect x="1151.25" y="424.94" width="34.6" height="54.49" fill="#50b529" fill-opacity="0.26"/><rect x="1151.25" y="479.43" width="34.6" height="19.79" fill="#50b529" fill-opacity="0.18"/><rect x="1190.63" y="400.7" width="34.6" height="78.73" fill="#50b529" fill-opacity="0.28"/><line x1="-30" y1="479.43" x2="1230" y2="479.43" stroke="#81f9cb" stroke-opacity="0.4" stroke-width="1"/></g>
<rect width="1200" height="675" fill="url(#halo)" style="mix-blend-mode:screen"/>
<g clip-path="url(#frame)"><line x1="0" y1="0" x2="0" y2="675" stroke="#ffffff" stroke-opacity="0.035" stroke-width="1"/><line x1="100" y1="0" x2="100" y2="675" stroke="#ffffff" stroke-opacity="0.035" stroke-width="1"/><line x1="200" y1="0" x2="200" y2="675" stroke="#ffffff" stroke-opacity="0.035" stroke-width="1"/><line x1="300" y1="0" x2="300" y2="675" stroke="#ffffff" stroke-opacity="0.035" stroke-width="1"/><line x1="400" y1="0" x2="400" y2="675" stroke="#ffffff" stroke-opacity="0.035" stroke-width="1"/><line x1="500" y1="0" x2="500" y2="675" stroke="#ffffff" stroke-opacity="0.035" stroke-width="1"/><line x1="600" y1="0" x2="600" y2="675" stroke="#ffffff" stroke-opacity="0.035" stroke-width="1"/><line x1="700" y1="0" x2="700" y2="675" stroke="#ffffff" stroke-opacity="0.035" stroke-width="1"/><line x1="800" y1="0" x2="800" y2="675" stroke="#ffffff" stroke-opacity="0.035" stroke-width="1"/><line x1="900" y1="0" x2="900" y2="675" stroke="#ffffff" stroke-opacity="0.035" stroke-width="1"/><line x1="1000" y1="0" x2="1000" y2="675" stroke="#ffffff" stroke-opacity="0.035" stroke-width="1"/><line x1="1100" y1="0" x2="1100" y2="675" stroke="#ffffff" stroke-opacity="0.035" stroke-width="1"/><line x1="1200" y1="0" x2="1200" y2="675" stroke="#ffffff" stroke-opacity="0.035" stroke-width="1"/><line x1="0" y1="0" x2="1200" y2="0" stroke="#ffffff" stroke-opacity="0.035" stroke-width="1"/><line x1="0" y1="100" x2="1200" y2="100" stroke="#ffffff" stroke-opacity="0.035" stroke-width="1"/><line x1="0" y1="200" x2="1200" y2="200" stroke="#ffffff" stroke-opacity="0.035" stroke-width="1"/><line x1="0" y1="300" x2="1200" y2="300" stroke="#ffffff" stroke-opacity="0.035" stroke-width="1"/><line x1="0" y1="400" x2="1200" y2="400" stroke="#ffffff" stroke-opacity="0.035" stroke-width="1"/><line x1="0" y1="500" x2="1200" y2="500" stroke="#ffffff" stroke-opacity="0.035" stroke-width="1"/><line x1="0" y1="600" x2="1200" y2="600" stroke="#ffffff" stroke-opacity="0.035" stroke-width="1"/></g>
<rect width="1200" height="675" fill="#12170d" opacity="0.3"/>
<g clip-path="url(#frame)"><rect x="240" y="350.66" width="82.88" height="189.34" fill="#50b529" fill-opacity="0.53"/><rect x="247" y="392.66" width="8" height="12" fill="#81f9cb" fill-opacity="0.66"/><rect x="247" y="422.66" width="8" height="12" fill="#81f9cb" fill-opacity="0.97"/><rect x="247" y="512.66" width="8" height="12" fill="#81f9cb" fill-opacity="0.67"/><rect x="267" y="392.66" width="8" height="12" fill="#81f9cb" fill-opacity="0.9"/><rect x="267" y="422.66" width="8" height="12" fill="#81f9cb" fill-opacity="0.62"/><rect x="267" y="452.66" width="8" height="12" fill="#81f9cb" fill-opacity="0.85"/><rect x="287" y="362.66" width="8" height="12" fill="#81f9cb" fill-opacity="0.91"/><rect x="287" y="392.66" width="8" height="12" fill="#81f9cb" fill-opacity="0.72"/><rect x="287" y="422.66" width="8" height="12" fill="#81f9cb" fill-opacity="0.96"/><rect x="287" y="482.66" width="8" height="12" fill="#81f9cb" fill-opacity="0.57"/><rect x="287" y="512.66" width="8" height="12" fill="#81f9cb" fill-opacity="0.73"/><rect x="307" y="362.66" width="8" height="12" fill="#81f9cb" fill-opacity="0.88"/><rect x="307" y="422.66" width="8" height="12" fill="#81f9cb" fill-opacity="0.94"/><rect x="307" y="452.66" width="8" height="12" fill="#81f9cb" fill-opacity="1"/><rect x="343.47" y="388.56" width="59.43" height="151.44" fill="#50b529" fill-opacity="0.48"/><rect x="350.47" y="400.56" width="8" height="12" fill="#81f9cb" fill-opacity="0.51"/><rect x="350.47" y="490.56" width="8" height="12" fill="#81f9cb" fill-opacity="0.89"/><rect x="350.47" y="520.56" width="8" height="12" fill="#81f9cb" fill-opacity="0.53"/><rect x="370.47" y="430.56" width="8" height="12" fill="#81f9cb" fill-opacity="0.9"/><rect x="370.47" y="460.56" width="8" height="12" fill="#81f9cb" fill-opacity="0.86"/><rect x="370.47" y="490.56" width="8" height="12" fill="#81f9cb" fill-opacity="0.74"/><rect x="424.06" y="299.44" width="109.34" height="240.56" fill="#50b529" fill-opacity="0.48"/><rect x="431.06" y="341.44" width="8" height="12" fill="#81f9cb" fill-opacity="0.93"/><rect x="431.06" y="401.44" width="8" height="12" fill="#81f9cb" fill-opacity="0.99"/><rect x="431.06" y="461.44" width="8" height="12" fill="#81f9cb" fill-opacity="0.8"/><rect x="431.06" y="491.44" width="8" height="12" fill="#81f9cb" fill-opacity="0.94"/><rect x="431.06" y="521.44" width="8" height="12" fill="#81f9cb" fill-opacity="0.86"/><rect x="451.06" y="341.44" width="8" height="12" fill="#81f9cb" fill-opacity="0.76"/><rect x="451.06" y="371.44" width="8" height="12" fill="#81f9cb" fill-opacity="0.61"/><rect x="451.06" y="401.44" width="8" height="12" fill="#81f9cb" fill-opacity="0.87"/><rect x="451.06" y="461.44" width="8" height="12" fill="#81f9cb" fill-opacity="0.72"/><rect x="451.06" y="491.44" width="8" height="12" fill="#81f9cb" fill-opacity="0.51"/><rect x="451.06" y="521.44" width="8" height="12" fill="#81f9cb" fill-opacity="0.5"/><rect x="491.06" y="371.44" width="8" height="12" fill="#81f9cb" fill-opacity="0.8"/><rect x="491.06" y="401.44" width="8" height="12" fill="#81f9cb" fill-opacity="0.84"/><rect x="491.06" y="431.44" width="8" height="12" fill="#81f9cb" fill-opacity="0.57"/><rect x="491.06" y="461.44" width="8" height="12" fill="#81f9cb" fill-opacity="0.54"/><rect x="511.06" y="311.44" width="8" height="12" fill="#81f9cb" fill-opacity="0.52"/><rect x="544.49" y="245.29" width="94.41" height="294.71" fill="#50b529" fill-opacity="0.67"/><rect x="551.49" y="257.29" width="8" height="12" fill="#81f9cb" fill-opacity="0.87"/><rect x="551.49" y="377.29" width="8" height="12" fill="#81f9cb" fill-opacity="0.79"/><rect x="551.49" y="407.29" width="8" height="12" fill="#81f9cb" fill-opacity="0.84"/><rect x="551.49" y="437.29" width="8" height="12" fill="#81f9cb" fill-opacity="0.51"/><rect x="551.49" y="467.29" width="8" height="12" fill="#81f9cb" fill-opacity="0.87"/><rect x="551.49" y="497.29" width="8" height="12" fill="#81f9cb" fill-opacity="0.61"/><rect x="571.49" y="257.29" width="8" height="12" fill="#81f9cb" fill-opacity="0.53"/><rect x="571.49" y="347.29" width="8" height="12" fill="#81f9cb" fill-opacity="0.95"/><rect x="571.49" y="377.29" width="8" height="12" fill="#81f9cb" fill-opacity="0.89"/><rect x="591.49" y="287.29" width="8" height="12" fill="#81f9cb" fill-opacity="0.81"/><rect x="591.49" y="347.29" width="8" height="12" fill="#81f9cb" fill-opacity="0.64"/><rect x="591.49" y="467.29" width="8" height="12" fill="#81f9cb" fill-opacity="0.93"/><rect x="611.49" y="287.29" width="8" height="12" fill="#81f9cb" fill-opacity="0.8"/><rect x="611.49" y="317.29" width="8" height="12" fill="#81f9cb" fill-opacity="0.61"/><rect x="611.49" y="347.29" width="8" height="12" fill="#81f9cb" fill-opacity="0.86"/><rect x="611.49" y="377.29" width="8" height="12" fill="#81f9cb" fill-opacity="0.66"/><rect x="611.49" y="437.29" width="8" height="12" fill="#81f9cb" fill-opacity="0.92"/><rect x="611.49" y="497.29" width="8" height="12" fill="#81f9cb" fill-opacity="0.62"/><rect x="658.22" y="221.7" width="113.02" height="318.3" fill="#50b529" fill-opacity="0.62"/><rect x="665.22" y="233.7" width="8" height="12" fill="#81f9cb" fill-opacity="0.71"/><rect x="665.22" y="293.7" width="8" height="12" fill="#81f9cb" fill-opacity="0.56"/><rect x="665.22" y="323.7" width="8" height="12" fill="#81f9cb" fill-opacity="0.52"/><rect x="665.22" y="383.7" width="8" height="12" fill="#81f9cb" fill-opacity="0.58"/><rect x="665.22" y="473.7" width="8" height="12" fill="#81f9cb" fill-opacity="0.81"/><rect x="665.22" y="503.7" width="8" height="12" fill="#81f9cb" fill-opacity="0.89"/><rect x="685.22" y="233.7" width="8" height="12" fill="#81f9cb" fill-opacity="0.81"/><rect x="685.22" y="443.7" width="8" height="12" fill="#81f9cb" fill-opacity="0.87"/><rect x="685.22" y="473.7" width="8" height="12" fill="#81f9cb" fill-opacity="0.56"/><rect x="685.22" y="503.7" width="8" height="12" fill="#81f9cb" fill-opacity="0.94"/><rect x="705.22" y="233.7" width="8" height="12" fill="#81f9cb" fill-opacity="0.74"/><rect x="705.22" y="293.7" width="8" height="12" fill="#81f9cb" fill-opacity="0.5"/><rect x="705.22" y="413.7" width="8" height="12" fill="#81f9cb" fill-opacity="0.6"/><rect x="705.22" y="443.7" width="8" height="12" fill="#81f9cb" fill-opacity="0.67"/><rect x="725.22" y="233.7" width="8" height="12" fill="#81f9cb" fill-opacity="0.53"/><rect x="725.22" y="263.7" width="8" height="12" fill="#81f9cb" fill-opacity="0.63"/><rect x="725.22" y="293.7" width="8" height="12" fill="#81f9cb" fill-opacity="0.98"/><rect x="725.22" y="323.7" width="8" height="12" fill="#81f9cb" fill-opacity="0.98"/><rect x="725.22" y="353.7" width="8" height="12" fill="#81f9cb" fill-opacity="0.85"/><rect x="725.22" y="383.7" width="8" height="12" fill="#81f9cb" fill-opacity="0.79"/><rect x="725.22" y="413.7" width="8" height="12" fill="#81f9cb" fill-opacity="0.78"/><rect x="745.22" y="233.7" width="8" height="12" fill="#81f9cb" fill-opacity="0.66"/><rect x="745.22" y="263.7" width="8" height="12" fill="#81f9cb" fill-opacity="0.77"/><rect x="745.22" y="293.7" width="8" height="12" fill="#81f9cb" fill-opacity="0.89"/><rect x="745.22" y="413.7" width="8" height="12" fill="#81f9cb" fill-opacity="0.95"/><rect x="745.22" y="443.7" width="8" height="12" fill="#81f9cb" fill-opacity="0.58"/><rect x="745.22" y="503.7" width="8" height="12" fill="#81f9cb" fill-opacity="0.57"/><rect x="788.44" y="177.29" width="57.56" height="362.71" fill="#50b529" fill-opacity="0.79"/><rect x="795.44" y="219.29" width="8" height="12" fill="#81f9cb" fill-opacity="0.93"/><rect x="795.44" y="249.29" width="8" height="12" fill="#81f9cb" fill-opacity="0.84"/><rect x="795.44" y="279.29" width="8" height="12" fill="#81f9cb" fill-opacity="0.85"/><rect x="795.44" y="339.29" width="8" height="12" fill="#81f9cb" fill-opacity="0.82"/><rect x="795.44" y="369.29" width="8" height="12" fill="#81f9cb" fill-opacity="0.71"/><rect x="795.44" y="399.29" width="8" height="12" fill="#81f9cb" fill-opacity="0.86"/><rect x="795.44" y="429.29" width="8" height="12" fill="#81f9cb" fill-opacity="0.61"/><rect x="795.44" y="459.29" width="8" height="12" fill="#81f9cb" fill-opacity="0.58"/><rect x="815.44" y="249.29" width="8" height="12" fill="#81f9cb" fill-opacity="0.79"/><rect x="815.44" y="339.29" width="8" height="12" fill="#81f9cb" fill-opacity="0.69"/><rect x="815.44" y="369.29" width="8" height="12" fill="#81f9cb" fill-opacity="0.71"/><rect x="860.35" y="433.45" width="107.45" height="106.55" fill="#50b529" fill-opacity="0.66"/><rect x="867.35" y="445.45" width="8" height="12" fill="#81f9cb" fill-opacity="0.6"/><rect x="867.35" y="475.45" width="8" height="12" fill="#81f9cb" fill-opacity="0.73"/><rect x="887.35" y="475.45" width="8" height="12" fill="#81f9cb" fill-opacity="0.78"/><rect x="927.35" y="445.45" width="8" height="12" fill="#81f9cb" fill-opacity="0.81"/><rect x="927.35" y="505.45" width="8" height="12" fill="#81f9cb" fill-opacity="0.72"/><rect x="947.35" y="445.45" width="8" height="12" fill="#81f9cb" fill-opacity="0.96"/><rect x="947.35" y="505.45" width="8" height="12" fill="#81f9cb" fill-opacity="0.69"/><rect x="200" y="540" width="800" height="14" fill="#75e39b" fill-opacity="0.75"/></g>
<rect width="1200" height="675" fill="url(#vig)"/>
<rect width="1200" height="675" filter="url(#grain)" opacity="0.14" style="mix-blend-mode:overlay"/>
</svg>