<svg xmlns="http://www.w3.org/2000/svg" viewBox="0 0 1200 675" width="1200" height="675" role="img" aria-label="A city skyline with lit windows — original cover illustration">
<defs>
<linearGradient id="bg" x1="0" y1="0" x2="1" y2="1">
<stop offset="0" stop-color="#27441e"/><stop offset="0.55" stop-color="#0c1711"/><stop offset="1" stop-color="#25713f"/>
</linearGradient>
<radialGradient id="core" cx="0.4" cy="0.35" r="0.75">
<stop offset="0" stop-color="#d7fc8f" stop-opacity="0.95"/><stop offset="0.5" stop-color="#89e649" stop-opacity="0.55"/><stop offset="1" stop-color="#23d643" stop-opacity="0"/>
</radialGradient>
<radialGradient id="halo" cx="0.47" cy="0.17" r="0.85">
<stop offset="0" stop-color="#d7fc8f" stop-opacity="0.4"/><stop offset="1" stop-color="#d7fc8f" stop-opacity="0"/>
</radialGradient>
<radialGradient id="vig" cx="0.5" cy="0.5" r="0.75">
<stop offset="0.55" stop-color="#000000" stop-opacity="0"/><stop offset="1" stop-color="#000000" stop-opacity="0.55"/>
</radialGradient>
<filter id="grain" x="0" y="0" width="100%" height="100%">
<feTurbulence type="fractalNoise" baseFrequency="0.85" numOctaves="3" stitchTiles="stitch" result="t"/>
<feColorMatrix type="saturate" values="0" in="t" result="g"/>
</filter>
<clipPath id="frame"><rect x="0" y="0" width="1200" height="675"/></clipPath>
</defs>
<rect width="1200" height="675" fill="url(#bg)"/>
<g clip-path="url(#frame)" opacity="0.42"><path d="M -40 607.5 L -40 614.09 L -10 617.09 L 20 619.77 L 50 622.04 L 80 623.83 L 110 625.08 L 140 625.74 L 170 625.79 L 200 625.24 L 230 624.09 L 260 622.4 L 290 620.21 L 320 617.59 L 350 614.64 L 380 611.46 L 410 608.14 L 440 604.8 L 470 601.55 L 500 598.49 L 530 595.74 L 560 593.38 L 590 591.49 L 620 590.13 L 650 589.35 L 680 589.17 L 710 589.6 L 740 590.63 L 770 592.22 L 800 594.31 L 830 596.85 L 860 599.74 L 890 602.88 L 920 606.18 L 950 609.53 L 980 612.81 L 1010 615.91 L 1040 618.73 L 1070 621.18 L 1100 623.17 L 1130 624.64 L 1160 625.54 L 1190 625.84 L 1220 625.54 L 1240 715 L -40 715 Z" fill="#23d643" fill-opacity="0.56"/><path d="M -40 607.5 L -40 614.09 L -10 617.09 L 20 619.77 L 50 622.04 L 80 623.83 L 110 625.08 L 140 625.74 L 170 625.79 L 200 625.24 L 230 624.09 L 260 622.4 L 290 620.21 L 320 617.59 L 350 614.64 L 380 611.46 L 410 608.14 L 440 604.8 L 470 601.55 L 500 598.49 L 530 595.74 L 560 593.38 L 590 591.49 L 620 590.13 L 650 589.35 L 680 589.17 L 710 589.6 L 740 590.63 L 770 592.22 L 800 594.31 L 830 596.85 L 860 599.74 L 890 602.88 L 920 606.18 L 950 609.53 L 980 612.81 L 1010 615.91 L 1040 618.73 L 1070 621.18 L 1100 623.17 L 1130 624.64 L 1160 625.54 L 1190 625.84 L 1220 625.54" fill="none" stroke="#d7fc8f" stroke-opacity="0.48" stroke-width="1.4"/><path d="M -40 555.19 L -40 558.46 L -10 562.2 L 20 565.7 L 50 568.86 L 80 571.56 L 110 573.72 L 140 575.26 L 170 576.14 L 200 576.31 L 230 575.79 L 260 574.58 L 290 572.72 L 320 570.28 L 350 567.34 L 380 564 L 410 560.36 L 440 556.55 L 470 552.7 L 500 548.93 L 530 545.36 L 560 542.12 L 590 539.32 L 620 537.05 L 650 535.37 L 680 534.36 L 710 534.04 L 740 534.42 L 770 535.5 L 800 537.23 L 830 539.55 L 860 542.4 L 890 545.67 L 920 549.26 L 950 553.04 L 980 556.9 L 1010 560.7 L 1040 564.31 L 1070 567.62 L 1100 570.52 L 1130 572.91 L 1160 574.71 L 1190 575.86 L 1220 576.33 L 1240 715 L -40 715 Z" fill="#23d643" fill-opacity="0.51"/><path d="M -40 555.19 L -40 558.46 L -10 562.2 L 20 565.7 L 50 568.86 L 80 571.56 L 110 573.72 L 140 575.26 L 170 576.14 L 200 576.31 L 230 575.79 L 260 574.58 L 290 572.72 L 320 570.28 L 350 567.34 L 380 564 L 410 560.36 L 440 556.55 L 470 552.7 L 500 548.93 L 530 545.36 L 560 542.12 L 590 539.32 L 620 537.05 L 650 535.37 L 680 534.36 L 710 534.04 L 740 534.42 L 770 535.5 L 800 537.23 L 830 539.55 L 860 542.4 L 890 545.67 L 920 549.26 L 950 553.04 L 980 556.9 L 1010 560.7 L 1040 564.31 L 1070 567.62 L 1100 570.52 L 1130 572.91 L 1160 574.71 L 1190 575.86 L 1220 576.33" fill="none" stroke="#d7fc8f" stroke-opacity="0.44" stroke-width="1.4"/><path d="M -40 502.88 L -40 501.5 L -10 505.87 L 20 510.13 L 50 514.16 L 80 517.81 L 110 520.96 L 140 523.51 L 170 525.37 L 200 526.49 L 230 526.82 L 260 526.36 L 290 525.11 L 320 523.12 L 350 520.47 L 380 517.22 L 410 513.5 L 440 509.43 L 470 505.13 L 500 500.77 L 530 496.47 L 560 492.38 L 590 488.65 L 620 485.39 L 650 482.71 L 680 480.7 L 710 479.42 L 740 478.93 L 770 479.24 L 800 480.32 L 830 482.16 L 860 484.69 L 890 487.83 L 920 491.46 L 950 495.47 L 980 499.73 L 1010 504.1 L 1040 508.42 L 1070 512.56 L 1100 516.38 L 1130 519.74 L 1160 522.55 L 1190 524.7 L 1220 526.13 L 1240 715 L -40 715 Z" fill="#89e649" fill-opacity="0.46"/><path d="M -40 502.88 L -40 501.5 L -10 505.87 L 20 510.13 L 50 514.16 L 80 517.81 L 110 520.96 L 140 523.51 L 170 525.37 L 200 526.49 L 230 526.82 L 260 526.36 L 290 525.11 L 320 523.12 L 350 520.47 L 380 517.22 L 410 513.5 L 440 509.43 L 470 505.13 L 500 500.77 L 530 496.47 L 560 492.38 L 590 488.65 L 620 485.39 L 650 482.71 L 680 480.7 L 710 479.42 L 740 478.93 L 770 479.24 L 800 480.32 L 830 482.16 L 860 484.69 L 890 487.83 L 920 491.46 L 950 495.47 L 980 499.73 L 1010 504.1 L 1040 508.42 L 1070 512.56 L 1100 516.38 L 1130 519.74 L 1160 522.55 L 1190 524.7 L 1220 526.13" fill="none" stroke="#d7fc8f" stroke-opacity="0.41" stroke-width="1.4"/><path d="M -40 450.56 L -40 443.43 L -10 448.23 L 20 453.11 L 50 457.9 L 80 462.45 L 110 466.61 L 140 470.23 L 170 473.19 L 200 475.41 L 230 476.8 L 260 477.31 L 290 476.94 L 320 475.69 L 350 473.6 L 380 470.75 L 410 467.22 L 440 463.14 L 470 458.65 L 500 453.88 L 530 449 L 560 444.18 L 590 439.57 L 620 435.32 L 650 431.58 L 680 428.47 L 710 426.1 L 740 424.54 L 770 423.85 L 800 424.04 L 830 425.12 L 860 427.04 L 890 429.74 L 920 433.14 L 950 437.11 L 980 441.54 L 1010 446.26 L 1040 451.13 L 1070 455.98 L 1100 460.64 L 1130 464.98 L 1160 468.83 L 1190 472.07 L 1220 474.61 L 1240 715 L -40 715 Z" fill="#23d643" fill-opacity="0.4"/><path d="M -40 450.56 L -40 443.43 L -10 448.23 L 20 453.11 L 50 457.9 L 80 462.45 L 110 466.61 L 140 470.23 L 170 473.19 L 200 475.41 L 230 476.8 L 260 477.31 L 290 476.94 L 320 475.69 L 350 473.6 L 380 470.75 L 410 467.22 L 440 463.14 L 470 458.65 L 500 453.88 L 530 449 L 560 444.18 L 590 439.57 L 620 435.32 L 650 431.58 L 680 428.47 L 710 426.1 L 740 424.54 L 770 423.85 L 800 424.04 L 830 425.12 L 860 427.04 L 890 429.74 L 920 433.14 L 950 437.11 L 980 441.54 L 1010 446.26 L 1040 451.13 L 1070 455.98 L 1100 460.64 L 1130 464.98 L 1160 468.83 L 1190 472.07 L 1220 474.61" fill="none" stroke="#d7fc8f" stroke-opacity="0.37" stroke-width="1.4"/><path d="M -40 398.25 L -40 384.54 L -10 389.52 L 20 394.8 L 50 400.18 L 80 405.51 L 110 410.59 L 140 415.26 L 170 419.37 L 200 422.77 L 230 425.36 L 260 427.05 L 290 427.78 L 320 427.52 L 350 426.3 L 380 424.14 L 410 421.12 L 440 417.34 L 470 412.92 L 500 408.02 L 530 402.79 L 560 397.41 L 590 392.06 L 620 386.91 L 650 382.15 L 680 377.91 L 710 374.36 L 740 371.6 L 770 369.72 L 800 368.79 L 830 368.85 L 860 369.88 L 890 371.85 L 920 374.7 L 950 378.34 L 980 382.64 L 1010 387.45 L 1040 392.63 L 1070 397.99 L 1100 403.36 L 1130 408.56 L 1160 413.42 L 1190 417.78 L 1220 421.48 L 1240 715 L -40 715 Z" fill="#23d643" fill-opacity="0.35"/><path d="M -40 398.25 L -40 384.54 L -10 389.52 L 20 394.8 L 50 400.18 L 80 405.51 L 110 410.59 L 140 415.26 L 170 419.37 L 200 422.77 L 230 425.36 L 260 427.05 L 290 427.78 L 320 427.52 L 350 426.3 L 380 424.14 L 410 421.12 L 440 417.34 L 470 412.92 L 500 408.02 L 530 402.79 L 560 397.41 L 590 392.06 L 620 386.91 L 650 382.15 L 680 377.91 L 710 374.36 L 740 371.6 L 770 369.72 L 800 368.79 L 830 368.85 L 860 369.88 L 890 371.85 L 920 374.7 L 950 378.34 L 980 382.64 L 1010 387.45 L 1040 392.63 L 1070 397.99 L 1100 403.36 L 1130 408.56 L 1160 413.42 L 1190 417.78 L 1220 421.48" fill="none" stroke="#d7fc8f" stroke-opacity="0.33" stroke-width="1.4"/><path d="M -40 345.94 L -40 325.22 L -10 330.08 L 20 335.46 L 50 341.2 L 80 347.09 L 110 352.94 L 140 358.56 L 170 363.76 L 200 368.37 L 230 372.23 L 260 375.22 L 290 377.23 L 320 378.21 L 350 378.1 L 380 376.93 L 410 374.73 L 440 371.57 L 470 367.56 L 500 362.83 L 530 357.54 L 560 351.86 L 590 345.99 L 620 340.11 L 650 334.43 L 680 329.13 L 710 324.38 L 740 320.36 L 770 317.19 L 800 314.97 L 830 313.78 L 860 313.66 L 890 314.62 L 920 316.61 L 950 319.59 L 980 323.43 L 1010 328.03 L 1040 333.22 L 1070 338.84 L 1100 344.69 L 1130 350.58 L 1160 356.32 L 1190 361.71 L 1220 366.58 L 1240 715 L -40 715 Z" fill="#89e649" fill-opacity="0.3"/><path d="M -40 345.94 L -40 325.22 L -10 330.08 L 20 335.46 L 50 341.2 L 80 347.09 L 110 352.94 L 140 358.56 L 170 363.76 L 200 368.37 L 230 372.23 L 260 375.22 L 290 377.23 L 320 378.21 L 350 378.1 L 380 376.93 L 410 374.73 L 440 371.57 L 470 367.56 L 500 362.83 L 530 357.54 L 560 351.86 L 590 345.99 L 620 340.11 L 650 334.43 L 680 329.13 L 710 324.38 L 740 320.36 L 770 317.19 L 800 314.97 L 830 313.78 L 860 313.66 L 890 314.62 L 920 316.61 L 950 319.59 L 980 323.43 L 1010 328.03 L 1040 333.22 L 1070 338.84 L 1100 344.69 L 1130 350.58 L 1160 356.32 L 1190 361.71 L 1220 366.58" fill="none" stroke="#d7fc8f" stroke-opacity="0.29" stroke-width="1.4"/><path d="M -40 293.63 L -40 265.92 L -10 270.32 L 20 275.48 L 50 281.26 L 80 287.44 L 110 293.83 L 140 300.21 L 170 306.37 L 200 312.11 L 230 317.23 L 260 321.57 L 290 324.98 L 320 327.35 L 350 328.59 L 380 328.68 L 410 327.59 L 440 325.38 L 470 322.11 L 500 317.89 L 530 312.87 L 560 307.21 L 590 301.09 L 620 294.73 L 650 288.33 L 680 282.1 L 710 276.26 L 740 271 L 770 266.49 L 800 262.88 L 830 260.29 L 860 258.82 L 890 258.5 L 920 259.34 L 950 261.33 L 980 264.39 L 1010 268.43 L 1040 273.3 L 1070 278.85 L 1100 284.89 L 1130 291.22 L 1160 297.63 L 1190 303.91 L 1220 309.84 L 1240 715 L -40 715 Z" fill="#23d643" fill-opacity="0.25"/><path d="M -40 293.63 L -40 265.92 L -10 270.32 L 20 275.48 L 50 281.26 L 80 287.44 L 110 293.83 L 140 300.21 L 170 306.37 L 200 312.11 L 230 317.23 L 260 321.57 L 290 324.98 L 320 327.35 L 350 328.59 L 380 328.68 L 410 327.59 L 440 325.38 L 470 322.11 L 500 317.89 L 530 312.87 L 560 307.21 L 590 301.09 L 620 294.73 L 650 288.33 L 680 282.1 L 710 276.26 L 740 271 L 770 266.49 L 800 262.88 L 830 260.29 L 860 258.82 L 890 258.5 L 920 259.34 L 950 261.33 L 980 264.39 L 1010 268.43 L 1040 273.3 L 1070 278.85 L 1100 284.89 L 1130 291.22 L 1160 297.63 L 1190 303.91 L 1220 309.84" fill="none" stroke="#d7fc8f" stroke-opacity="0.26" stroke-width="1.4"/><path d="M -40 241.31 L -40 207.15 L -10 210.72 L 20 215.31 L 50 220.76 L 80 226.9 L 110 233.52 L 140 240.4 L 170 247.3 L 200 254.01 L 230 260.3 L 260 265.95 L 290 270.79 L 320 274.64 L 350 277.39 L 380 278.93 L 410 279.23 L 440 278.26 L 470 276.07 L 500 272.72 L 530 268.33 L 560 263.03 L 590 257.02 L 620 250.48 L 650 243.64 L 680 236.72 L 710 229.95 L 740 223.56 L 770 217.76 L 800 212.75 L 830 208.68 L 860 205.7 L 890 203.9 L 920 203.35 L 950 204.06 L 980 206.01 L 1010 209.14 L 1040 213.33 L 1070 218.45 L 1100 224.34 L 1130 230.79 L 1160 237.58 L 1190 244.51 L 1220 251.32 L 1240 715 L -40 715 Z" fill="#23d643" fill-opacity="0.19"/><path d="M -40 241.31 L -40 207.15 L -10 210.72 L 20 215.31 L 50 220.76 L 80 226.9 L 110 233.52 L 140 240.4 L 170 247.3 L 200 254.01 L 230 260.3 L 260 265.95 L 290 270.79 L 320 274.64 L 350 277.39 L 380 278.93 L 410 279.23 L 440 278.26 L 470 276.07 L 500 272.72 L 530 268.33 L 560 263.03 L 590 257.02 L 620 250.48 L 650 243.64 L 680 236.72 L 710 229.95 L 740 223.56 L 770 217.76 L 800 212.75 L 830 208.68 L 860 205.7 L 890 203.9 L 920 203.35 L 950 204.06 L 980 206.01 L 1010 209.14 L 1040 213.33 L 1070 218.45 L 1100 224.34 L 1130 230.79 L 1160 237.58 L 1190 244.51 L 1220 251.32" fill="none" stroke="#d7fc8f" stroke-opacity="0.22" stroke-width="1.4"/><path d="M -40 189 L -40 149.39 L -10 151.8 L 20 155.44 L 50 160.2 L 80 165.92 L 110 172.41 L 140 179.44 L 170 186.8 L 200 194.23 L 230 201.48 L 260 208.32 L 290 214.52 L 320 219.87 L 350 224.19 L 380 227.34 L 410 229.22 L 440 229.76 L 470 228.94 L 500 226.8 L 530 223.4 L 560 218.85 L 590 213.31 L 620 206.97 L 650 200.02 L 680 192.71 L 710 185.28 L 740 177.97 L 770 171.02 L 800 164.68 L 830 159.14 L 860 154.6 L 890 151.2 L 920 149.06 L 950 148.24 L 980 148.78 L 1010 150.66 L 1040 153.82 L 1070 158.14 L 1100 163.49 L 1130 169.69 L 1160 176.53 L 1190 183.79 L 1220 191.21 L 1240 715 L -40 715 Z" fill="#89e649" fill-opacity="0.14"/><path d="M -40 189 L -40 149.39 L -10 151.8 L 20 155.44 L 50 160.2 L 80 165.92 L 110 172.41 L 140 179.44 L 170 186.8 L 200 194.23 L 230 201.48 L 260 208.32 L 290 214.52 L 320 219.87 L 350 224.19 L 380 227.34 L 410 229.22 L 440 229.76 L 470 228.94 L 500 226.8 L 530 223.4 L 560 218.85 L 590 213.31 L 620 206.97 L 650 200.02 L 680 192.71 L 710 185.28 L 740 177.97 L 770 171.02 L 800 164.68 L 830 159.14 L 860 154.6 L 890 151.2 L 920 149.06 L 950 148.24 L 980 148.78 L 1010 150.66 L 1040 153.82 L 1070 158.14 L 1100 163.49 L 1130 169.69 L 1160 176.53 L 1190 183.79 L 1220 191.21" fill="none" stroke="#d7fc8f" stroke-opacity="0.18" stroke-width="1.4"/></g>
<rect width="1200" height="675" fill="url(#halo)" style="mix-blend-mode:screen"/>
<g clip-path="url(#frame)"><line x1="0" y1="0" x2="0" y2="675" stroke="#ffffff" stroke-opacity="0.035" stroke-width="1"/><line x1="100" y1="0" x2="100" y2="675" stroke="#ffffff" stroke-opacity="0.035" stroke-width="1"/><line x1="200" y1="0" x2="200" y2="675" stroke="#ffffff" stroke-opacity="0.035" stroke-width="1"/><line x1="300" y1="0" x2="300" y2="675" stroke="#ffffff" stroke-opacity="0.035" stroke-width="1"/><line x1="400" y1="0" x2="400" y2="675" stroke="#ffffff" stroke-opacity="0.035" stroke-width="1"/><line x1="500" y1="0" x2="500" y2="675" stroke="#ffffff" stroke-opacity="0.035" stroke-width="1"/><line x1="600" y1="0" x2="600" y2="675" stroke="#ffffff" stroke-opacity="0.035" stroke-width="1"/><line x1="700" y1="0" x2="700" y2="675" stroke="#ffffff" stroke-opacity="0.035" stroke-width="1"/><line x1="800" y1="0" x2="800" y2="675" stroke="#ffffff" stroke-opacity="0.035" stroke-width="1"/><line x1="900" y1="0" x2="900" y2="675" stroke="#ffffff" stroke-opacity="0.035" stroke-width="1"/><line x1="1000" y1="0" x2="1000" y2="675" stroke="#ffffff" stroke-opacity="0.035" stroke-width="1"/><line x1="1100" y1="0" x2="1100" y2="675" stroke="#ffffff" stroke-opacity="0.035" stroke-width="1"/><line x1="1200" y1="0" x2="1200" y2="675" stroke="#ffffff" stroke-opacity="0.035" stroke-width="1"/><line x1="0" y1="0" x2="1200" y2="0" stroke="#ffffff" stroke-opacity="0.035" stroke-width="1"/><line x1="0" y1="100" x2="1200" y2="100" stroke="#ffffff" stroke-opacity="0.035" stroke-width="1"/><line x1="0" y1="200" x2="1200" y2="200" stroke="#ffffff" stroke-opacity="0.035" stroke-width="1"/><line x1="0" y1="300" x2="1200" y2="300" stroke="#ffffff" stroke-opacity="0.035" stroke-width="1"/><line x1="0" y1="400" x2="1200" y2="400" stroke="#ffffff" stroke-opacity="0.035" stroke-width="1"/><line x1="0" y1="500" x2="1200" y2="500" stroke="#ffffff" stroke-opacity="0.035" stroke-width="1"/><line x1="0" y1="600" x2="1200" y2="600" stroke="#ffffff" stroke-opacity="0.035" stroke-width="1"/></g>
<rect width="1200" height="675" fill="#0c1711" opacity="0.3"/>
<g clip-path="url(#frame)"><rect x="240" y="297.97" width="96.96" height="242.03" fill="#23d643" fill-opacity="0.47"/><rect x="247" y="309.97" width="8" height="12" fill="#d7fc8f" fill-opacity="0.95"/><rect x="247" y="489.97" width="8" height="12" fill="#d7fc8f" fill-opacity="0.61"/><rect x="267" y="369.97" width="8" height="12" fill="#d7fc8f" fill-opacity="0.61"/><rect x="267" y="429.97" width="8" height="12" fill="#d7fc8f" fill-opacity="0.95"/><rect x="287" y="369.97" width="8" height="12" fill="#d7fc8f" fill-opacity="0.59"/><rect x="287" y="429.97" width="8" height="12" fill="#d7fc8f" fill-opacity="0.66"/><rect x="287" y="459.97" width="8" height="12" fill="#d7fc8f" fill-opacity="0.5"/><rect x="287" y="519.97" width="8" height="12" fill="#d7fc8f" fill-opacity="0.86"/><rect x="307" y="309.97" width="8" height="12" fill="#d7fc8f" fill-opacity="0.79"/><rect x="347.41" y="436.15" width="101.63" height="103.85" fill="#23d643" fill-opacity="0.77"/><rect x="374.41" y="478.15" width="8" height="12" fill="#d7fc8f" fill-opacity="0.53"/><rect x="374.41" y="508.15" width="8" height="12" fill="#d7fc8f" fill-opacity="0.97"/><rect x="394.41" y="478.15" width="8" height="12" fill="#d7fc8f" fill-opacity="0.79"/><rect x="394.41" y="508.15" width="8" height="12" fill="#d7fc8f" fill-opacity="0.77"/><rect x="414.41" y="448.15" width="8" height="12" fill="#d7fc8f" fill-opacity="0.95"/><rect x="414.41" y="478.15" width="8" height="12" fill="#d7fc8f" fill-opacity="0.78"/><rect x="414.41" y="508.15" width="8" height="12" fill="#d7fc8f" fill-opacity="0.67"/><rect x="434.41" y="508.15" width="8" height="12" fill="#d7fc8f" fill-opacity="0.56"/><rect x="458.15" y="322.89" width="58.33" height="217.11" fill="#23d643" fill-opacity="0.56"/><rect x="465.15" y="334.89" width="8" height="12" fill="#d7fc8f" fill-opacity="0.71"/><rect x="465.15" y="364.89" width="8" height="12" fill="#d7fc8f" fill-opacity="0.76"/><rect x="465.15" y="424.89" width="8" height="12" fill="#d7fc8f" fill-opacity="0.92"/><rect x="465.15" y="454.89" width="8" height="12" fill="#d7fc8f" fill-opacity="0.69"/><rect x="465.15" y="514.89" width="8" height="12" fill="#d7fc8f" fill-opacity="0.81"/><rect x="485.15" y="334.89" width="8" height="12" fill="#d7fc8f" fill-opacity="0.75"/><rect x="485.15" y="394.89" width="8" height="12" fill="#d7fc8f" fill-opacity="0.72"/><rect x="532.22" y="260.38" width="100.33" height="279.62" fill="#23d643" fill-opacity="0.6"/><rect x="539.22" y="332.38" width="8" height="12" fill="#d7fc8f" fill-opacity="0.7"/><rect x="539.22" y="482.38" width="8" height="12" fill="#d7fc8f" fill-opacity="0.98"/><rect x="559.22" y="302.38" width="8" height="12" fill="#d7fc8f" fill-opacity="0.77"/><rect x="559.22" y="332.38" width="8" height="12" fill="#d7fc8f" fill-opacity="0.89"/><rect x="559.22" y="362.38" width="8" height="12" fill="#d7fc8f" fill-opacity="0.88"/><rect x="559.22" y="452.38" width="8" height="12" fill="#d7fc8f" fill-opacity="0.57"/><rect x="559.22" y="482.38" width="8" height="12" fill="#d7fc8f" fill-opacity="0.99"/><rect x="559.22" y="512.38" width="8" height="12" fill="#d7fc8f" fill-opacity="0.92"/><rect x="579.22" y="332.38" width="8" height="12" fill="#d7fc8f" fill-opacity="0.91"/><rect x="579.22" y="362.38" width="8" height="12" fill="#d7fc8f" fill-opacity="0.7"/><rect x="579.22" y="392.38" width="8" height="12" fill="#d7fc8f" fill-opacity="0.8"/><rect x="579.22" y="452.38" width="8" height="12" fill="#d7fc8f" fill-opacity="0.86"/><rect x="579.22" y="512.38" width="8" height="12" fill="#d7fc8f" fill-opacity="0.51"/><rect x="599.22" y="302.38" width="8" height="12" fill="#d7fc8f" fill-opacity="0.94"/><rect x="599.22" y="362.38" width="8" height="12" fill="#d7fc8f" fill-opacity="0.52"/><rect x="599.22" y="512.38" width="8" height="12" fill="#d7fc8f" fill-opacity="0.68"/><rect x="619.22" y="332.38" width="8" height="12" fill="#d7fc8f" fill-opacity="0.99"/><rect x="619.22" y="362.38" width="8" height="12" fill="#d7fc8f" fill-opacity="0.85"/><rect x="619.22" y="392.38" width="8" height="12" fill="#d7fc8f" fill-opacity="0.58"/><rect x="619.22" y="422.38" width="8" height="12" fill="#d7fc8f" fill-opacity="0.9"/><rect x="652.84" y="255.18" width="73.89" height="284.82" fill="#23d643" fill-opacity="0.75"/><rect x="659.84" y="297.18" width="8" height="12" fill="#d7fc8f" fill-opacity="0.69"/><rect x="659.84" y="357.18" width="8" height="12" fill="#d7fc8f" fill-opacity="0.62"/><rect x="659.84" y="477.18" width="8" height="12" fill="#d7fc8f" fill-opacity="0.55"/><rect x="659.84" y="507.18" width="8" height="12" fill="#d7fc8f" fill-opacity="0.88"/><rect x="679.84" y="327.18" width="8" height="12" fill="#d7fc8f" fill-opacity="0.9"/><rect x="679.84" y="387.18" width="8" height="12" fill="#d7fc8f" fill-opacity="0.54"/><rect x="679.84" y="417.18" width="8" height="12" fill="#d7fc8f" fill-opacity="0.98"/><rect x="679.84" y="447.18" width="8" height="12" fill="#d7fc8f" fill-opacity="0.51"/><rect x="679.84" y="477.18" width="8" height="12" fill="#d7fc8f" fill-opacity="0.54"/><rect x="699.84" y="297.18" width="8" height="12" fill="#d7fc8f" fill-opacity="0.77"/><rect x="699.84" y="327.18" width="8" height="12" fill="#d7fc8f" fill-opacity="0.54"/><rect x="699.84" y="417.18" width="8" height="12" fill="#d7fc8f" fill-opacity="0.61"/><rect x="699.84" y="447.18" width="8" height="12" fill="#d7fc8f" fill-opacity="0.69"/><rect x="744.37" y="371.63" width="106.78" height="168.37" fill="#23d643" fill-opacity="0.51"/><rect x="751.37" y="383.63" width="8" height="12" fill="#d7fc8f" fill-opacity="0.71"/><rect x="771.37" y="383.63" width="8" height="12" fill="#d7fc8f" fill-opacity="0.88"/><rect x="771.37" y="503.63" width="8" height="12" fill="#d7fc8f" fill-opacity="0.67"/><rect x="791.37" y="383.63" width="8" height="12" fill="#d7fc8f" fill-opacity="0.6"/><rect x="811.37" y="443.63" width="8" height="12" fill="#d7fc8f" fill-opacity="0.7"/><rect x="831.37" y="443.63" width="8" height="12" fill="#d7fc8f" fill-opacity="0.66"/><rect x="862.33" y="325.45" width="56.54" height="214.55" fill="#23d643" fill-opacity="0.5"/><rect x="889.33" y="487.45" width="8" height="12" fill="#d7fc8f" fill-opacity="0.76"/><rect x="936.76" y="384.54" width="95.69" height="155.46" fill="#23d643" fill-opacity="0.59"/><rect x="943.76" y="396.54" width="8" height="12" fill="#d7fc8f" fill-opacity="0.78"/><rect x="943.76" y="426.54" width="8" height="12" fill="#d7fc8f" fill-opacity="0.99"/><rect x="943.76" y="486.54" width="8" height="12" fill="#d7fc8f" fill-opacity="0.88"/><rect x="963.76" y="396.54" width="8" height="12" fill="#d7fc8f" fill-opacity="0.89"/><rect x="963.76" y="516.54" width="8" height="12" fill="#d7fc8f" fill-opacity="0.94"/><rect x="983.76" y="396.54" width="8" height="12" fill="#d7fc8f" fill-opacity="0.88"/><rect x="983.76" y="456.54" width="8" height="12" fill="#d7fc8f" fill-opacity="0.69"/><rect x="1003.76" y="396.54" width="8" height="12" fill="#d7fc8f" fill-opacity="0.54"/><rect x="1003.76" y="486.54" width="8" height="12" fill="#d7fc8f" fill-opacity="0.62"/><rect x="1003.76" y="516.54" width="8" height="12" fill="#d7fc8f" fill-opacity="0.67"/><rect x="200" y="540" width="800" height="14" fill="#89e649" fill-opacity="0.75"/></g>
<rect width="1200" height="675" fill="url(#vig)"/>
<rect width="1200" height="675" filter="url(#grain)" opacity="0.14" style="mix-blend-mode:overlay"/>
</svg>