<svg xmlns="http://www.w3.org/2000/svg" viewBox="0 0 1200 675" width="1200" height="675" role="img" aria-label="A stylised neural network of connected nodes — original cover illustration">
<defs>
<linearGradient id="bg" x1="0" y1="0" x2="1" y2="1">
<stop offset="0" stop-color="#443a20"/><stop offset="0.55" stop-color="#1f1611"/><stop offset="1" stop-color="#593821"/>
</linearGradient>
<radialGradient id="core" cx="0.4" cy="0.35" r="0.75">
<stop offset="0" stop-color="#f7f284" stop-opacity="0.95"/><stop offset="0.5" stop-color="#dfc654" stop-opacity="0.55"/><stop offset="1" stop-color="#a06121" stop-opacity="0"/>
</radialGradient>
<radialGradient id="halo" cx="0.21" cy="0.18" r="0.85">
<stop offset="0" stop-color="#f7f284" stop-opacity="0.4"/><stop offset="1" stop-color="#f7f284" stop-opacity="0"/>
</radialGradient>
<radialGradient id="vig" cx="0.5" cy="0.5" r="0.75">
<stop offset="0.55" stop-color="#000000" stop-opacity="0"/><stop offset="1" stop-color="#000000" stop-opacity="0.55"/>
</radialGradient>
<filter id="grain" x="0" y="0" width="100%" height="100%">
<feTurbulence type="fractalNoise" baseFrequency="0.85" numOctaves="3" stitchTiles="stitch" result="t"/>
<feColorMatrix type="saturate" values="0" in="t" result="g"/>
</filter>
<clipPath id="frame"><rect x="0" y="0" width="1200" height="675"/></clipPath>
</defs>
<rect width="1200" height="675" fill="url(#bg)"/>
<g clip-path="url(#frame)" opacity="0.42"><path d="M -40 695 L -40 216.74 L 23.77 216.74 L 77.11 222.34 L 77.11 -90.27 L 140.88 -90.27 L 166.08 125.45 L 166.08 98.11 L 229.85 98.11 L 253.46 177.09 L 253.46 205.66 L 317.23 205.66 L 334.41 223.41 L 334.41 -104.63 L 398.18 -104.63 L 447.09 17.83 L 447.09 75.98 L 510.86 75.98 L 521.75 114.2 L 521.75 -55.41 L 585.52 -55.41 L 625.64 94.5 L 625.64 68.83 L 689.41 68.83 L 715.22 89.72 L 715.22 219.25 L 778.99 219.25 L 815.87 248.92 L 815.87 176.99 L 879.64 176.99 L 887.47 222.84 L 887.47 -25.79 L 951.24 -25.79 L 1004.42 103.49 L 1004.42 122.99 L 1068.19 122.99 L 1077.35 172.13 L 1077.35 -112.1 L 1141.13 -112.1 L 1195.04 -5.14 L 1195.04 198.07 L 1258.81 198.07 L 1297.18 209.6 L 1240 695 Z" fill="#a06121" fill-opacity="0.16"/><path d="M -40 695 L -40 95.26 L -13.81 95.26 L -7.43 247.17 L -7.43 298.63 L 18.76 298.63 L 29.26 313.05 L 29.26 139.13 L 55.45 139.13 L 61.48 261.28 L 61.48 167.67 L 87.67 167.67 L 89.35 273.57 L 89.35 327.55 L 115.54 327.55 L 120.43 342.83 L 120.43 120.53 L 146.62 120.53 L 161.82 263.15 L 161.82 324.8 L 188.01 324.8 L 198.29 332.83 L 198.29 248.77 L 224.48 248.77 L 238.91 284.08 L 238.91 296.87 L 265.1 296.87 L 271.71 322.15 L 271.71 74.61 L 297.9 74.61 L 309.18 234.77 L 309.18 258.05 L 335.37 258.05 L 349.25 319.94 L 349.25 322.63 L 375.44 322.63 L 391.88 340.59 L 391.88 125.52 L 418.07 125.52 L 423.01 261.3 L 423.01 248.44 L 449.2 248.44 L 461.08 300.32 L 461.08 249.99 L 487.27 249.99 L 504.53 297.66 L 504.53 205.82 L 530.72 205.82 L 544.63 304.56 L 544.63 115.45 L 570.82 115.45 L 579.83 245.67 L 579.83 131.1 L 606.02 131.1 L 623.76 228.71 L 623.76 84.26 L 649.95 84.26 L 659.99 209.23 L 659.99 342.18 L 686.18 342.18 L 694.76 360.94 L 694.76 317.45 L 720.95 317.45 L 729.92 340.06 L 729.92 313.71 L 756.11 313.71 L 769.24 327.43 L 769.24 147.71 L 795.44 147.71 L 812.7 204.93 L 812.7 104.24 L 838.89 104.24 L 840.19 244.95 L 840.19 200.63 L 866.38 200.63 L 881.55 272.18 L 881.55 102.42 L 907.74 102.42 L 918.55 181.02 L 918.55 345.56 L 944.74 345.56 L 951.16 350.63 L 951.16 178.05 L 977.35 178.05 L 998.39 226.2 L 998.39 228.46 L 1024.58 228.46 L 1026.6 274.48 L 1026.6 300.06 L 1052.79 300.06 L 1068.39 321.24 L 1068.39 302.95 L 1094.58 302.95 L 1111.17 337.1 L 1111.17 61.86 L 1137.36 61.86 L 1155.04 172.2 L 1155.04 318.78 L 1181.23 318.78 L 1198.31 325.6 L 1198.31 250.4 L 1224.51 250.4 L 1227.47 284.74 L 1227.47 338.35 L 1253.66 338.35 L 1274.56 343.04 L 1240 695 Z" fill="#a06121" fill-opacity="0.33"/><path d="M -40 695 L -40 320.27 L 10.77 320.27 L 49.3 377.37 L 49.3 336.02 L 100.07 336.02 L 139.99 369.4 L 139.99 332.65 L 190.76 332.65 L 214.43 355.99 L 214.43 354.32 L 265.2 354.32 L 300.94 429.51 L 300.94 388.59 L 351.71 388.59 L 394.7 407.2 L 394.7 337.17 L 445.47 337.17 L 466.15 401.1 L 466.15 309.13 L 516.92 309.13 L 559.74 408.7 L 559.74 413.41 L 610.51 413.41 L 649.43 431.99 L 649.43 374.13 L 700.19 374.13 L 731.91 404.35 L 731.91 416.73 L 782.67 416.73 L 785.17 435.46 L 785.17 316.99 L 835.94 316.99 L 838.21 352.05 L 838.21 260.93 L 888.98 260.93 L 924.09 364.96 L 924.09 369.56 L 974.86 369.56 L 979.05 439.52 L 979.05 318.94 L 1029.82 318.94 L 1061.09 343.25 L 1061.09 376.67 L 1111.86 376.67 L 1117.35 420.4 L 1117.35 261.47 L 1168.12 261.47 L 1211.37 308.57 L 1211.37 327 L 1262.14 327 L 1279.75 361.06 L 1240 695 Z" fill="#dfc654" fill-opacity="0.49"/></g>
<rect width="1200" height="675" fill="url(#halo)" style="mix-blend-mode:screen"/>
<g clip-path="url(#frame)"><line x1="0" y1="0" x2="0" y2="675" stroke="#ffffff" stroke-opacity="0.035" stroke-width="1"/><line x1="100" y1="0" x2="100" y2="675" stroke="#ffffff" stroke-opacity="0.035" stroke-width="1"/><line x1="200" y1="0" x2="200" y2="675" stroke="#ffffff" stroke-opacity="0.035" stroke-width="1"/><line x1="300" y1="0" x2="300" y2="675" stroke="#ffffff" stroke-opacity="0.035" stroke-width="1"/><line x1="400" y1="0" x2="400" y2="675" stroke="#ffffff" stroke-opacity="0.035" stroke-width="1"/><line x1="500" y1="0" x2="500" y2="675" stroke="#ffffff" stroke-opacity="0.035" stroke-width="1"/><line x1="600" y1="0" x2="600" y2="675" stroke="#ffffff" stroke-opacity="0.035" stroke-width="1"/><line x1="700" y1="0" x2="700" y2="675" stroke="#ffffff" stroke-opacity="0.035" stroke-width="1"/><line x1="800" y1="0" x2="800" y2="675" stroke="#ffffff" stroke-opacity="0.035" stroke-width="1"/><line x1="900" y1="0" x2="900" y2="675" stroke="#ffffff" stroke-opacity="0.035" stroke-width="1"/><line x1="1000" y1="0" x2="1000" y2="675" stroke="#ffffff" stroke-opacity="0.035" stroke-width="1"/><line x1="1100" y1="0" x2="1100" y2="675" stroke="#ffffff" stroke-opacity="0.035" stroke-width="1"/><line x1="1200" y1="0" x2="1200" y2="675" stroke="#ffffff" stroke-opacity="0.035" stroke-width="1"/><line x1="0" y1="0" x2="1200" y2="0" stroke="#ffffff" stroke-opacity="0.035" stroke-width="1"/><line x1="0" y1="100" x2="1200" y2="100" stroke="#ffffff" stroke-opacity="0.035" stroke-width="1"/><line x1="0" y1="200" x2="1200" y2="200" stroke="#ffffff" stroke-opacity="0.035" stroke-width="1"/><line x1="0" y1="300" x2="1200" y2="300" stroke="#ffffff" stroke-opacity="0.035" stroke-width="1"/><line x1="0" y1="400" x2="1200" y2="400" stroke="#ffffff" stroke-opacity="0.035" stroke-width="1"/><line x1="0" y1="500" x2="1200" y2="500" stroke="#ffffff" stroke-opacity="0.035" stroke-width="1"/><line x1="0" y1="600" x2="1200" y2="600" stroke="#ffffff" stroke-opacity="0.035" stroke-width="1"/></g>
<rect width="1200" height="675" fill="#1f1611" opacity="0.3"/>
<g clip-path="url(#frame)"><line x1="300" y1="223" x2="500" y2="145" stroke="#a06121" stroke-opacity="0.22" stroke-width="1"/><line x1="300" y1="223" x2="500" y2="223" stroke="#a06121" stroke-opacity="0.22" stroke-width="1"/><line x1="300" y1="223" x2="500" y2="301" stroke="#a06121" stroke-opacity="0.22" stroke-width="1"/><line x1="300" y1="223" x2="500" y2="379" stroke="#f7f284" stroke-opacity="0.55" stroke-width="2"/><line x1="300" y1="223" x2="500" y2="457" stroke="#f7f284" stroke-opacity="0.55" stroke-width="2"/><line x1="300" y1="223" x2="500" y2="535" stroke="#a06121" stroke-opacity="0.22" stroke-width="1"/><line x1="300" y1="301" x2="500" y2="145" stroke="#f7f284" stroke-opacity="0.55" stroke-width="2"/><line x1="300" y1="301" x2="500" y2="223" stroke="#a06121" stroke-opacity="0.22" stroke-width="1"/><line x1="300" y1="301" x2="500" y2="301" stroke="#f7f284" stroke-opacity="0.55" stroke-width="2"/><line x1="300" y1="301" x2="500" y2="379" stroke="#a06121" stroke-opacity="0.22" stroke-width="1"/><line x1="300" y1="301" x2="500" y2="457" stroke="#f7f284" stroke-opacity="0.55" stroke-width="2"/><line x1="300" y1="301" x2="500" y2="535" stroke="#f7f284" stroke-opacity="0.55" stroke-width="2"/><line x1="300" y1="379" x2="500" y2="145" stroke="#f7f284" stroke-opacity="0.55" stroke-width="2"/><line x1="300" y1="379" x2="500" y2="223" stroke="#f7f284" stroke-opacity="0.55" stroke-width="2"/><line x1="300" y1="379" x2="500" y2="301" stroke="#f7f284" stroke-opacity="0.55" stroke-width="2"/><line x1="300" y1="379" x2="500" y2="379" stroke="#a06121" stroke-opacity="0.22" stroke-width="1"/><line x1="300" y1="379" x2="500" y2="457" stroke="#a06121" stroke-opacity="0.22" stroke-width="1"/><line x1="300" y1="379" x2="500" y2="535" stroke="#f7f284" stroke-opacity="0.55" stroke-width="2"/><line x1="300" y1="457" x2="500" y2="145" stroke="#a06121" stroke-opacity="0.22" stroke-width="1"/><line x1="300" y1="457" x2="500" y2="223" stroke="#a06121" stroke-opacity="0.22" stroke-width="1"/><line x1="300" y1="457" x2="500" y2="301" stroke="#f7f284" stroke-opacity="0.55" stroke-width="2"/><line x1="300" y1="457" x2="500" y2="379" stroke="#f7f284" stroke-opacity="0.55" stroke-width="2"/><line x1="300" y1="457" x2="500" y2="457" stroke="#a06121" stroke-opacity="0.22" stroke-width="1"/><line x1="300" y1="457" x2="500" y2="535" stroke="#f7f284" stroke-opacity="0.55" stroke-width="2"/><line x1="500" y1="145" x2="700" y2="145" stroke="#a06121" stroke-opacity="0.22" stroke-width="1"/><line x1="500" y1="145" x2="700" y2="223" stroke="#a06121" stroke-opacity="0.22" stroke-width="1"/><line x1="500" y1="145" x2="700" y2="301" stroke="#f7f284" stroke-opacity="0.55" stroke-width="2"/><line x1="500" y1="145" x2="700" y2="379" stroke="#a06121" stroke-opacity="0.22" stroke-width="1"/><line x1="500" y1="145" x2="700" y2="457" stroke="#a06121" stroke-opacity="0.22" stroke-width="1"/><line x1="500" y1="145" x2="700" y2="535" stroke="#f7f284" stroke-opacity="0.55" stroke-width="2"/><line x1="500" y1="223" x2="700" y2="145" stroke="#f7f284" stroke-opacity="0.55" stroke-width="2"/><line x1="500" y1="223" x2="700" y2="223" stroke="#f7f284" stroke-opacity="0.55" stroke-width="2"/><line x1="500" y1="223" x2="700" y2="301" stroke="#f7f284" stroke-opacity="0.55" stroke-width="2"/><line x1="500" y1="223" x2="700" y2="379" stroke="#f7f284" stroke-opacity="0.55" stroke-width="2"/><line x1="500" y1="223" x2="700" y2="457" stroke="#f7f284" stroke-opacity="0.55" stroke-width="2"/><line x1="500" y1="223" x2="700" y2="535" stroke="#a06121" stroke-opacity="0.22" stroke-width="1"/><line x1="500" y1="301" x2="700" y2="145" stroke="#a06121" stroke-opacity="0.22" stroke-width="1"/><line x1="500" y1="301" x2="700" y2="223" stroke="#f7f284" stroke-opacity="0.55" stroke-width="2"/><line x1="500" y1="301" x2="700" y2="301" stroke="#f7f284" stroke-opacity="0.55" stroke-width="2"/><line x1="500" y1="301" x2="700" y2="379" stroke="#f7f284" stroke-opacity="0.55" stroke-width="2"/><line x1="500" y1="301" x2="700" y2="457" stroke="#a06121" stroke-opacity="0.22" stroke-width="1"/><line x1="500" y1="301" x2="700" y2="535" stroke="#a06121" stroke-opacity="0.22" stroke-width="1"/><line x1="500" y1="379" x2="700" y2="145" stroke="#f7f284" stroke-opacity="0.55" stroke-width="2"/><line x1="500" y1="379" x2="700" y2="223" stroke="#f7f284" stroke-opacity="0.55" stroke-width="2"/><line x1="500" y1="379" x2="700" y2="301" stroke="#f7f284" stroke-opacity="0.55" stroke-width="2"/><line x1="500" y1="379" x2="700" y2="379" stroke="#f7f284" stroke-opacity="0.55" stroke-width="2"/><line x1="500" y1="379" x2="700" y2="457" stroke="#a06121" stroke-opacity="0.22" stroke-width="1"/><line x1="500" y1="379" x2="700" y2="535" stroke="#a06121" stroke-opacity="0.22" stroke-width="1"/><line x1="500" y1="457" x2="700" y2="145" stroke="#f7f284" stroke-opacity="0.55" stroke-width="2"/><line x1="500" y1="457" x2="700" y2="223" stroke="#a06121" stroke-opacity="0.22" stroke-width="1"/><line x1="500" y1="457" x2="700" y2="301" stroke="#a06121" stroke-opacity="0.22" stroke-width="1"/><line x1="500" y1="457" x2="700" y2="379" stroke="#a06121" stroke-opacity="0.22" stroke-width="1"/><line x1="500" y1="457" x2="700" y2="457" stroke="#a06121" stroke-opacity="0.22" stroke-width="1"/><line x1="500" y1="457" x2="700" y2="535" stroke="#f7f284" stroke-opacity="0.55" stroke-width="2"/><line x1="500" y1="535" x2="700" y2="145" stroke="#a06121" stroke-opacity="0.22" stroke-width="1"/><line x1="500" y1="535" x2="700" y2="223" stroke="#a06121" stroke-opacity="0.22" stroke-width="1"/><line x1="500" y1="535" x2="700" y2="301" stroke="#f7f284" stroke-opacity="0.55" stroke-width="2"/><line x1="500" y1="535" x2="700" y2="379" stroke="#f7f284" stroke-opacity="0.55" stroke-width="2"/><line x1="500" y1="535" x2="700" y2="457" stroke="#f7f284" stroke-opacity="0.55" stroke-width="2"/><line x1="500" y1="535" x2="700" y2="535" stroke="#f7f284" stroke-opacity="0.55" stroke-width="2"/><line x1="700" y1="145" x2="900" y2="262" stroke="#f7f284" stroke-opacity="0.55" stroke-width="2"/><line x1="700" y1="145" x2="900" y2="340" stroke="#f7f284" stroke-opacity="0.55" stroke-width="2"/><line x1="700" y1="145" x2="900" y2="418" stroke="#a06121" stroke-opacity="0.22" stroke-width="1"/><line x1="700" y1="223" x2="900" y2="262" stroke="#f7f284" stroke-opacity="0.55" stroke-width="2"/><line x1="700" y1="223" x2="900" y2="340" stroke="#f7f284" stroke-opacity="0.55" stroke-width="2"/><line x1="700" y1="223" x2="900" y2="418" stroke="#a06121" stroke-opacity="0.22" stroke-width="1"/><line x1="700" y1="301" x2="900" y2="262" stroke="#a06121" stroke-opacity="0.22" stroke-width="1"/><line x1="700" y1="301" x2="900" y2="340" stroke="#f7f284" stroke-opacity="0.55" stroke-width="2"/><line x1="700" y1="301" x2="900" y2="418" stroke="#f7f284" stroke-opacity="0.55" stroke-width="2"/><line x1="700" y1="379" x2="900" y2="262" stroke="#a06121" stroke-opacity="0.22" stroke-width="1"/><line x1="700" y1="379" x2="900" y2="340" stroke="#f7f284" stroke-opacity="0.55" stroke-width="2"/><line x1="700" y1="379" x2="900" y2="418" stroke="#f7f284" stroke-opacity="0.55" stroke-width="2"/><line x1="700" y1="457" x2="900" y2="262" stroke="#f7f284" stroke-opacity="0.55" stroke-width="2"/><line x1="700" y1="457" x2="900" y2="340" stroke="#a06121" stroke-opacity="0.22" stroke-width="1"/><line x1="700" y1="457" x2="900" y2="418" stroke="#a06121" stroke-opacity="0.22" stroke-width="1"/><line x1="700" y1="535" x2="900" y2="262" stroke="#a06121" stroke-opacity="0.22" stroke-width="1"/><line x1="700" y1="535" x2="900" y2="340" stroke="#a06121" stroke-opacity="0.22" stroke-width="1"/><line x1="700" y1="535" x2="900" y2="418" stroke="#f7f284" stroke-opacity="0.55" stroke-width="2"/><circle cx="300" cy="223" r="13" fill="#dfc654" fill-opacity="0.95"/><circle cx="300" cy="223" r="21" fill="none" stroke="#dfc654" stroke-opacity="0.3" stroke-width="1.5"/><circle cx="300" cy="301" r="13" fill="#dfc654" fill-opacity="0.95"/><circle cx="300" cy="301" r="21" fill="none" stroke="#dfc654" stroke-opacity="0.3" stroke-width="1.5"/><circle cx="300" cy="379" r="13" fill="#dfc654" fill-opacity="0.95"/><circle cx="300" cy="379" r="21" fill="none" stroke="#dfc654" stroke-opacity="0.3" stroke-width="1.5"/><circle cx="300" cy="457" r="16" fill="#f7f284" fill-opacity="0.95"/><circle cx="300" cy="457" r="26" fill="none" stroke="#dfc654" stroke-opacity="0.3" stroke-width="1.5"/><circle cx="500" cy="145" r="13" fill="#dfc654" fill-opacity="0.95"/><circle cx="500" cy="145" r="21" fill="none" stroke="#dfc654" stroke-opacity="0.3" stroke-width="1.5"/><circle cx="500" cy="223" r="16" fill="#f7f284" fill-opacity="0.95"/><circle cx="500" cy="223" r="26" fill="none" stroke="#dfc654" stroke-opacity="0.3" stroke-width="1.5"/><circle cx="500" cy="301" r="16" fill="#f7f284" fill-opacity="0.95"/><circle cx="500" cy="301" r="26" fill="none" stroke="#dfc654" stroke-opacity="0.3" stroke-width="1.5"/><circle cx="500" cy="379" r="16" fill="#f7f284" fill-opacity="0.95"/><circle cx="500" cy="379" r="26" fill="none" stroke="#dfc654" stroke-opacity="0.3" stroke-width="1.5"/><circle cx="500" cy="457" r="13" fill="#dfc654" fill-opacity="0.95"/><circle cx="500" cy="457" r="21" fill="none" stroke="#dfc654" stroke-opacity="0.3" stroke-width="1.5"/><circle cx="500" cy="535" r="13" fill="#dfc654" fill-opacity="0.95"/><circle cx="500" cy="535" r="21" fill="none" stroke="#dfc654" stroke-opacity="0.3" stroke-width="1.5"/><circle cx="700" cy="145" r="16" fill="#f7f284" fill-opacity="0.95"/><circle cx="700" cy="145" r="26" fill="none" stroke="#dfc654" stroke-opacity="0.3" stroke-width="1.5"/><circle cx="700" cy="223" r="13" fill="#dfc654" fill-opacity="0.95"/><circle cx="700" cy="223" r="21" fill="none" stroke="#dfc654" stroke-opacity="0.3" stroke-width="1.5"/><circle cx="700" cy="301" r="13" fill="#dfc654" fill-opacity="0.95"/><circle cx="700" cy="301" r="21" fill="none" stroke="#dfc654" stroke-opacity="0.3" stroke-width="1.5"/><circle cx="700" cy="379" r="16" fill="#f7f284" fill-opacity="0.95"/><circle cx="700" cy="379" r="26" fill="none" stroke="#dfc654" stroke-opacity="0.3" stroke-width="1.5"/><circle cx="700" cy="457" r="13" fill="#dfc654" fill-opacity="0.95"/><circle cx="700" cy="457" r="21" fill="none" stroke="#dfc654" stroke-opacity="0.3" stroke-width="1.5"/><circle cx="700" cy="535" r="13" fill="#dfc654" fill-opacity="0.95"/><circle cx="700" cy="535" r="21" fill="none" stroke="#dfc654" stroke-opacity="0.3" stroke-width="1.5"/><circle cx="900" cy="262" r="16" fill="#f7f284" fill-opacity="0.95"/><circle cx="900" cy="262" r="26" fill="none" stroke="#dfc654" stroke-opacity="0.3" stroke-width="1.5"/><circle cx="900" cy="340" r="16" fill="#f7f284" fill-opacity="0.95"/><circle cx="900" cy="340" r="26" fill="none" stroke="#dfc654" stroke-opacity="0.3" stroke-width="1.5"/><circle cx="900" cy="418" r="16" fill="#f7f284" fill-opacity="0.95"/><circle cx="900" cy="418" r="26" fill="none" stroke="#dfc654" stroke-opacity="0.3" stroke-width="1.5"/></g>
<rect width="1200" height="675" fill="url(#vig)"/>
<rect width="1200" height="675" filter="url(#grain)" opacity="0.14" style="mix-blend-mode:overlay"/>
</svg>