<svg xmlns="http://www.w3.org/2000/svg" viewBox="0 0 1200 675" width="1200" height="675" role="img" aria-label="A tilted set of balance scales — original cover illustration">
<defs>
<linearGradient id="bg" x1="0" y1="0" x2="1" y2="1">
<stop offset="0" stop-color="#222339"/><stop offset="0.55" stop-color="#110d14"/><stop offset="1" stop-color="#3d284e"/>
</linearGradient>
<radialGradient id="core" cx="0.4" cy="0.35" r="0.75">
<stop offset="0" stop-color="#70b2fb" stop-opacity="0.95"/><stop offset="0.5" stop-color="#889ad9" stop-opacity="0.55"/><stop offset="1" stop-color="#6b40af" stop-opacity="0"/>
</radialGradient>
<radialGradient id="halo" cx="0.28" cy="0.38" r="0.85">
<stop offset="0" stop-color="#70b2fb" stop-opacity="0.4"/><stop offset="1" stop-color="#70b2fb" stop-opacity="0"/>
</radialGradient>
<radialGradient id="vig" cx="0.5" cy="0.5" r="0.75">
<stop offset="0.55" stop-color="#000000" stop-opacity="0"/><stop offset="1" stop-color="#000000" stop-opacity="0.55"/>
</radialGradient>
<filter id="grain" x="0" y="0" width="100%" height="100%">
<feTurbulence type="fractalNoise" baseFrequency="0.85" numOctaves="3" stitchTiles="stitch" result="t"/>
<feColorMatrix type="saturate" values="0" in="t" result="g"/>
</filter>
<clipPath id="frame"><rect x="0" y="0" width="1200" height="675"/></clipPath>
</defs>
<rect width="1200" height="675" fill="url(#bg)"/>
<g clip-path="url(#frame)" opacity="0.42"><g transform="skewY(-1.49)"><rect x="130.45" y="-101.25" width="1245.91" height="50.11" fill="#6b40af" fill-opacity="0.57"/><rect x="126.64" y="-39.94" width="1113.36" height="11.76" fill="#889ad9" fill-opacity="0.56"/><rect x="52.08" y="-20.19" width="1261.58" height="14.31" fill="#889ad9" fill-opacity="0.44"/><rect x="92.08" y="-20.19" width="249.77" height="14.31" fill="#70b2fb" fill-opacity="0.45"/><rect x="94.08" y="0.53" width="1145.92" height="30.41" fill="#6b40af" fill-opacity="0.38"/><rect x="109.42" y="37.18" width="1250.12" height="10.97" fill="#889ad9" fill-opacity="0.34"/><rect x="149.42" y="37.18" width="147.67" height="10.97" fill="#70b2fb" fill-opacity="0.4"/><rect x="15.46" y="59.95" width="1268.91" height="16.11" fill="#6b40af" fill-opacity="0.15"/><rect x="80.06" y="82.95" width="1255.99" height="20.95" fill="#889ad9" fill-opacity="0.47"/><rect x="120.06" y="82.95" width="350.11" height="20.95" fill="#70b2fb" fill-opacity="0.63"/><rect x="-15.06" y="114.75" width="1275.01" height="49.76" fill="#6b40af" fill-opacity="0.35"/><rect x="70.9" y="171.51" width="1257.82" height="58.43" fill="#889ad9" fill-opacity="0.28"/><rect x="169.88" y="245.73" width="1238.02" height="53.46" fill="#6b40af" fill-opacity="0.47"/><rect x="151.38" y="314.86" width="1241.72" height="8.96" fill="#6b40af" fill-opacity="0.52"/><rect x="191.38" y="314.86" width="377.63" height="8.96" fill="#70b2fb" fill-opacity="0.63"/><rect x="43.75" y="333.9" width="1196.25" height="31.89" fill="#6b40af" fill-opacity="0.19"/><rect x="-2.35" y="386.67" width="1272.47" height="25.36" fill="#6b40af" fill-opacity="0.29"/><rect x="72.71" y="418.26" width="1167.29" height="46.48" fill="#6b40af" fill-opacity="0.54"/><rect x="75.75" y="480.01" width="1256.85" height="44.87" fill="#6b40af" fill-opacity="0.3"/><rect x="115.75" y="480.01" width="145.45" height="44.87" fill="#70b2fb" fill-opacity="0.44"/><rect x="-37.61" y="545.48" width="1277.61" height="58.51" fill="#6b40af" fill-opacity="0.55"/></g></g>
<rect width="1200" height="675" fill="url(#halo)" style="mix-blend-mode:screen"/>
<g clip-path="url(#frame)"><line x1="0" y1="0" x2="0" y2="675" stroke="#ffffff" stroke-opacity="0.035" stroke-width="1"/><line x1="100" y1="0" x2="100" y2="675" stroke="#ffffff" stroke-opacity="0.035" stroke-width="1"/><line x1="200" y1="0" x2="200" y2="675" stroke="#ffffff" stroke-opacity="0.035" stroke-width="1"/><line x1="300" y1="0" x2="300" y2="675" stroke="#ffffff" stroke-opacity="0.035" stroke-width="1"/><line x1="400" y1="0" x2="400" y2="675" stroke="#ffffff" stroke-opacity="0.035" stroke-width="1"/><line x1="500" y1="0" x2="500" y2="675" stroke="#ffffff" stroke-opacity="0.035" stroke-width="1"/><line x1="600" y1="0" x2="600" y2="675" stroke="#ffffff" stroke-opacity="0.035" stroke-width="1"/><line x1="700" y1="0" x2="700" y2="675" stroke="#ffffff" stroke-opacity="0.035" stroke-width="1"/><line x1="800" y1="0" x2="800" y2="675" stroke="#ffffff" stroke-opacity="0.035" stroke-width="1"/><line x1="900" y1="0" x2="900" y2="675" stroke="#ffffff" stroke-opacity="0.035" stroke-width="1"/><line x1="1000" y1="0" x2="1000" y2="675" stroke="#ffffff" stroke-opacity="0.035" stroke-width="1"/><line x1="1100" y1="0" x2="1100" y2="675" stroke="#ffffff" stroke-opacity="0.035" stroke-width="1"/><line x1="1200" y1="0" x2="1200" y2="675" stroke="#ffffff" stroke-opacity="0.035" stroke-width="1"/><line x1="0" y1="0" x2="1200" y2="0" stroke="#ffffff" stroke-opacity="0.035" stroke-width="1"/><line x1="0" y1="100" x2="1200" y2="100" stroke="#ffffff" stroke-opacity="0.035" stroke-width="1"/><line x1="0" y1="200" x2="1200" y2="200" stroke="#ffffff" stroke-opacity="0.035" stroke-width="1"/><line x1="0" y1="300" x2="1200" y2="300" stroke="#ffffff" stroke-opacity="0.035" stroke-width="1"/><line x1="0" y1="400" x2="1200" y2="400" stroke="#ffffff" stroke-opacity="0.035" stroke-width="1"/><line x1="0" y1="500" x2="1200" y2="500" stroke="#ffffff" stroke-opacity="0.035" stroke-width="1"/><line x1="0" y1="600" x2="1200" y2="600" stroke="#ffffff" stroke-opacity="0.035" stroke-width="1"/></g>
<rect width="1200" height="675" fill="#110d14" opacity="0.3"/>
<g clip-path="url(#frame)"><rect x="588" y="250" width="24" height="270" fill="#6b40af" fill-opacity="0.8"/><rect x="490" y="520" width="220" height="26" rx="5" fill="#889ad9" fill-opacity="0.85"/><circle cx="600" cy="200" r="16" fill="#70b2fb"/><g transform="rotate(-2.54 600 250)"><rect x="390" y="243" width="420" height="14" rx="6" fill="#70b2fb" fill-opacity="0.95"/><line x1="390" y1="250" x2="390" y2="328" stroke="#889ad9" stroke-opacity="0.8" stroke-width="3"/><path d="M 318 328 Q 390 400 462 328 Z" fill="#6b40af" fill-opacity="0.75" stroke="#889ad9" stroke-opacity="0.7" stroke-width="2.5"/><line x1="810" y1="250" x2="810" y2="328" stroke="#889ad9" stroke-opacity="0.8" stroke-width="3"/><path d="M 738 328 Q 810 400 882 328 Z" fill="#6b40af" fill-opacity="0.75" stroke="#889ad9" stroke-opacity="0.7" stroke-width="2.5"/></g></g>
<rect width="1200" height="675" fill="url(#vig)"/>
<rect width="1200" height="675" filter="url(#grain)" opacity="0.14" style="mix-blend-mode:overlay"/>
</svg>