<svg xmlns="http://www.w3.org/2000/svg" viewBox="0 0 1200 675" width="1200" height="675" role="img" aria-label="Electricity pylons carrying power lines — original cover illustration">
<defs>
<linearGradient id="bg" x1="0" y1="0" x2="1" y2="1">
<stop offset="0" stop-color="#191e39"/><stop offset="0.55" stop-color="#0b0f15"/><stop offset="1" stop-color="#1e3355"/>
</linearGradient>
<radialGradient id="core" cx="0.4" cy="0.35" r="0.75">
<stop offset="0" stop-color="#8a85f9" stop-opacity="0.95"/><stop offset="0.5" stop-color="#3e48e1" stop-opacity="0.55"/><stop offset="1" stop-color="#204db0" stop-opacity="0"/>
</radialGradient>
<radialGradient id="halo" cx="0.48" cy="0.49" r="0.85">
<stop offset="0" stop-color="#8a85f9" stop-opacity="0.4"/><stop offset="1" stop-color="#8a85f9" stop-opacity="0"/>
</radialGradient>
<radialGradient id="vig" cx="0.5" cy="0.5" r="0.75">
<stop offset="0.55" stop-color="#000000" stop-opacity="0"/><stop offset="1" stop-color="#000000" stop-opacity="0.55"/>
</radialGradient>
<filter id="grain" x="0" y="0" width="100%" height="100%">
<feTurbulence type="fractalNoise" baseFrequency="0.85" numOctaves="3" stitchTiles="stitch" result="t"/>
<feColorMatrix type="saturate" values="0" in="t" result="g"/>
</filter>
<clipPath id="frame"><rect x="0" y="0" width="1200" height="675"/></clipPath>
</defs>
<rect width="1200" height="675" fill="url(#bg)"/>
<g clip-path="url(#frame)" opacity="0.42"><g transform="skewY(0.8)"><rect x="86.33" y="-101.25" width="1254.73" height="32.35" fill="#204db0" fill-opacity="0.51"/><rect x="139.03" y="-54.75" width="1244.19" height="60.72" fill="#3e48e1" fill-opacity="0.47"/><rect x="152.04" y="19.42" width="1241.59" height="15.99" fill="#204db0" fill-opacity="0.5"/><rect x="45.94" y="44.13" width="1262.81" height="49.64" fill="#204db0" fill-opacity="0.37"/><rect x="85.94" y="44.13" width="261.47" height="49.64" fill="#8a85f9" fill-opacity="0.44"/><rect x="174.34" y="104.18" width="1065.66" height="40.47" fill="#204db0" fill-opacity="0.13"/><rect x="90.44" y="168.58" width="1149.56" height="16.12" fill="#3e48e1" fill-opacity="0.22"/><rect x="130.44" y="168.58" width="448.78" height="16.12" fill="#8a85f9" fill-opacity="0.39"/><rect x="3.59" y="204.58" width="1271.28" height="45.92" fill="#3e48e1" fill-opacity="0.54"/><rect x="43.59" y="204.58" width="309.24" height="45.92" fill="#8a85f9" fill-opacity="0.46"/><rect x="155.37" y="263.37" width="1240.93" height="42.79" fill="#204db0" fill-opacity="0.18"/><rect x="195.37" y="263.37" width="132.41" height="42.79" fill="#8a85f9" fill-opacity="0.53"/><rect x="19.97" y="317.7" width="1220.03" height="40.79" fill="#204db0" fill-opacity="0.33"/><rect x="114.97" y="364.34" width="1125.03" height="19.36" fill="#204db0" fill-opacity="0.14"/><rect x="154.97" y="364.34" width="174.18" height="19.36" fill="#8a85f9" fill-opacity="0.31"/><rect x="-8.82" y="392.09" width="1248.82" height="40.08" fill="#3e48e1" fill-opacity="0.22"/><rect x="-11.1" y="448.97" width="1251.1" height="19.73" fill="#204db0" fill-opacity="0.48"/><rect x="98.04" y="485.4" width="1252.39" height="41.12" fill="#204db0" fill-opacity="0.2"/><rect x="56.04" y="536.83" width="1183.96" height="68.31" fill="#204db0" fill-opacity="0.19"/><rect x="149.72" y="615.79" width="1242.06" height="12.89" fill="#3e48e1" fill-opacity="0.39"/><rect x="189.72" y="615.79" width="417.72" height="12.89" fill="#8a85f9" fill-opacity="0.28"/><rect x="67.82" y="647.72" width="1172.18" height="67.59" fill="#3e48e1" fill-opacity="0.16"/><rect x="36.73" y="722.69" width="1264.65" height="68.17" fill="#3e48e1" fill-opacity="0.47"/><rect x="76.73" y="722.69" width="320.53" height="68.17" fill="#8a85f9" fill-opacity="0.61"/></g></g>
<rect width="1200" height="675" fill="url(#halo)" style="mix-blend-mode:screen"/>
<g clip-path="url(#frame)"><line x1="0" y1="0" x2="0" y2="675" stroke="#ffffff" stroke-opacity="0.035" stroke-width="1"/><line x1="100" y1="0" x2="100" y2="675" stroke="#ffffff" stroke-opacity="0.035" stroke-width="1"/><line x1="200" y1="0" x2="200" y2="675" stroke="#ffffff" stroke-opacity="0.035" stroke-width="1"/><line x1="300" y1="0" x2="300" y2="675" stroke="#ffffff" stroke-opacity="0.035" stroke-width="1"/><line x1="400" y1="0" x2="400" y2="675" stroke="#ffffff" stroke-opacity="0.035" stroke-width="1"/><line x1="500" y1="0" x2="500" y2="675" stroke="#ffffff" stroke-opacity="0.035" stroke-width="1"/><line x1="600" y1="0" x2="600" y2="675" stroke="#ffffff" stroke-opacity="0.035" stroke-width="1"/><line x1="700" y1="0" x2="700" y2="675" stroke="#ffffff" stroke-opacity="0.035" stroke-width="1"/><line x1="800" y1="0" x2="800" y2="675" stroke="#ffffff" stroke-opacity="0.035" stroke-width="1"/><line x1="900" y1="0" x2="900" y2="675" stroke="#ffffff" stroke-opacity="0.035" stroke-width="1"/><line x1="1000" y1="0" x2="1000" y2="675" stroke="#ffffff" stroke-opacity="0.035" stroke-width="1"/><line x1="1100" y1="0" x2="1100" y2="675" stroke="#ffffff" stroke-opacity="0.035" stroke-width="1"/><line x1="1200" y1="0" x2="1200" y2="675" stroke="#ffffff" stroke-opacity="0.035" stroke-width="1"/><line x1="0" y1="0" x2="1200" y2="0" stroke="#ffffff" stroke-opacity="0.035" stroke-width="1"/><line x1="0" y1="100" x2="1200" y2="100" stroke="#ffffff" stroke-opacity="0.035" stroke-width="1"/><line x1="0" y1="200" x2="1200" y2="200" stroke="#ffffff" stroke-opacity="0.035" stroke-width="1"/><line x1="0" y1="300" x2="1200" y2="300" stroke="#ffffff" stroke-opacity="0.035" stroke-width="1"/><line x1="0" y1="400" x2="1200" y2="400" stroke="#ffffff" stroke-opacity="0.035" stroke-width="1"/><line x1="0" y1="500" x2="1200" y2="500" stroke="#ffffff" stroke-opacity="0.035" stroke-width="1"/><line x1="0" y1="600" x2="1200" y2="600" stroke="#ffffff" stroke-opacity="0.035" stroke-width="1"/></g>
<rect width="1200" height="675" fill="#0b0f15" opacity="0.3"/>
<g clip-path="url(#frame)"><path d="M 278 540 L 320 212.99 L 360 212.99 L 402 540" fill="none" stroke="#3e48e1" stroke-opacity="0.85" stroke-width="5"/><line x1="285" y1="485.5" x2="395" y2="485.5" stroke="#204db0" stroke-opacity="0.6" stroke-width="3"/><line x1="292" y1="431" x2="388" y2="431" stroke="#204db0" stroke-opacity="0.6" stroke-width="3"/><line x1="299" y1="376.5" x2="381" y2="376.5" stroke="#204db0" stroke-opacity="0.6" stroke-width="3"/><line x1="306" y1="321.99" x2="374" y2="321.99" stroke="#204db0" stroke-opacity="0.6" stroke-width="3"/><line x1="313" y1="267.49" x2="367" y2="267.49" stroke="#204db0" stroke-opacity="0.6" stroke-width="3"/><line x1="256" y1="252.99" x2="424" y2="252.99" stroke="#8a85f9" stroke-opacity="0.9" stroke-width="5"/><line x1="278" y1="304.99" x2="402" y2="304.99" stroke="#8a85f9" stroke-opacity="0.7" stroke-width="4"/><path d="M 538 540 L 580 182.23 L 620 182.23 L 662 540" fill="none" stroke="#3e48e1" stroke-opacity="0.85" stroke-width="5"/><line x1="545" y1="480.37" x2="655" y2="480.37" stroke="#204db0" stroke-opacity="0.6" stroke-width="3"/><line x1="552" y1="420.74" x2="648" y2="420.74" stroke="#204db0" stroke-opacity="0.6" stroke-width="3"/><line x1="559" y1="361.11" x2="641" y2="361.11" stroke="#204db0" stroke-opacity="0.6" stroke-width="3"/><line x1="566" y1="301.48" x2="634" y2="301.48" stroke="#204db0" stroke-opacity="0.6" stroke-width="3"/><line x1="573" y1="241.86" x2="627" y2="241.86" stroke="#204db0" stroke-opacity="0.6" stroke-width="3"/><line x1="516" y1="222.23" x2="684" y2="222.23" stroke="#8a85f9" stroke-opacity="0.9" stroke-width="5"/><line x1="538" y1="274.23" x2="662" y2="274.23" stroke="#8a85f9" stroke-opacity="0.7" stroke-width="4"/><path d="M 798 540 L 840 197.4 L 880 197.4 L 922 540" fill="none" stroke="#3e48e1" stroke-opacity="0.85" stroke-width="5"/><line x1="805" y1="482.9" x2="915" y2="482.9" stroke="#204db0" stroke-opacity="0.6" stroke-width="3"/><line x1="812" y1="425.8" x2="908" y2="425.8" stroke="#204db0" stroke-opacity="0.6" stroke-width="3"/><line x1="819" y1="368.7" x2="901" y2="368.7" stroke="#204db0" stroke-opacity="0.6" stroke-width="3"/><line x1="826" y1="311.6" x2="894" y2="311.6" stroke="#204db0" stroke-opacity="0.6" stroke-width="3"/><line x1="833" y1="254.5" x2="887" y2="254.5" stroke="#204db0" stroke-opacity="0.6" stroke-width="3"/><line x1="776" y1="237.4" x2="944" y2="237.4" stroke="#8a85f9" stroke-opacity="0.9" stroke-width="5"/><line x1="798" y1="289.4" x2="922" y2="289.4" stroke="#8a85f9" stroke-opacity="0.7" stroke-width="4"/><path d="M 424 252.99 Q 470 314.99 516 222.23" fill="none" stroke="#8a85f9" stroke-opacity="0.55" stroke-width="2.5"/><path d="M 424 304.99 Q 470 358.99 516 274.23" fill="none" stroke="#8a85f9" stroke-opacity="0.55" stroke-width="2.5"/><path d="M 684 222.23 Q 730 299.4 776 237.4" fill="none" stroke="#8a85f9" stroke-opacity="0.55" stroke-width="2.5"/><path d="M 684 274.23 Q 730 343.4 776 289.4" fill="none" stroke="#8a85f9" stroke-opacity="0.55" stroke-width="2.5"/></g>
<rect width="1200" height="675" fill="url(#vig)"/>
<rect width="1200" height="675" filter="url(#grain)" opacity="0.14" style="mix-blend-mode:overlay"/>
</svg>