<svg xmlns="http://www.w3.org/2000/svg" viewBox="0 0 1200 675" width="1200" height="675" role="img" aria-label="Electricity pylons carrying power lines — original cover illustration">
<defs>
<linearGradient id="bg" x1="0" y1="0" x2="1" y2="1">
<stop offset="0" stop-color="#1c451d"/><stop offset="0.55" stop-color="#10211c"/><stop offset="1" stop-color="#206a4e"/>
</linearGradient>
<radialGradient id="core" cx="0.4" cy="0.35" r="0.75">
<stop offset="0" stop-color="#b2fa85" stop-opacity="0.95"/><stop offset="0.5" stop-color="#7cef6b" stop-opacity="0.55"/><stop offset="1" stop-color="#19bf65" stop-opacity="0"/>
</radialGradient>
<radialGradient id="halo" cx="0.38" cy="0.21" r="0.85">
<stop offset="0" stop-color="#b2fa85" stop-opacity="0.4"/><stop offset="1" stop-color="#b2fa85" stop-opacity="0"/>
</radialGradient>
<radialGradient id="vig" cx="0.5" cy="0.5" r="0.75">
<stop offset="0.55" stop-color="#000000" stop-opacity="0"/><stop offset="1" stop-color="#000000" stop-opacity="0.55"/>
</radialGradient>
<filter id="grain" x="0" y="0" width="100%" height="100%">
<feTurbulence type="fractalNoise" baseFrequency="0.85" numOctaves="3" stitchTiles="stitch" result="t"/>
<feColorMatrix type="saturate" values="0" in="t" result="g"/>
</filter>
<clipPath id="frame"><rect x="0" y="0" width="1200" height="675"/></clipPath>
</defs>
<rect width="1200" height="675" fill="url(#bg)"/>
<g clip-path="url(#frame)" opacity="0.42"><g transform="rotate(19.95 629.39 278.07)"><ellipse cx="629.39" cy="278.07" rx="384.57" ry="183.44" fill="none" stroke="#19bf65" stroke-opacity="0.44" stroke-width="2.43"/><ellipse cx="629.39" cy="278.07" rx="336.5" ry="193.05" fill="none" stroke="#19bf65" stroke-opacity="0.4" stroke-width="0.88"/><ellipse cx="629.39" cy="278.07" rx="288.43" ry="199.5" fill="none" stroke="#19bf65" stroke-opacity="0.36" stroke-width="2.35"/><ellipse cx="629.39" cy="278.07" rx="240.36" ry="117.01" fill="none" stroke="#19bf65" stroke-opacity="0.31" stroke-width="1.77"/><ellipse cx="629.39" cy="278.07" rx="192.29" ry="115.04" fill="none" stroke="#19bf65" stroke-opacity="0.27" stroke-width="1.22"/><ellipse cx="629.39" cy="278.07" rx="144.22" ry="75.84" fill="none" stroke="#19bf65" stroke-opacity="0.23" stroke-width="1.47"/><ellipse cx="629.39" cy="278.07" rx="96.14" ry="52.02" fill="none" stroke="#19bf65" stroke-opacity="0.19" stroke-width="2.94"/><ellipse cx="629.39" cy="278.07" rx="48.07" ry="33.54" fill="none" stroke="#19bf65" stroke-opacity="0.14" stroke-width="2.74"/></g><circle cx="629.39" cy="278.07" r="43.26" fill="url(#core)"/><circle cx="419.72" cy="317.76" r="9.38" fill="#b2fa85" fill-opacity="0.83"/><circle cx="866.55" cy="294.14" r="10.12" fill="#b2fa85" fill-opacity="0.58"/></g>
<rect width="1200" height="675" fill="url(#halo)" style="mix-blend-mode:screen"/>
<g clip-path="url(#frame)"><line x1="0" y1="0" x2="0" y2="675" stroke="#ffffff" stroke-opacity="0.035" stroke-width="1"/><line x1="100" y1="0" x2="100" y2="675" stroke="#ffffff" stroke-opacity="0.035" stroke-width="1"/><line x1="200" y1="0" x2="200" y2="675" stroke="#ffffff" stroke-opacity="0.035" stroke-width="1"/><line x1="300" y1="0" x2="300" y2="675" stroke="#ffffff" stroke-opacity="0.035" stroke-width="1"/><line x1="400" y1="0" x2="400" y2="675" stroke="#ffffff" stroke-opacity="0.035" stroke-width="1"/><line x1="500" y1="0" x2="500" y2="675" stroke="#ffffff" stroke-opacity="0.035" stroke-width="1"/><line x1="600" y1="0" x2="600" y2="675" stroke="#ffffff" stroke-opacity="0.035" stroke-width="1"/><line x1="700" y1="0" x2="700" y2="675" stroke="#ffffff" stroke-opacity="0.035" stroke-width="1"/><line x1="800" y1="0" x2="800" y2="675" stroke="#ffffff" stroke-opacity="0.035" stroke-width="1"/><line x1="900" y1="0" x2="900" y2="675" stroke="#ffffff" stroke-opacity="0.035" stroke-width="1"/><line x1="1000" y1="0" x2="1000" y2="675" stroke="#ffffff" stroke-opacity="0.035" stroke-width="1"/><line x1="1100" y1="0" x2="1100" y2="675" stroke="#ffffff" stroke-opacity="0.035" stroke-width="1"/><line x1="1200" y1="0" x2="1200" y2="675" stroke="#ffffff" stroke-opacity="0.035" stroke-width="1"/><line x1="0" y1="0" x2="1200" y2="0" stroke="#ffffff" stroke-opacity="0.035" stroke-width="1"/><line x1="0" y1="100" x2="1200" y2="100" stroke="#ffffff" stroke-opacity="0.035" stroke-width="1"/><line x1="0" y1="200" x2="1200" y2="200" stroke="#ffffff" stroke-opacity="0.035" stroke-width="1"/><line x1="0" y1="300" x2="1200" y2="300" stroke="#ffffff" stroke-opacity="0.035" stroke-width="1"/><line x1="0" y1="400" x2="1200" y2="400" stroke="#ffffff" stroke-opacity="0.035" stroke-width="1"/><line x1="0" y1="500" x2="1200" y2="500" stroke="#ffffff" stroke-opacity="0.035" stroke-width="1"/><line x1="0" y1="600" x2="1200" y2="600" stroke="#ffffff" stroke-opacity="0.035" stroke-width="1"/></g>
<rect width="1200" height="675" fill="#10211c" opacity="0.3"/>
<g clip-path="url(#frame)"><path d="M 278 540 L 320 238.13 L 360 238.13 L 402 540" fill="none" stroke="#7cef6b" stroke-opacity="0.85" stroke-width="5"/><line x1="285" y1="489.69" x2="395" y2="489.69" stroke="#19bf65" stroke-opacity="0.6" stroke-width="3"/><line x1="292" y1="439.38" x2="388" y2="439.38" stroke="#19bf65" stroke-opacity="0.6" stroke-width="3"/><line x1="299" y1="389.06" x2="381" y2="389.06" stroke="#19bf65" stroke-opacity="0.6" stroke-width="3"/><line x1="306" y1="338.75" x2="374" y2="338.75" stroke="#19bf65" stroke-opacity="0.6" stroke-width="3"/><line x1="313" y1="288.44" x2="367" y2="288.44" stroke="#19bf65" stroke-opacity="0.6" stroke-width="3"/><line x1="256" y1="278.13" x2="424" y2="278.13" stroke="#b2fa85" stroke-opacity="0.9" stroke-width="5"/><line x1="278" y1="330.13" x2="402" y2="330.13" stroke="#b2fa85" stroke-opacity="0.7" stroke-width="4"/><path d="M 538 540 L 580 230.68 L 620 230.68 L 662 540" fill="none" stroke="#7cef6b" stroke-opacity="0.85" stroke-width="5"/><line x1="545" y1="488.45" x2="655" y2="488.45" stroke="#19bf65" stroke-opacity="0.6" stroke-width="3"/><line x1="552" y1="436.89" x2="648" y2="436.89" stroke="#19bf65" stroke-opacity="0.6" stroke-width="3"/><line x1="559" y1="385.34" x2="641" y2="385.34" stroke="#19bf65" stroke-opacity="0.6" stroke-width="3"/><line x1="566" y1="333.78" x2="634" y2="333.78" stroke="#19bf65" stroke-opacity="0.6" stroke-width="3"/><line x1="573" y1="282.23" x2="627" y2="282.23" stroke="#19bf65" stroke-opacity="0.6" stroke-width="3"/><line x1="516" y1="270.68" x2="684" y2="270.68" stroke="#b2fa85" stroke-opacity="0.9" stroke-width="5"/><line x1="538" y1="322.68" x2="662" y2="322.68" stroke="#b2fa85" stroke-opacity="0.7" stroke-width="4"/><path d="M 798 540 L 840 193.29 L 880 193.29 L 922 540" fill="none" stroke="#7cef6b" stroke-opacity="0.85" stroke-width="5"/><line x1="805" y1="482.22" x2="915" y2="482.22" stroke="#19bf65" stroke-opacity="0.6" stroke-width="3"/><line x1="812" y1="424.43" x2="908" y2="424.43" stroke="#19bf65" stroke-opacity="0.6" stroke-width="3"/><line x1="819" y1="366.65" x2="901" y2="366.65" stroke="#19bf65" stroke-opacity="0.6" stroke-width="3"/><line x1="826" y1="308.86" x2="894" y2="308.86" stroke="#19bf65" stroke-opacity="0.6" stroke-width="3"/><line x1="833" y1="251.08" x2="887" y2="251.08" stroke="#19bf65" stroke-opacity="0.6" stroke-width="3"/><line x1="776" y1="233.29" x2="944" y2="233.29" stroke="#b2fa85" stroke-opacity="0.9" stroke-width="5"/><line x1="798" y1="285.29" x2="922" y2="285.29" stroke="#b2fa85" stroke-opacity="0.7" stroke-width="4"/><path d="M 424 278.13 Q 470 340.13 516 270.68" fill="none" stroke="#b2fa85" stroke-opacity="0.55" stroke-width="2.5"/><path d="M 424 330.13 Q 470 384.13 516 322.68" fill="none" stroke="#b2fa85" stroke-opacity="0.55" stroke-width="2.5"/><path d="M 684 270.68 Q 730 332.68 776 233.29" fill="none" stroke="#b2fa85" stroke-opacity="0.55" stroke-width="2.5"/><path d="M 684 322.68 Q 730 376.68 776 285.29" fill="none" stroke="#b2fa85" stroke-opacity="0.55" stroke-width="2.5"/></g>
<rect width="1200" height="675" fill="url(#vig)"/>
<rect width="1200" height="675" filter="url(#grain)" opacity="0.14" style="mix-blend-mode:overlay"/>
</svg>