<svg xmlns="http://www.w3.org/2000/svg" viewBox="0 0 1200 675" width="1200" height="675" role="img" aria-label="A ring of people connected by lines — original cover illustration">
<defs>
<linearGradient id="bg" x1="0" y1="0" x2="1" y2="1">
<stop offset="0" stop-color="#2c1920"/><stop offset="0.55" stop-color="#110d0b"/><stop offset="1" stop-color="#5e3c2d"/>
</linearGradient>
<radialGradient id="core" cx="0.4" cy="0.35" r="0.75">
<stop offset="0" stop-color="#fa79e5" stop-opacity="0.95"/><stop offset="0.5" stop-color="#d880b1" stop-opacity="0.55"/><stop offset="1" stop-color="#9d4034" stop-opacity="0"/>
</radialGradient>
<radialGradient id="halo" cx="0.49" cy="0.57" r="0.85">
<stop offset="0" stop-color="#fa79e5" stop-opacity="0.4"/><stop offset="1" stop-color="#fa79e5" stop-opacity="0"/>
</radialGradient>
<radialGradient id="vig" cx="0.5" cy="0.5" r="0.75">
<stop offset="0.55" stop-color="#000000" stop-opacity="0"/><stop offset="1" stop-color="#000000" stop-opacity="0.55"/>
</radialGradient>
<filter id="grain" x="0" y="0" width="100%" height="100%">
<feTurbulence type="fractalNoise" baseFrequency="0.85" numOctaves="3" stitchTiles="stitch" result="t"/>
<feColorMatrix type="saturate" values="0" in="t" result="g"/>
</filter>
<clipPath id="frame"><rect x="0" y="0" width="1200" height="675"/></clipPath>
</defs>
<rect width="1200" height="675" fill="url(#bg)"/>
<g clip-path="url(#frame)" opacity="0.42"><polygon points="-19.87,4.45 93.46,-7.04 103.81,74.09" fill="#9d4034" fill-opacity="0.18" stroke="#110d0b" stroke-opacity="0.4" stroke-width="0.6"/><polygon points="-19.87,4.45 103.81,74.09 -5.15,92.15" fill="#fa79e5" fill-opacity="0.39" stroke="#110d0b" stroke-opacity="0.4" stroke-width="0.6"/><polygon points="93.46,-7.04 188.71,-12.03 103.81,74.09" fill="#fa79e5" fill-opacity="0.42" stroke="#110d0b" stroke-opacity="0.4" stroke-width="0.6"/><polygon points="188.71,-12.03 202.53,64.87 103.81,74.09" fill="#9d4034" fill-opacity="0.22" stroke="#110d0b" stroke-opacity="0.4" stroke-width="0.6"/><polygon points="188.71,-12.03 290.36,-13.98 287.35,82.16" fill="#d880b1" fill-opacity="0.29" stroke="#110d0b" stroke-opacity="0.4" stroke-width="0.6"/><polygon points="188.71,-12.03 287.35,82.16 202.53,64.87" fill="#d880b1" fill-opacity="0.27" stroke="#110d0b" stroke-opacity="0.4" stroke-width="0.6"/><polygon points="290.36,-13.98 418.89,5.82 399.99,65.99" fill="#d880b1" fill-opacity="0.37" stroke="#110d0b" stroke-opacity="0.4" stroke-width="0.6"/><polygon points="290.36,-13.98 399.99,65.99 287.35,82.16" fill="#d880b1" fill-opacity="0.34" stroke="#110d0b" stroke-opacity="0.4" stroke-width="0.6"/><polygon points="418.89,5.82 499.66,-4.94 399.99,65.99" fill="#9d4034" fill-opacity="0.11" stroke="#110d0b" stroke-opacity="0.4" stroke-width="0.6"/><polygon points="499.66,-4.94 504.32,83.32 399.99,65.99" fill="#9d4034" fill-opacity="0.17" stroke="#110d0b" stroke-opacity="0.4" stroke-width="0.6"/><polygon points="499.66,-4.94 599.42,-5.62 504.32,83.32" fill="#d880b1" fill-opacity="0.3" stroke="#110d0b" stroke-opacity="0.4" stroke-width="0.6"/><polygon points="599.42,-5.62 590.31,76.17 504.32,83.32" fill="#d880b1" fill-opacity="0.28" stroke="#110d0b" stroke-opacity="0.4" stroke-width="0.6"/><polygon points="599.42,-5.62 708.8,7.76 590.31,76.17" fill="#d880b1" fill-opacity="0.32" stroke="#110d0b" stroke-opacity="0.4" stroke-width="0.6"/><polygon points="708.8,7.76 706.33,98.98 590.31,76.17" fill="#9d4034" fill-opacity="0.14" stroke="#110d0b" stroke-opacity="0.4" stroke-width="0.6"/><polygon points="708.8,7.76 798.47,-10.12 784.11,95.59" fill="#9d4034" fill-opacity="0.21" stroke="#110d0b" stroke-opacity="0.4" stroke-width="0.6"/><polygon points="708.8,7.76 784.11,95.59 706.33,98.98" fill="#d880b1" fill-opacity="0.27" stroke="#110d0b" stroke-opacity="0.4" stroke-width="0.6"/><polygon points="798.47,-10.12 923.04,-7.82 904.7,94.79" fill="#9d4034" fill-opacity="0.27" stroke="#110d0b" stroke-opacity="0.4" stroke-width="0.6"/><polygon points="798.47,-10.12 904.7,94.79 784.11,95.59" fill="#d880b1" fill-opacity="0.36" stroke="#110d0b" stroke-opacity="0.4" stroke-width="0.6"/><polygon points="923.04,-7.82 983.87,-13.89 985.35,73.97" fill="#9d4034" fill-opacity="0.13" stroke="#110d0b" stroke-opacity="0.4" stroke-width="0.6"/><polygon points="923.04,-7.82 985.35,73.97 904.7,94.79" fill="#9d4034" fill-opacity="0.16" stroke="#110d0b" stroke-opacity="0.4" stroke-width="0.6"/><polygon points="983.87,-13.89 1117.32,-16.15 1095.49,102.13" fill="#9d4034" fill-opacity="0.1" stroke="#110d0b" stroke-opacity="0.4" stroke-width="0.6"/><polygon points="983.87,-13.89 1095.49,102.13 985.35,73.97" fill="#9d4034" fill-opacity="0.08" stroke="#110d0b" stroke-opacity="0.4" stroke-width="0.6"/><polygon points="1117.32,-16.15 1220.69,-3.98 1214.89,64.78" fill="#9d4034" fill-opacity="0.11" stroke="#110d0b" stroke-opacity="0.4" stroke-width="0.6"/><polygon points="1117.32,-16.15 1214.89,64.78 1095.49,102.13" fill="#9d4034" fill-opacity="0.09" stroke="#110d0b" stroke-opacity="0.4" stroke-width="0.6"/><polygon points="-5.15,92.15 103.81,74.09 122.4,179.32" fill="#fa79e5" fill-opacity="0.39" stroke="#110d0b" stroke-opacity="0.4" stroke-width="0.6"/><polygon points="-5.15,92.15 122.4,179.32 3.37,170.91" fill="#9d4034" fill-opacity="0.2" stroke="#110d0b" stroke-opacity="0.4" stroke-width="0.6"/><polygon points="103.81,74.09 202.53,64.87 205.83,170.52" fill="#fa79e5" fill-opacity="0.39" stroke="#110d0b" stroke-opacity="0.4" stroke-width="0.6"/><polygon points="103.81,74.09 205.83,170.52 122.4,179.32" fill="#9d4034" fill-opacity="0.21" stroke="#110d0b" stroke-opacity="0.4" stroke-width="0.6"/><polygon points="202.53,64.87 287.35,82.16 314.87,151.89" fill="#d880b1" fill-opacity="0.34" stroke="#110d0b" stroke-opacity="0.4" stroke-width="0.6"/><polygon points="202.53,64.87 314.87,151.89 205.83,170.52" fill="#9d4034" fill-opacity="0.25" stroke="#110d0b" stroke-opacity="0.4" stroke-width="0.6"/><polygon points="287.35,82.16 399.99,65.99 314.87,151.89" fill="#d880b1" fill-opacity="0.27" stroke="#110d0b" stroke-opacity="0.4" stroke-width="0.6"/><polygon points="399.99,65.99 421.14,153.39 314.87,151.89" fill="#d880b1" fill-opacity="0.36" stroke="#110d0b" stroke-opacity="0.4" stroke-width="0.6"/><polygon points="399.99,65.99 504.32,83.32 421.14,153.39" fill="#d880b1" fill-opacity="0.28" stroke="#110d0b" stroke-opacity="0.4" stroke-width="0.6"/><polygon points="504.32,83.32 519.42,162.54 421.14,153.39" fill="#9d4034" fill-opacity="0.2" stroke="#110d0b" stroke-opacity="0.4" stroke-width="0.6"/><polygon points="504.32,83.32 590.31,76.17 519.42,162.54" fill="#9d4034" fill-opacity="0.15" stroke="#110d0b" stroke-opacity="0.4" stroke-width="0.6"/><polygon points="590.31,76.17 581.74,172.67 519.42,162.54" fill="#9d4034" fill-opacity="0.16" stroke="#110d0b" stroke-opacity="0.4" stroke-width="0.6"/><polygon points="590.31,76.17 706.33,98.98 581.74,172.67" fill="#9d4034" fill-opacity="0.25" stroke="#110d0b" stroke-opacity="0.4" stroke-width="0.6"/><polygon points="706.33,98.98 690.51,159.11 581.74,172.67" fill="#d880b1" fill-opacity="0.37" stroke="#110d0b" stroke-opacity="0.4" stroke-width="0.6"/><polygon points="706.33,98.98 784.11,95.59 788.3,152.12" fill="#d880b1" fill-opacity="0.34" stroke="#110d0b" stroke-opacity="0.4" stroke-width="0.6"/><polygon points="706.33,98.98 788.3,152.12 690.51,159.11" fill="#d880b1" fill-opacity="0.34" stroke="#110d0b" stroke-opacity="0.4" stroke-width="0.6"/><polygon points="784.11,95.59 904.7,94.79 890.08,171.05" fill="#d880b1" fill-opacity="0.32" stroke="#110d0b" stroke-opacity="0.4" stroke-width="0.6"/><polygon points="784.11,95.59 890.08,171.05 788.3,152.12" fill="#d880b1" fill-opacity="0.37" stroke="#110d0b" stroke-opacity="0.4" stroke-width="0.6"/><polygon points="904.7,94.79 985.35,73.97 1021,155.53" fill="#fa79e5" fill-opacity="0.37" stroke="#110d0b" stroke-opacity="0.4" stroke-width="0.6"/><polygon points="904.7,94.79 1021,155.53 890.08,171.05" fill="#9d4034" fill-opacity="0.22" stroke="#110d0b" stroke-opacity="0.4" stroke-width="0.6"/><polygon points="985.35,73.97 1095.49,102.13 1113.89,180.88" fill="#9d4034" fill-opacity="0.22" stroke="#110d0b" stroke-opacity="0.4" stroke-width="0.6"/><polygon points="985.35,73.97 1113.89,180.88 1021,155.53" fill="#9d4034" fill-opacity="0.24" stroke="#110d0b" stroke-opacity="0.4" stroke-width="0.6"/><polygon points="1095.49,102.13 1214.89,64.78 1206.9,179.19" fill="#d880b1" fill-opacity="0.37" stroke="#110d0b" stroke-opacity="0.4" stroke-width="0.6"/><polygon points="1095.49,102.13 1206.9,179.19 1113.89,180.88" fill="#d880b1" fill-opacity="0.34" stroke="#110d0b" stroke-opacity="0.4" stroke-width="0.6"/><polygon points="3.37,170.91 122.4,179.32 -14.42,233.7" fill="#9d4034" fill-opacity="0.17" stroke="#110d0b" stroke-opacity="0.4" stroke-width="0.6"/><polygon points="122.4,179.32 101.72,258.22 -14.42,233.7" fill="#fa79e5" fill-opacity="0.39" stroke="#110d0b" stroke-opacity="0.4" stroke-width="0.6"/><polygon points="122.4,179.32 205.83,170.52 101.72,258.22" fill="#9d4034" fill-opacity="0.13" stroke="#110d0b" stroke-opacity="0.4" stroke-width="0.6"/><polygon points="205.83,170.52 219.6,238.97 101.72,258.22" fill="#9d4034" fill-opacity="0.16" stroke="#110d0b" stroke-opacity="0.4" stroke-width="0.6"/><polygon points="205.83,170.52 314.87,151.89 287.67,257.88" fill="#9d4034" fill-opacity="0.12" stroke="#110d0b" stroke-opacity="0.4" stroke-width="0.6"/><polygon points="205.83,170.52 287.67,257.88 219.6,238.97" fill="#9d4034" fill-opacity="0.14" stroke="#110d0b" stroke-opacity="0.4" stroke-width="0.6"/><polygon points="314.87,151.89 421.14,153.39 386.71,237.44" fill="#d880b1" fill-opacity="0.37" stroke="#110d0b" stroke-opacity="0.4" stroke-width="0.6"/><polygon points="314.87,151.89 386.71,237.44 287.67,257.88" fill="#9d4034" fill-opacity="0.21" stroke="#110d0b" stroke-opacity="0.4" stroke-width="0.6"/><polygon points="421.14,153.39 519.42,162.54 491.48,238.41" fill="#9d4034" fill-opacity="0.1" stroke="#110d0b" stroke-opacity="0.4" stroke-width="0.6"/><polygon points="421.14,153.39 491.48,238.41 386.71,237.44" fill="#d880b1" fill-opacity="0.28" stroke="#110d0b" stroke-opacity="0.4" stroke-width="0.6"/><polygon points="519.42,162.54 581.74,172.67 583.93,238.22" fill="#fa79e5" fill-opacity="0.42" stroke="#110d0b" stroke-opacity="0.4" stroke-width="0.6"/><polygon points="519.42,162.54 583.93,238.22 491.48,238.41" fill="#9d4034" fill-opacity="0.18" stroke="#110d0b" stroke-opacity="0.4" stroke-width="0.6"/><polygon points="581.74,172.67 690.51,159.11 714,271.83" fill="#d880b1" fill-opacity="0.28" stroke="#110d0b" stroke-opacity="0.4" stroke-width="0.6"/><polygon points="581.74,172.67 714,271.83 583.93,238.22" fill="#9d4034" fill-opacity="0.09" stroke="#110d0b" stroke-opacity="0.4" stroke-width="0.6"/><polygon points="690.51,159.11 788.3,152.12 714,271.83" fill="#d880b1" fill-opacity="0.31" stroke="#110d0b" stroke-opacity="0.4" stroke-width="0.6"/><polygon points="788.3,152.12 822.09,257.85 714,271.83" fill="#d880b1" fill-opacity="0.27" stroke="#110d0b" stroke-opacity="0.4" stroke-width="0.6"/><polygon points="788.3,152.12 890.08,171.05 892.52,249.01" fill="#9d4034" fill-opacity="0.24" stroke="#110d0b" stroke-opacity="0.4" stroke-width="0.6"/><polygon points="788.3,152.12 892.52,249.01 822.09,257.85" fill="#9d4034" fill-opacity="0.18" stroke="#110d0b" stroke-opacity="0.4" stroke-width="0.6"/><polygon points="890.08,171.05 1021,155.53 1007.65,244.56" fill="#9d4034" fill-opacity="0.17" stroke="#110d0b" stroke-opacity="0.4" stroke-width="0.6"/><polygon points="890.08,171.05 1007.65,244.56 892.52,249.01" fill="#fa79e5" fill-opacity="0.41" stroke="#110d0b" stroke-opacity="0.4" stroke-width="0.6"/><polygon points="1021,155.53 1113.89,180.88 1114.2,249.62" fill="#d880b1" fill-opacity="0.34" stroke="#110d0b" stroke-opacity="0.4" stroke-width="0.6"/><polygon points="1021,155.53 1114.2,249.62 1007.65,244.56" fill="#9d4034" fill-opacity="0.21" stroke="#110d0b" stroke-opacity="0.4" stroke-width="0.6"/><polygon points="1113.89,180.88 1206.9,179.19 1197.77,259.82" fill="#d880b1" fill-opacity="0.29" stroke="#110d0b" stroke-opacity="0.4" stroke-width="0.6"/><polygon points="1113.89,180.88 1197.77,259.82 1114.2,249.62" fill="#d880b1" fill-opacity="0.33" stroke="#110d0b" stroke-opacity="0.4" stroke-width="0.6"/><polygon points="-14.42,233.7 101.72,258.22 -13.67,353.89" fill="#d880b1" fill-opacity="0.32" stroke="#110d0b" stroke-opacity="0.4" stroke-width="0.6"/><polygon points="101.72,258.22 81.42,322.44 -13.67,353.89" fill="#9d4034" fill-opacity="0.22" stroke="#110d0b" stroke-opacity="0.4" stroke-width="0.6"/><polygon points="101.72,258.22 219.6,238.97 211.86,351.1" fill="#9d4034" fill-opacity="0.24" stroke="#110d0b" stroke-opacity="0.4" stroke-width="0.6"/><polygon points="101.72,258.22 211.86,351.1 81.42,322.44" fill="#9d4034" fill-opacity="0.14" stroke="#110d0b" stroke-opacity="0.4" stroke-width="0.6"/><polygon points="219.6,238.97 287.67,257.88 211.86,351.1" fill="#fa79e5" fill-opacity="0.38" stroke="#110d0b" stroke-opacity="0.4" stroke-width="0.6"/><polygon points="287.67,257.88 277.37,334.31 211.86,351.1" fill="#9d4034" fill-opacity="0.25" stroke="#110d0b" stroke-opacity="0.4" stroke-width="0.6"/><polygon points="287.67,257.88 386.71,237.44 402.52,321.17" fill="#d880b1" fill-opacity="0.35" stroke="#110d0b" stroke-opacity="0.4" stroke-width="0.6"/><polygon points="287.67,257.88 402.52,321.17 277.37,334.31" fill="#9d4034" fill-opacity="0.17" stroke="#110d0b" stroke-opacity="0.4" stroke-width="0.6"/><polygon points="386.71,237.44 491.48,238.41 484.74,346.98" fill="#9d4034" fill-opacity="0.2" stroke="#110d0b" stroke-opacity="0.4" stroke-width="0.6"/><polygon points="386.71,237.44 484.74,346.98 402.52,321.17" fill="#d880b1" fill-opacity="0.33" stroke="#110d0b" stroke-opacity="0.4" stroke-width="0.6"/><polygon points="491.48,238.41 583.93,238.22 484.74,346.98" fill="#9d4034" fill-opacity="0.18" stroke="#110d0b" stroke-opacity="0.4" stroke-width="0.6"/><polygon points="583.93,238.22 592.27,349.3 484.74,346.98" fill="#d880b1" fill-opacity="0.29" stroke="#110d0b" stroke-opacity="0.4" stroke-width="0.6"/><polygon points="583.93,238.22 714,271.83 592.27,349.3" fill="#9d4034" fill-opacity="0.1" stroke="#110d0b" stroke-opacity="0.4" stroke-width="0.6"/><polygon points="714,271.83 715.06,327.92 592.27,349.3" fill="#9d4034" fill-opacity="0.25" stroke="#110d0b" stroke-opacity="0.4" stroke-width="0.6"/><polygon points="714,271.83 822.09,257.85 715.06,327.92" fill="#9d4034" fill-opacity="0.21" stroke="#110d0b" stroke-opacity="0.4" stroke-width="0.6"/><polygon points="822.09,257.85 780.35,336.38 715.06,327.92" fill="#9d4034" fill-opacity="0.14" stroke="#110d0b" stroke-opacity="0.4" stroke-width="0.6"/><polygon points="822.09,257.85 892.52,249.01 780.35,336.38" fill="#fa79e5" fill-opacity="0.38" stroke="#110d0b" stroke-opacity="0.4" stroke-width="0.6"/><polygon points="892.52,249.01 922.3,345.39 780.35,336.38" fill="#9d4034" fill-opacity="0.15" stroke="#110d0b" stroke-opacity="0.4" stroke-width="0.6"/><polygon points="892.52,249.01 1007.65,244.56 1018.16,336.06" fill="#d880b1" fill-opacity="0.31" stroke="#110d0b" stroke-opacity="0.4" stroke-width="0.6"/><polygon points="892.52,249.01 1018.16,336.06 922.3,345.39" fill="#9d4034" fill-opacity="0.22" stroke="#110d0b" stroke-opacity="0.4" stroke-width="0.6"/><polygon points="1007.65,244.56 1114.2,249.62 1117.08,333.16" fill="#9d4034" fill-opacity="0.14" stroke="#110d0b" stroke-opacity="0.4" stroke-width="0.6"/><polygon points="1007.65,244.56 1117.08,333.16 1018.16,336.06" fill="#9d4034" fill-opacity="0.09" stroke="#110d0b" stroke-opacity="0.4" stroke-width="0.6"/><polygon points="1114.2,249.62 1197.77,259.82 1117.08,333.16" fill="#d880b1" fill-opacity="0.37" stroke="#110d0b" stroke-opacity="0.4" stroke-width="0.6"/><polygon points="1197.77,259.82 1212.44,346.7 1117.08,333.16" fill="#fa79e5" fill-opacity="0.39" stroke="#110d0b" stroke-opacity="0.4" stroke-width="0.6"/><polygon points="-13.67,353.89 81.42,322.44 -18.17,411.49" fill="#9d4034" fill-opacity="0.08" stroke="#110d0b" stroke-opacity="0.4" stroke-width="0.6"/><polygon points="81.42,322.44 92.65,440.34 -18.17,411.49" fill="#9d4034" fill-opacity="0.12" stroke="#110d0b" stroke-opacity="0.4" stroke-width="0.6"/><polygon points="81.42,322.44 211.86,351.1 208.91,420.46" fill="#9d4034" fill-opacity="0.16" stroke="#110d0b" stroke-opacity="0.4" stroke-width="0.6"/><polygon points="81.42,322.44 208.91,420.46 92.65,440.34" fill="#9d4034" fill-opacity="0.26" stroke="#110d0b" stroke-opacity="0.4" stroke-width="0.6"/><polygon points="211.86,351.1 277.37,334.31 282.3,430.7" fill="#d880b1" fill-opacity="0.35" stroke="#110d0b" stroke-opacity="0.4" stroke-width="0.6"/><polygon points="211.86,351.1 282.3,430.7 208.91,420.46" fill="#d880b1" fill-opacity="0.31" stroke="#110d0b" stroke-opacity="0.4" stroke-width="0.6"/><polygon points="277.37,334.31 402.52,321.17 282.3,430.7" fill="#fa79e5" fill-opacity="0.38" stroke="#110d0b" stroke-opacity="0.4" stroke-width="0.6"/><polygon points="402.52,321.17 391.06,414.29 282.3,430.7" fill="#d880b1" fill-opacity="0.34" stroke="#110d0b" stroke-opacity="0.4" stroke-width="0.6"/><polygon points="402.52,321.17 484.74,346.98 391.06,414.29" fill="#9d4034" fill-opacity="0.23" stroke="#110d0b" stroke-opacity="0.4" stroke-width="0.6"/><polygon points="484.74,346.98 487.7,408.23 391.06,414.29" fill="#9d4034" fill-opacity="0.23" stroke="#110d0b" stroke-opacity="0.4" stroke-width="0.6"/><polygon points="484.74,346.98 592.27,349.3 487.7,408.23" fill="#d880b1" fill-opacity="0.33" stroke="#110d0b" stroke-opacity="0.4" stroke-width="0.6"/><polygon points="592.27,349.3 587.65,414.36 487.7,408.23" fill="#d880b1" fill-opacity="0.35" stroke="#110d0b" stroke-opacity="0.4" stroke-width="0.6"/><polygon points="592.27,349.3 715.06,327.92 587.65,414.36" fill="#9d4034" fill-opacity="0.13" stroke="#110d0b" stroke-opacity="0.4" stroke-width="0.6"/><polygon points="715.06,327.92 680.71,436.98 587.65,414.36" fill="#d880b1" fill-opacity="0.37" stroke="#110d0b" stroke-opacity="0.4" stroke-width="0.6"/><polygon points="715.06,327.92 780.35,336.38 816.65,417.42" fill="#fa79e5" fill-opacity="0.38" stroke="#110d0b" stroke-opacity="0.4" stroke-width="0.6"/><polygon points="715.06,327.92 816.65,417.42 680.71,436.98" fill="#fa79e5" fill-opacity="0.39" stroke="#110d0b" stroke-opacity="0.4" stroke-width="0.6"/><polygon points="780.35,336.38 922.3,345.39 816.65,417.42" fill="#d880b1" fill-opacity="0.34" stroke="#110d0b" stroke-opacity="0.4" stroke-width="0.6"/><polygon points="922.3,345.39 886.32,429.04 816.65,417.42" fill="#d880b1" fill-opacity="0.27" stroke="#110d0b" stroke-opacity="0.4" stroke-width="0.6"/><polygon points="922.3,345.39 1018.16,336.06 886.32,429.04" fill="#9d4034" fill-opacity="0.09" stroke="#110d0b" stroke-opacity="0.4" stroke-width="0.6"/><polygon points="1018.16,336.06 978.44,423.53 886.32,429.04" fill="#9d4034" fill-opacity="0.14" stroke="#110d0b" stroke-opacity="0.4" stroke-width="0.6"/><polygon points="1018.16,336.06 1117.08,333.16 1085.45,427.46" fill="#9d4034" fill-opacity="0.19" stroke="#110d0b" stroke-opacity="0.4" stroke-width="0.6"/><polygon points="1018.16,336.06 1085.45,427.46 978.44,423.53" fill="#d880b1" fill-opacity="0.29" stroke="#110d0b" stroke-opacity="0.4" stroke-width="0.6"/><polygon points="1117.08,333.16 1212.44,346.7 1191.08,432.85" fill="#9d4034" fill-opacity="0.2" stroke="#110d0b" stroke-opacity="0.4" stroke-width="0.6"/><polygon points="1117.08,333.16 1191.08,432.85 1085.45,427.46" fill="#d880b1" fill-opacity="0.28" stroke="#110d0b" stroke-opacity="0.4" stroke-width="0.6"/><polygon points="-18.17,411.49 92.65,440.34 16.38,513.52" fill="#9d4034" fill-opacity="0.15" stroke="#110d0b" stroke-opacity="0.4" stroke-width="0.6"/><polygon points="92.65,440.34 88.72,491.56 16.38,513.52" fill="#9d4034" fill-opacity="0.15" stroke="#110d0b" stroke-opacity="0.4" stroke-width="0.6"/><polygon points="92.65,440.34 208.91,420.46 181.06,499.4" fill="#d880b1" fill-opacity="0.37" stroke="#110d0b" stroke-opacity="0.4" stroke-width="0.6"/><polygon points="92.65,440.34 181.06,499.4 88.72,491.56" fill="#9d4034" fill-opacity="0.26" stroke="#110d0b" stroke-opacity="0.4" stroke-width="0.6"/><polygon points="208.91,420.46 282.3,430.7 279,519" fill="#9d4034" fill-opacity="0.1" stroke="#110d0b" stroke-opacity="0.4" stroke-width="0.6"/><polygon points="208.91,420.46 279,519 181.06,499.4" fill="#9d4034" fill-opacity="0.18" stroke="#110d0b" stroke-opacity="0.4" stroke-width="0.6"/><polygon points="282.3,430.7 391.06,414.29 395.45,506.96" fill="#fa79e5" fill-opacity="0.4" stroke="#110d0b" stroke-opacity="0.4" stroke-width="0.6"/><polygon points="282.3,430.7 395.45,506.96 279,519" fill="#d880b1" fill-opacity="0.3" stroke="#110d0b" stroke-opacity="0.4" stroke-width="0.6"/><polygon points="391.06,414.29 487.7,408.23 515.75,496.13" fill="#d880b1" fill-opacity="0.28" stroke="#110d0b" stroke-opacity="0.4" stroke-width="0.6"/><polygon points="391.06,414.29 515.75,496.13 395.45,506.96" fill="#fa79e5" fill-opacity="0.4" stroke="#110d0b" stroke-opacity="0.4" stroke-width="0.6"/><polygon points="487.7,408.23 587.65,414.36 515.75,496.13" fill="#9d4034" fill-opacity="0.24" stroke="#110d0b" stroke-opacity="0.4" stroke-width="0.6"/><polygon points="587.65,414.36 621.21,504.01 515.75,496.13" fill="#d880b1" fill-opacity="0.27" stroke="#110d0b" stroke-opacity="0.4" stroke-width="0.6"/><polygon points="587.65,414.36 680.71,436.98 621.21,504.01" fill="#fa79e5" fill-opacity="0.38" stroke="#110d0b" stroke-opacity="0.4" stroke-width="0.6"/><polygon points="680.71,436.98 715.29,507.01 621.21,504.01" fill="#9d4034" fill-opacity="0.16" stroke="#110d0b" stroke-opacity="0.4" stroke-width="0.6"/><polygon points="680.71,436.98 816.65,417.42 715.29,507.01" fill="#9d4034" fill-opacity="0.08" stroke="#110d0b" stroke-opacity="0.4" stroke-width="0.6"/><polygon points="816.65,417.42 800.54,515.18 715.29,507.01" fill="#fa79e5" fill-opacity="0.41" stroke="#110d0b" stroke-opacity="0.4" stroke-width="0.6"/><polygon points="816.65,417.42 886.32,429.04 800.54,515.18" fill="#9d4034" fill-opacity="0.2" stroke="#110d0b" stroke-opacity="0.4" stroke-width="0.6"/><polygon points="886.32,429.04 880.42,502.2 800.54,515.18" fill="#9d4034" fill-opacity="0.18" stroke="#110d0b" stroke-opacity="0.4" stroke-width="0.6"/><polygon points="886.32,429.04 978.44,423.53 982.03,489.15" fill="#d880b1" fill-opacity="0.29" stroke="#110d0b" stroke-opacity="0.4" stroke-width="0.6"/><polygon points="886.32,429.04 982.03,489.15 880.42,502.2" fill="#9d4034" fill-opacity="0.16" stroke="#110d0b" stroke-opacity="0.4" stroke-width="0.6"/><polygon points="978.44,423.53 1085.45,427.46 1087.84,500.13" fill="#9d4034" fill-opacity="0.24" stroke="#110d0b" stroke-opacity="0.4" stroke-width="0.6"/><polygon points="978.44,423.53 1087.84,500.13 982.03,489.15" fill="#9d4034" fill-opacity="0.17" stroke="#110d0b" stroke-opacity="0.4" stroke-width="0.6"/><polygon points="1085.45,427.46 1191.08,432.85 1190.11,514.89" fill="#9d4034" fill-opacity="0.17" stroke="#110d0b" stroke-opacity="0.4" stroke-width="0.6"/><polygon points="1085.45,427.46 1190.11,514.89 1087.84,500.13" fill="#9d4034" fill-opacity="0.13" stroke="#110d0b" stroke-opacity="0.4" stroke-width="0.6"/><polygon points="16.38,513.52 88.72,491.56 13.09,574.22" fill="#9d4034" fill-opacity="0.21" stroke="#110d0b" stroke-opacity="0.4" stroke-width="0.6"/><polygon points="88.72,491.56 112.72,602.35 13.09,574.22" fill="#9d4034" fill-opacity="0.26" stroke="#110d0b" stroke-opacity="0.4" stroke-width="0.6"/><polygon points="88.72,491.56 181.06,499.4 213.11,602.64" fill="#d880b1" fill-opacity="0.29" stroke="#110d0b" stroke-opacity="0.4" stroke-width="0.6"/><polygon points="88.72,491.56 213.11,602.64 112.72,602.35" fill="#d880b1" fill-opacity="0.34" stroke="#110d0b" stroke-opacity="0.4" stroke-width="0.6"/><polygon points="181.06,499.4 279,519 213.11,602.64" fill="#fa79e5" fill-opacity="0.4" stroke="#110d0b" stroke-opacity="0.4" stroke-width="0.6"/><polygon points="279,519 318.88,582.5 213.11,602.64" fill="#9d4034" fill-opacity="0.23" stroke="#110d0b" stroke-opacity="0.4" stroke-width="0.6"/><polygon points="279,519 395.45,506.96 383.15,584.85" fill="#9d4034" fill-opacity="0.18" stroke="#110d0b" stroke-opacity="0.4" stroke-width="0.6"/><polygon points="279,519 383.15,584.85 318.88,582.5" fill="#9d4034" fill-opacity="0.22" stroke="#110d0b" stroke-opacity="0.4" stroke-width="0.6"/><polygon points="395.45,506.96 515.75,496.13 511.63,609.42" fill="#fa79e5" fill-opacity="0.37" stroke="#110d0b" stroke-opacity="0.4" stroke-width="0.6"/><polygon points="395.45,506.96 511.63,609.42 383.15,584.85" fill="#d880b1" fill-opacity="0.29" stroke="#110d0b" stroke-opacity="0.4" stroke-width="0.6"/><polygon points="515.75,496.13 621.21,504.01 511.63,609.42" fill="#9d4034" fill-opacity="0.25" stroke="#110d0b" stroke-opacity="0.4" stroke-width="0.6"/><polygon points="621.21,504.01 617.63,602.48 511.63,609.42" fill="#d880b1" fill-opacity="0.37" stroke="#110d0b" stroke-opacity="0.4" stroke-width="0.6"/><polygon points="621.21,504.01 715.29,507.01 617.63,602.48" fill="#9d4034" fill-opacity="0.26" stroke="#110d0b" stroke-opacity="0.4" stroke-width="0.6"/><polygon points="715.29,507.01 708.39,594.04 617.63,602.48" fill="#9d4034" fill-opacity="0.12" stroke="#110d0b" stroke-opacity="0.4" stroke-width="0.6"/><polygon points="715.29,507.01 800.54,515.18 782.64,581.59" fill="#9d4034" fill-opacity="0.22" stroke="#110d0b" stroke-opacity="0.4" stroke-width="0.6"/><polygon points="715.29,507.01 782.64,581.59 708.39,594.04" fill="#d880b1" fill-opacity="0.29" stroke="#110d0b" stroke-opacity="0.4" stroke-width="0.6"/><polygon points="800.54,515.18 880.42,502.2 895.2,583.49" fill="#9d4034" fill-opacity="0.24" stroke="#110d0b" stroke-opacity="0.4" stroke-width="0.6"/><polygon points="800.54,515.18 895.2,583.49 782.64,581.59" fill="#9d4034" fill-opacity="0.21" stroke="#110d0b" stroke-opacity="0.4" stroke-width="0.6"/><polygon points="880.42,502.2 982.03,489.15 1020.29,593.87" fill="#d880b1" fill-opacity="0.27" stroke="#110d0b" stroke-opacity="0.4" stroke-width="0.6"/><polygon points="880.42,502.2 1020.29,593.87 895.2,583.49" fill="#9d4034" fill-opacity="0.15" stroke="#110d0b" stroke-opacity="0.4" stroke-width="0.6"/><polygon points="982.03,489.15 1087.84,500.13 1020.29,593.87" fill="#9d4034" fill-opacity="0.2" stroke="#110d0b" stroke-opacity="0.4" stroke-width="0.6"/><polygon points="1087.84,500.13 1095.86,589.5 1020.29,593.87" fill="#9d4034" fill-opacity="0.18" stroke="#110d0b" stroke-opacity="0.4" stroke-width="0.6"/><polygon points="1087.84,500.13 1190.11,514.89 1095.86,589.5" fill="#d880b1" fill-opacity="0.29" stroke="#110d0b" stroke-opacity="0.4" stroke-width="0.6"/><polygon points="1190.11,514.89 1208.86,606.5 1095.86,589.5" fill="#fa79e5" fill-opacity="0.39" stroke="#110d0b" stroke-opacity="0.4" stroke-width="0.6"/><polygon points="13.09,574.22 112.72,602.35 84.74,665.27" fill="#9d4034" fill-opacity="0.24" stroke="#110d0b" stroke-opacity="0.4" stroke-width="0.6"/><polygon points="13.09,574.22 84.74,665.27 -12.32,672.75" fill="#9d4034" fill-opacity="0.13" stroke="#110d0b" stroke-opacity="0.4" stroke-width="0.6"/><polygon points="112.72,602.35 213.11,602.64 218.35,676.25" fill="#d880b1" fill-opacity="0.3" stroke="#110d0b" stroke-opacity="0.4" stroke-width="0.6"/><polygon points="112.72,602.35 218.35,676.25 84.74,665.27" fill="#9d4034" fill-opacity="0.22" stroke="#110d0b" stroke-opacity="0.4" stroke-width="0.6"/><polygon points="213.11,602.64 318.88,582.5 282.04,682.41" fill="#9d4034" fill-opacity="0.16" stroke="#110d0b" stroke-opacity="0.4" stroke-width="0.6"/><polygon points="213.11,602.64 282.04,682.41 218.35,676.25" fill="#d880b1" fill-opacity="0.3" stroke="#110d0b" stroke-opacity="0.4" stroke-width="0.6"/><polygon points="318.88,582.5 383.15,584.85 412.88,666.86" fill="#9d4034" fill-opacity="0.18" stroke="#110d0b" stroke-opacity="0.4" stroke-width="0.6"/><polygon points="318.88,582.5 412.88,666.86 282.04,682.41" fill="#9d4034" fill-opacity="0.12" stroke="#110d0b" stroke-opacity="0.4" stroke-width="0.6"/><polygon points="383.15,584.85 511.63,609.42 509.2,673.07" fill="#d880b1" fill-opacity="0.31" stroke="#110d0b" stroke-opacity="0.4" stroke-width="0.6"/><polygon points="383.15,584.85 509.2,673.07 412.88,666.86" fill="#9d4034" fill-opacity="0.11" stroke="#110d0b" stroke-opacity="0.4" stroke-width="0.6"/><polygon points="511.63,609.42 617.63,602.48 509.2,673.07" fill="#d880b1" fill-opacity="0.29" stroke="#110d0b" stroke-opacity="0.4" stroke-width="0.6"/><polygon points="617.63,602.48 619.45,662.83 509.2,673.07" fill="#d880b1" fill-opacity="0.32" stroke="#110d0b" stroke-opacity="0.4" stroke-width="0.6"/><polygon points="617.63,602.48 708.39,594.04 693.73,659.1" fill="#fa79e5" fill-opacity="0.39" stroke="#110d0b" stroke-opacity="0.4" stroke-width="0.6"/><polygon points="617.63,602.48 693.73,659.1 619.45,662.83" fill="#fa79e5" fill-opacity="0.37" stroke="#110d0b" stroke-opacity="0.4" stroke-width="0.6"/><polygon points="708.39,594.04 782.64,581.59 783.92,682.23" fill="#9d4034" fill-opacity="0.16" stroke="#110d0b" stroke-opacity="0.4" stroke-width="0.6"/><polygon points="708.39,594.04 783.92,682.23 693.73,659.1" fill="#d880b1" fill-opacity="0.34" stroke="#110d0b" stroke-opacity="0.4" stroke-width="0.6"/><polygon points="782.64,581.59 895.2,583.49 918.92,682.74" fill="#9d4034" fill-opacity="0.26" stroke="#110d0b" stroke-opacity="0.4" stroke-width="0.6"/><polygon points="782.64,581.59 918.92,682.74 783.92,682.23" fill="#9d4034" fill-opacity="0.24" stroke="#110d0b" stroke-opacity="0.4" stroke-width="0.6"/><polygon points="895.2,583.49 1020.29,593.87 918.92,682.74" fill="#d880b1" fill-opacity="0.34" stroke="#110d0b" stroke-opacity="0.4" stroke-width="0.6"/><polygon points="1020.29,593.87 998.4,678.96 918.92,682.74" fill="#9d4034" fill-opacity="0.22" stroke="#110d0b" stroke-opacity="0.4" stroke-width="0.6"/><polygon points="1020.29,593.87 1095.86,589.5 1113.83,693.27" fill="#9d4034" fill-opacity="0.09" stroke="#110d0b" stroke-opacity="0.4" stroke-width="0.6"/><polygon points="1020.29,593.87 1113.83,693.27 998.4,678.96" fill="#d880b1" fill-opacity="0.29" stroke="#110d0b" stroke-opacity="0.4" stroke-width="0.6"/><polygon points="1095.86,589.5 1208.86,606.5 1113.83,693.27" fill="#9d4034" fill-opacity="0.19" stroke="#110d0b" stroke-opacity="0.4" stroke-width="0.6"/><polygon points="1208.86,606.5 1206.6,664.22 1113.83,693.27" fill="#9d4034" fill-opacity="0.25" stroke="#110d0b" stroke-opacity="0.4" stroke-width="0.6"/></g>
<rect width="1200" height="675" fill="url(#halo)" style="mix-blend-mode:screen"/>
<g clip-path="url(#frame)"><line x1="0" y1="0" x2="0" y2="675" stroke="#ffffff" stroke-opacity="0.035" stroke-width="1"/><line x1="100" y1="0" x2="100" y2="675" stroke="#ffffff" stroke-opacity="0.035" stroke-width="1"/><line x1="200" y1="0" x2="200" y2="675" stroke="#ffffff" stroke-opacity="0.035" stroke-width="1"/><line x1="300" y1="0" x2="300" y2="675" stroke="#ffffff" stroke-opacity="0.035" stroke-width="1"/><line x1="400" y1="0" x2="400" y2="675" stroke="#ffffff" stroke-opacity="0.035" stroke-width="1"/><line x1="500" y1="0" x2="500" y2="675" stroke="#ffffff" stroke-opacity="0.035" stroke-width="1"/><line x1="600" y1="0" x2="600" y2="675" stroke="#ffffff" stroke-opacity="0.035" stroke-width="1"/><line x1="700" y1="0" x2="700" y2="675" stroke="#ffffff" stroke-opacity="0.035" stroke-width="1"/><line x1="800" y1="0" x2="800" y2="675" stroke="#ffffff" stroke-opacity="0.035" stroke-width="1"/><line x1="900" y1="0" x2="900" y2="675" stroke="#ffffff" stroke-opacity="0.035" stroke-width="1"/><line x1="1000" y1="0" x2="1000" y2="675" stroke="#ffffff" stroke-opacity="0.035" stroke-width="1"/><line x1="1100" y1="0" x2="1100" y2="675" stroke="#ffffff" stroke-opacity="0.035" stroke-width="1"/><line x1="1200" y1="0" x2="1200" y2="675" stroke="#ffffff" stroke-opacity="0.035" stroke-width="1"/><line x1="0" y1="0" x2="1200" y2="0" stroke="#ffffff" stroke-opacity="0.035" stroke-width="1"/><line x1="0" y1="100" x2="1200" y2="100" stroke="#ffffff" stroke-opacity="0.035" stroke-width="1"/><line x1="0" y1="200" x2="1200" y2="200" stroke="#ffffff" stroke-opacity="0.035" stroke-width="1"/><line x1="0" y1="300" x2="1200" y2="300" stroke="#ffffff" stroke-opacity="0.035" stroke-width="1"/><line x1="0" y1="400" x2="1200" y2="400" stroke="#ffffff" stroke-opacity="0.035" stroke-width="1"/><line x1="0" y1="500" x2="1200" y2="500" stroke="#ffffff" stroke-opacity="0.035" stroke-width="1"/><line x1="0" y1="600" x2="1200" y2="600" stroke="#ffffff" stroke-opacity="0.035" stroke-width="1"/></g>
<rect width="1200" height="675" fill="#110d0b" opacity="0.3"/>
<g clip-path="url(#frame)"><line x1="600" y1="167.8" x2="764.18" y2="232.64" stroke="#9d4034" stroke-opacity="0.35" stroke-width="1.5"/><line x1="600" y1="167.8" x2="804.73" y2="378.32" stroke="#9d4034" stroke-opacity="0.35" stroke-width="1.5"/><line x1="600" y1="167.8" x2="691.12" y2="495.15" stroke="#9d4034" stroke-opacity="0.35" stroke-width="1.5"/><line x1="600" y1="167.8" x2="508.88" y2="495.15" stroke="#9d4034" stroke-opacity="0.35" stroke-width="1.5"/><line x1="600" y1="167.8" x2="395.27" y2="378.32" stroke="#9d4034" stroke-opacity="0.35" stroke-width="1.5"/><line x1="764.18" y1="232.64" x2="804.73" y2="378.32" stroke="#9d4034" stroke-opacity="0.35" stroke-width="1.5"/><line x1="764.18" y1="232.64" x2="691.12" y2="495.15" stroke="#9d4034" stroke-opacity="0.35" stroke-width="1.5"/><line x1="764.18" y1="232.64" x2="508.88" y2="495.15" stroke="#9d4034" stroke-opacity="0.35" stroke-width="1.5"/><line x1="804.73" y1="378.32" x2="508.88" y2="495.15" stroke="#9d4034" stroke-opacity="0.35" stroke-width="1.5"/><line x1="691.12" y1="495.15" x2="395.27" y2="378.32" stroke="#9d4034" stroke-opacity="0.35" stroke-width="1.5"/><line x1="395.27" y1="378.32" x2="435.82" y2="232.64" stroke="#9d4034" stroke-opacity="0.35" stroke-width="1.5"/><circle cx="600" cy="147.8" r="20" fill="#fa79e5" fill-opacity="0.9"/><path d="M 570 201.8 Q 600 163.8 630 201.8 Z" fill="#d880b1" fill-opacity="0.85"/><circle cx="764.18" cy="212.64" r="20" fill="#fa79e5" fill-opacity="0.9"/><path d="M 734.18 266.64 Q 764.18 228.64 794.18 266.64 Z" fill="#d880b1" fill-opacity="0.85"/><circle cx="804.73" cy="358.32" r="20" fill="#fa79e5" fill-opacity="0.9"/><path d="M 774.73 412.32 Q 804.73 374.32 834.73 412.32 Z" fill="#d880b1" fill-opacity="0.85"/><circle cx="691.12" cy="475.15" r="20" fill="#fa79e5" fill-opacity="0.9"/><path d="M 661.12 529.15 Q 691.12 491.15 721.12 529.15 Z" fill="#d880b1" fill-opacity="0.85"/><circle cx="508.88" cy="475.15" r="20" fill="#fa79e5" fill-opacity="0.9"/><path d="M 478.88 529.15 Q 508.88 491.15 538.88 529.15 Z" fill="#d880b1" fill-opacity="0.85"/><circle cx="395.27" cy="358.32" r="20" fill="#fa79e5" fill-opacity="0.9"/><path d="M 365.27 412.32 Q 395.27 374.32 425.27 412.32 Z" fill="#d880b1" fill-opacity="0.85"/><circle cx="435.82" cy="212.64" r="20" fill="#fa79e5" fill-opacity="0.9"/><path d="M 405.82 266.64 Q 435.82 228.64 465.82 266.64 Z" fill="#d880b1" fill-opacity="0.85"/><circle cx="600" cy="340" r="34" fill="#fa79e5" fill-opacity="0.28"/></g>
<rect width="1200" height="675" fill="url(#vig)"/>
<rect width="1200" height="675" filter="url(#grain)" opacity="0.14" style="mix-blend-mode:overlay"/>
</svg>