<svg xmlns="http://www.w3.org/2000/svg" viewBox="0 0 1200 675" width="1200" height="675" role="img" aria-label="A laboratory flask beside a molecular diagram — original cover illustration">
<defs>
<linearGradient id="bg" x1="0" y1="0" x2="1" y2="1">
<stop offset="0" stop-color="#412649"/><stop offset="0.55" stop-color="#18131f"/><stop offset="1" stop-color="#40285d"/>
</linearGradient>
<radialGradient id="core" cx="0.4" cy="0.35" r="0.75">
<stop offset="0" stop-color="#f469f9" stop-opacity="0.95"/><stop offset="0.5" stop-color="#be51d3" stop-opacity="0.55"/><stop offset="1" stop-color="#883cca" stop-opacity="0"/>
</radialGradient>
<radialGradient id="halo" cx="0.21" cy="0.19" r="0.85">
<stop offset="0" stop-color="#f469f9" stop-opacity="0.4"/><stop offset="1" stop-color="#f469f9" stop-opacity="0"/>
</radialGradient>
<radialGradient id="vig" cx="0.5" cy="0.5" r="0.75">
<stop offset="0.55" stop-color="#000000" stop-opacity="0"/><stop offset="1" stop-color="#000000" stop-opacity="0.55"/>
</radialGradient>
<filter id="grain" x="0" y="0" width="100%" height="100%">
<feTurbulence type="fractalNoise" baseFrequency="0.85" numOctaves="3" stitchTiles="stitch" result="t"/>
<feColorMatrix type="saturate" values="0" in="t" result="g"/>
</filter>
<clipPath id="frame"><rect x="0" y="0" width="1200" height="675"/></clipPath>
</defs>
<rect width="1200" height="675" fill="url(#bg)"/>
<g clip-path="url(#frame)" opacity="0.42"><path d="M -20 169.52 C 460.84 169.52, 460.84 64.47, 600 64.47 S 944.33 517.39, 1220 517.39" fill="none" stroke="#f469f9" stroke-opacity="0.55" stroke-width="4.96" stroke-linecap="round"/><path d="M -20 169.52 C 460.84 169.52, 460.84 64.47, 600 64.47 S 944.33 517.39, 1220 517.39" fill="none" stroke="#f469f9" stroke-opacity="0.15" stroke-width="19.85" stroke-linecap="round"/><path d="M -20 665.87 C 494.08 665.87, 494.08 136.25, 600 136.25 S 833.35 396.52, 1220 396.52" fill="none" stroke="#be51d3" stroke-opacity="0.43" stroke-width="3.36" stroke-linecap="round"/><path d="M -20 665.87 C 494.08 665.87, 494.08 136.25, 600 136.25 S 833.35 396.52, 1220 396.52" fill="none" stroke="#be51d3" stroke-opacity="0.15" stroke-width="13.45" stroke-linecap="round"/><path d="M -20 495.2 C 453.8 495.2, 453.8 97.22, 600 97.22 S 698.96 109.98, 1220 109.98" fill="none" stroke="#be51d3" stroke-opacity="0.48" stroke-width="2.95" stroke-linecap="round"/><path d="M -20 495.2 C 453.8 495.2, 453.8 97.22, 600 97.22 S 698.96 109.98, 1220 109.98" fill="none" stroke="#be51d3" stroke-opacity="0.15" stroke-width="11.81" stroke-linecap="round"/></g>
<rect width="1200" height="675" fill="url(#halo)" style="mix-blend-mode:screen"/>
<g clip-path="url(#frame)"><line x1="0" y1="0" x2="0" y2="675" stroke="#ffffff" stroke-opacity="0.035" stroke-width="1"/><line x1="100" y1="0" x2="100" y2="675" stroke="#ffffff" stroke-opacity="0.035" stroke-width="1"/><line x1="200" y1="0" x2="200" y2="675" stroke="#ffffff" stroke-opacity="0.035" stroke-width="1"/><line x1="300" y1="0" x2="300" y2="675" stroke="#ffffff" stroke-opacity="0.035" stroke-width="1"/><line x1="400" y1="0" x2="400" y2="675" stroke="#ffffff" stroke-opacity="0.035" stroke-width="1"/><line x1="500" y1="0" x2="500" y2="675" stroke="#ffffff" stroke-opacity="0.035" stroke-width="1"/><line x1="600" y1="0" x2="600" y2="675" stroke="#ffffff" stroke-opacity="0.035" stroke-width="1"/><line x1="700" y1="0" x2="700" y2="675" stroke="#ffffff" stroke-opacity="0.035" stroke-width="1"/><line x1="800" y1="0" x2="800" y2="675" stroke="#ffffff" stroke-opacity="0.035" stroke-width="1"/><line x1="900" y1="0" x2="900" y2="675" stroke="#ffffff" stroke-opacity="0.035" stroke-width="1"/><line x1="1000" y1="0" x2="1000" y2="675" stroke="#ffffff" stroke-opacity="0.035" stroke-width="1"/><line x1="1100" y1="0" x2="1100" y2="675" stroke="#ffffff" stroke-opacity="0.035" stroke-width="1"/><line x1="1200" y1="0" x2="1200" y2="675" stroke="#ffffff" stroke-opacity="0.035" stroke-width="1"/><line x1="0" y1="0" x2="1200" y2="0" stroke="#ffffff" stroke-opacity="0.035" stroke-width="1"/><line x1="0" y1="100" x2="1200" y2="100" stroke="#ffffff" stroke-opacity="0.035" stroke-width="1"/><line x1="0" y1="200" x2="1200" y2="200" stroke="#ffffff" stroke-opacity="0.035" stroke-width="1"/><line x1="0" y1="300" x2="1200" y2="300" stroke="#ffffff" stroke-opacity="0.035" stroke-width="1"/><line x1="0" y1="400" x2="1200" y2="400" stroke="#ffffff" stroke-opacity="0.035" stroke-width="1"/><line x1="0" y1="500" x2="1200" y2="500" stroke="#ffffff" stroke-opacity="0.035" stroke-width="1"/><line x1="0" y1="600" x2="1200" y2="600" stroke="#ffffff" stroke-opacity="0.035" stroke-width="1"/></g>
<rect width="1200" height="675" fill="#18131f" opacity="0.3"/>
<g clip-path="url(#frame)"><path d="M 566 210 L 566 300 L 470 470 Q 460 500 495 500 L 705 500 Q 740 500 730 470 L 634 300 L 634 210 Z" fill="#883cca" fill-opacity="0.3" stroke="#f469f9" stroke-opacity="0.85" stroke-width="4"/><path d="M 492 400 L 708 400 L 728 468 Q 740 500 705 500 L 495 500 Q 460 500 472 468 Z" fill="#be51d3" fill-opacity="0.75"/><rect x="554" y="200" width="92" height="16" rx="4" fill="#f469f9" fill-opacity="0.9"/><circle cx="596.42" cy="460.74" r="10.38" fill="#f469f9" fill-opacity="0.82"/><circle cx="631.01" cy="477.66" r="8.02" fill="#f469f9" fill-opacity="0.59"/><circle cx="668.14" cy="485.45" r="5.78" fill="#f469f9" fill-opacity="0.51"/><circle cx="629.64" cy="448.41" r="3.47" fill="#f469f9" fill-opacity="0.48"/><circle cx="599.91" cy="446.59" r="10.09" fill="#f469f9" fill-opacity="0.56"/><circle cx="663.48" cy="437.35" r="3.77" fill="#f469f9" fill-opacity="0.86"/><circle cx="624.25" cy="444.69" r="6.33" fill="#f469f9" fill-opacity="0.73"/><circle cx="614.09" cy="472.91" r="5.44" fill="#f469f9" fill-opacity="0.87"/><circle cx="676.36" cy="456.67" r="6.47" fill="#f469f9" fill-opacity="0.71"/><line x1="810" y1="230" x2="856" y2="204" stroke="#be51d3" stroke-opacity="0.5" stroke-width="2"/><line x1="810" y1="230" x2="856" y2="260" stroke="#be51d3" stroke-opacity="0.5" stroke-width="2"/><line x1="810" y1="230" x2="766" y2="252" stroke="#be51d3" stroke-opacity="0.5" stroke-width="2"/><line x1="856" y1="204" x2="856" y2="260" stroke="#be51d3" stroke-opacity="0.5" stroke-width="2"/><line x1="856" y1="204" x2="766" y2="252" stroke="#be51d3" stroke-opacity="0.5" stroke-width="2"/><line x1="856" y1="260" x2="766" y2="252" stroke="#be51d3" stroke-opacity="0.5" stroke-width="2"/><circle cx="810" cy="230" r="12" fill="#f469f9" fill-opacity="0.9"/><circle cx="856" cy="204" r="12" fill="#f469f9" fill-opacity="0.9"/><circle cx="856" cy="260" r="12" fill="#f469f9" fill-opacity="0.9"/><circle cx="766" cy="252" r="12" fill="#f469f9" fill-opacity="0.9"/></g>
<rect width="1200" height="675" fill="url(#vig)"/>
<rect width="1200" height="675" filter="url(#grain)" opacity="0.14" style="mix-blend-mode:overlay"/>
</svg>