<svg xmlns="http://www.w3.org/2000/svg" viewBox="0 0 1200 675" width="1200" height="675" role="img" aria-label="Abstract cover illustration">
<defs>
<linearGradient id="bg" x1="0" y1="0" x2="1" y2="1">
<stop offset="0" stop-color="#2a234d"/><stop offset="0.55" stop-color="#201223"/><stop offset="1" stop-color="#572466"/>
</linearGradient>
<radialGradient id="core" cx="0.4" cy="0.35" r="0.75">
<stop offset="0" stop-color="#85a5fb" stop-opacity="0.95"/><stop offset="0.5" stop-color="#4041e0" stop-opacity="0.55"/><stop offset="1" stop-color="#9836da" stop-opacity="0"/>
</radialGradient>
<radialGradient id="halo" cx="0.3" cy="0.54" r="0.85">
<stop offset="0" stop-color="#85a5fb" stop-opacity="0.4"/><stop offset="1" stop-color="#85a5fb" stop-opacity="0"/>
</radialGradient>
<radialGradient id="vig" cx="0.5" cy="0.5" r="0.75">
<stop offset="0.55" stop-color="#000000" stop-opacity="0"/><stop offset="1" stop-color="#000000" stop-opacity="0.55"/>
</radialGradient>
<filter id="grain" x="0" y="0" width="100%" height="100%">
<feTurbulence type="fractalNoise" baseFrequency="0.85" numOctaves="3" stitchTiles="stitch" result="t"/>
<feColorMatrix type="saturate" values="0" in="t" result="g"/>
</filter>
<clipPath id="frame"><rect x="0" y="0" width="1200" height="675"/></clipPath>
</defs>
<rect width="1200" height="675" fill="url(#bg)"/>
<g clip-path="url(#frame)"><g transform="rotate(1.05 581.81 348.41)"><ellipse cx="581.81" cy="348.41" rx="471.87" ry="278.16" fill="none" stroke="#9836da" stroke-opacity="0.44" stroke-width="1.13"/><ellipse cx="581.81" cy="348.41" rx="404.46" ry="228.25" fill="none" stroke="#9836da" stroke-opacity="0.39" stroke-width="1.15"/><ellipse cx="581.81" cy="348.41" rx="337.05" ry="166.51" fill="none" stroke="#9836da" stroke-opacity="0.34" stroke-width="0.83"/><ellipse cx="581.81" cy="348.41" rx="269.64" ry="116.7" fill="none" stroke="#9836da" stroke-opacity="0.29" stroke-width="1.38"/><ellipse cx="581.81" cy="348.41" rx="202.23" ry="141.34" fill="none" stroke="#9836da" stroke-opacity="0.25" stroke-width="1.39"/><ellipse cx="581.81" cy="348.41" rx="134.82" ry="58.41" fill="none" stroke="#9836da" stroke-opacity="0.2" stroke-width="1.12"/><ellipse cx="581.81" cy="348.41" rx="67.41" ry="34.89" fill="none" stroke="#9836da" stroke-opacity="0.15" stroke-width="2.97"/></g><circle cx="581.81" cy="348.41" r="60.67" fill="url(#core)"/><circle cx="436.24" cy="358.91" r="9.86" fill="#85a5fb" fill-opacity="0.82"/><circle cx="550.93" cy="185.73" r="9.39" fill="#85a5fb" fill-opacity="0.59"/><circle cx="832.83" cy="369.91" r="14.85" fill="#85a5fb" fill-opacity="0.86"/></g>
<rect width="1200" height="675" fill="url(#halo)" style="mix-blend-mode:screen"/>
<g clip-path="url(#frame)"><line x1="0" y1="0" x2="0" y2="675" stroke="#ffffff" stroke-opacity="0.035" stroke-width="1"/><line x1="100" y1="0" x2="100" y2="675" stroke="#ffffff" stroke-opacity="0.035" stroke-width="1"/><line x1="200" y1="0" x2="200" y2="675" stroke="#ffffff" stroke-opacity="0.035" stroke-width="1"/><line x1="300" y1="0" x2="300" y2="675" stroke="#ffffff" stroke-opacity="0.035" stroke-width="1"/><line x1="400" y1="0" x2="400" y2="675" stroke="#ffffff" stroke-opacity="0.035" stroke-width="1"/><line x1="500" y1="0" x2="500" y2="675" stroke="#ffffff" stroke-opacity="0.035" stroke-width="1"/><line x1="600" y1="0" x2="600" y2="675" stroke="#ffffff" stroke-opacity="0.035" stroke-width="1"/><line x1="700" y1="0" x2="700" y2="675" stroke="#ffffff" stroke-opacity="0.035" stroke-width="1"/><line x1="800" y1="0" x2="800" y2="675" stroke="#ffffff" stroke-opacity="0.035" stroke-width="1"/><line x1="900" y1="0" x2="900" y2="675" stroke="#ffffff" stroke-opacity="0.035" stroke-width="1"/><line x1="1000" y1="0" x2="1000" y2="675" stroke="#ffffff" stroke-opacity="0.035" stroke-width="1"/><line x1="1100" y1="0" x2="1100" y2="675" stroke="#ffffff" stroke-opacity="0.035" stroke-width="1"/><line x1="1200" y1="0" x2="1200" y2="675" stroke="#ffffff" stroke-opacity="0.035" stroke-width="1"/><line x1="0" y1="0" x2="1200" y2="0" stroke="#ffffff" stroke-opacity="0.035" stroke-width="1"/><line x1="0" y1="100" x2="1200" y2="100" stroke="#ffffff" stroke-opacity="0.035" stroke-width="1"/><line x1="0" y1="200" x2="1200" y2="200" stroke="#ffffff" stroke-opacity="0.035" stroke-width="1"/><line x1="0" y1="300" x2="1200" y2="300" stroke="#ffffff" stroke-opacity="0.035" stroke-width="1"/><line x1="0" y1="400" x2="1200" y2="400" stroke="#ffffff" stroke-opacity="0.035" stroke-width="1"/><line x1="0" y1="500" x2="1200" y2="500" stroke="#ffffff" stroke-opacity="0.035" stroke-width="1"/><line x1="0" y1="600" x2="1200" y2="600" stroke="#ffffff" stroke-opacity="0.035" stroke-width="1"/></g>
<rect width="1200" height="675" fill="url(#vig)"/>
<rect width="1200" height="675" filter="url(#grain)" opacity="0.14" style="mix-blend-mode:overlay"/>
</svg>