<svg xmlns="http://www.w3.org/2000/svg" viewBox="0 0 1200 675" width="1200" height="675" role="img" aria-label="Electricity pylons carrying power lines — original cover illustration">
<defs>
<linearGradient id="bg" x1="0" y1="0" x2="1" y2="1">
<stop offset="0" stop-color="#1c402a"/><stop offset="0.55" stop-color="#091211"/><stop offset="1" stop-color="#216658"/>
</linearGradient>
<radialGradient id="core" cx="0.4" cy="0.35" r="0.75">
<stop offset="0" stop-color="#79fd85" stop-opacity="0.95"/><stop offset="0.5" stop-color="#3ae467" stop-opacity="0.55"/><stop offset="1" stop-color="#21d299" stop-opacity="0"/>
</radialGradient>
<radialGradient id="halo" cx="0.22" cy="0.24" r="0.85">
<stop offset="0" stop-color="#79fd85" stop-opacity="0.4"/><stop offset="1" stop-color="#79fd85" stop-opacity="0"/>
</radialGradient>
<radialGradient id="vig" cx="0.5" cy="0.5" r="0.75">
<stop offset="0.55" stop-color="#000000" stop-opacity="0"/><stop offset="1" stop-color="#000000" stop-opacity="0.55"/>
</radialGradient>
<filter id="grain" x="0" y="0" width="100%" height="100%">
<feTurbulence type="fractalNoise" baseFrequency="0.85" numOctaves="3" stitchTiles="stitch" result="t"/>
<feColorMatrix type="saturate" values="0" in="t" result="g"/>
</filter>
<clipPath id="frame"><rect x="0" y="0" width="1200" height="675"/></clipPath>
</defs>
<rect width="1200" height="675" fill="url(#bg)"/>
<g clip-path="url(#frame)" opacity="0.42"><path d="M -20 611.17 C 462.09 611.17, 462.09 105.54, 600 105.54 S 952.81 233.48, 1220 233.48" fill="none" stroke="#79fd85" stroke-opacity="0.54" stroke-width="2.18" stroke-linecap="round"/><path d="M -20 611.17 C 462.09 611.17, 462.09 105.54, 600 105.54 S 952.81 233.48, 1220 233.48" fill="none" stroke="#79fd85" stroke-opacity="0.15" stroke-width="8.73" stroke-linecap="round"/><path d="M -20 77.67 C 435.16 77.67, 435.16 259.37, 600 259.37 S 791.16 151.44, 1220 151.44" fill="none" stroke="#3ae467" stroke-opacity="0.45" stroke-width="5.48" stroke-linecap="round"/><path d="M -20 77.67 C 435.16 77.67, 435.16 259.37, 600 259.37 S 791.16 151.44, 1220 151.44" fill="none" stroke="#3ae467" stroke-opacity="0.15" stroke-width="21.93" stroke-linecap="round"/></g>
<rect width="1200" height="675" fill="url(#halo)" style="mix-blend-mode:screen"/>
<g clip-path="url(#frame)"><line x1="0" y1="0" x2="0" y2="675" stroke="#ffffff" stroke-opacity="0.035" stroke-width="1"/><line x1="100" y1="0" x2="100" y2="675" stroke="#ffffff" stroke-opacity="0.035" stroke-width="1"/><line x1="200" y1="0" x2="200" y2="675" stroke="#ffffff" stroke-opacity="0.035" stroke-width="1"/><line x1="300" y1="0" x2="300" y2="675" stroke="#ffffff" stroke-opacity="0.035" stroke-width="1"/><line x1="400" y1="0" x2="400" y2="675" stroke="#ffffff" stroke-opacity="0.035" stroke-width="1"/><line x1="500" y1="0" x2="500" y2="675" stroke="#ffffff" stroke-opacity="0.035" stroke-width="1"/><line x1="600" y1="0" x2="600" y2="675" stroke="#ffffff" stroke-opacity="0.035" stroke-width="1"/><line x1="700" y1="0" x2="700" y2="675" stroke="#ffffff" stroke-opacity="0.035" stroke-width="1"/><line x1="800" y1="0" x2="800" y2="675" stroke="#ffffff" stroke-opacity="0.035" stroke-width="1"/><line x1="900" y1="0" x2="900" y2="675" stroke="#ffffff" stroke-opacity="0.035" stroke-width="1"/><line x1="1000" y1="0" x2="1000" y2="675" stroke="#ffffff" stroke-opacity="0.035" stroke-width="1"/><line x1="1100" y1="0" x2="1100" y2="675" stroke="#ffffff" stroke-opacity="0.035" stroke-width="1"/><line x1="1200" y1="0" x2="1200" y2="675" stroke="#ffffff" stroke-opacity="0.035" stroke-width="1"/><line x1="0" y1="0" x2="1200" y2="0" stroke="#ffffff" stroke-opacity="0.035" stroke-width="1"/><line x1="0" y1="100" x2="1200" y2="100" stroke="#ffffff" stroke-opacity="0.035" stroke-width="1"/><line x1="0" y1="200" x2="1200" y2="200" stroke="#ffffff" stroke-opacity="0.035" stroke-width="1"/><line x1="0" y1="300" x2="1200" y2="300" stroke="#ffffff" stroke-opacity="0.035" stroke-width="1"/><line x1="0" y1="400" x2="1200" y2="400" stroke="#ffffff" stroke-opacity="0.035" stroke-width="1"/><line x1="0" y1="500" x2="1200" y2="500" stroke="#ffffff" stroke-opacity="0.035" stroke-width="1"/><line x1="0" y1="600" x2="1200" y2="600" stroke="#ffffff" stroke-opacity="0.035" stroke-width="1"/></g>
<rect width="1200" height="675" fill="#091211" opacity="0.3"/>
<g clip-path="url(#frame)"><path d="M 278 540 L 320 196.59 L 360 196.59 L 402 540" fill="none" stroke="#3ae467" stroke-opacity="0.85" stroke-width="5"/><line x1="285" y1="482.76" x2="395" y2="482.76" stroke="#21d299" stroke-opacity="0.6" stroke-width="3"/><line x1="292" y1="425.53" x2="388" y2="425.53" stroke="#21d299" stroke-opacity="0.6" stroke-width="3"/><line x1="299" y1="368.29" x2="381" y2="368.29" stroke="#21d299" stroke-opacity="0.6" stroke-width="3"/><line x1="306" y1="311.06" x2="374" y2="311.06" stroke="#21d299" stroke-opacity="0.6" stroke-width="3"/><line x1="313" y1="253.82" x2="367" y2="253.82" stroke="#21d299" stroke-opacity="0.6" stroke-width="3"/><line x1="256" y1="236.59" x2="424" y2="236.59" stroke="#79fd85" stroke-opacity="0.9" stroke-width="5"/><line x1="278" y1="288.59" x2="402" y2="288.59" stroke="#79fd85" stroke-opacity="0.7" stroke-width="4"/><path d="M 538 540 L 580 183.15 L 620 183.15 L 662 540" fill="none" stroke="#3ae467" stroke-opacity="0.85" stroke-width="5"/><line x1="545" y1="480.53" x2="655" y2="480.53" stroke="#21d299" stroke-opacity="0.6" stroke-width="3"/><line x1="552" y1="421.05" x2="648" y2="421.05" stroke="#21d299" stroke-opacity="0.6" stroke-width="3"/><line x1="559" y1="361.58" x2="641" y2="361.58" stroke="#21d299" stroke-opacity="0.6" stroke-width="3"/><line x1="566" y1="302.1" x2="634" y2="302.1" stroke="#21d299" stroke-opacity="0.6" stroke-width="3"/><line x1="573" y1="242.63" x2="627" y2="242.63" stroke="#21d299" stroke-opacity="0.6" stroke-width="3"/><line x1="516" y1="223.15" x2="684" y2="223.15" stroke="#79fd85" stroke-opacity="0.9" stroke-width="5"/><line x1="538" y1="275.15" x2="662" y2="275.15" stroke="#79fd85" stroke-opacity="0.7" stroke-width="4"/><path d="M 798 540 L 840 217.69 L 880 217.69 L 922 540" fill="none" stroke="#3ae467" stroke-opacity="0.85" stroke-width="5"/><line x1="805" y1="486.28" x2="915" y2="486.28" stroke="#21d299" stroke-opacity="0.6" stroke-width="3"/><line x1="812" y1="432.56" x2="908" y2="432.56" stroke="#21d299" stroke-opacity="0.6" stroke-width="3"/><line x1="819" y1="378.85" x2="901" y2="378.85" stroke="#21d299" stroke-opacity="0.6" stroke-width="3"/><line x1="826" y1="325.13" x2="894" y2="325.13" stroke="#21d299" stroke-opacity="0.6" stroke-width="3"/><line x1="833" y1="271.41" x2="887" y2="271.41" stroke="#21d299" stroke-opacity="0.6" stroke-width="3"/><line x1="776" y1="257.69" x2="944" y2="257.69" stroke="#79fd85" stroke-opacity="0.9" stroke-width="5"/><line x1="798" y1="309.69" x2="922" y2="309.69" stroke="#79fd85" stroke-opacity="0.7" stroke-width="4"/><path d="M 424 236.59 Q 470 298.59 516 223.15" fill="none" stroke="#79fd85" stroke-opacity="0.55" stroke-width="2.5"/><path d="M 424 288.59 Q 470 342.59 516 275.15" fill="none" stroke="#79fd85" stroke-opacity="0.55" stroke-width="2.5"/><path d="M 684 223.15 Q 730 319.69 776 257.69" fill="none" stroke="#79fd85" stroke-opacity="0.55" stroke-width="2.5"/><path d="M 684 275.15 Q 730 363.69 776 309.69" fill="none" stroke="#79fd85" stroke-opacity="0.55" stroke-width="2.5"/></g>
<rect width="1200" height="675" fill="url(#vig)"/>
<rect width="1200" height="675" filter="url(#grain)" opacity="0.14" style="mix-blend-mode:overlay"/>
</svg>