<svg xmlns="http://www.w3.org/2000/svg" viewBox="0 0 1200 675" width="1200" height="675" role="img" aria-label="A wireframe globe crossed by connection arcs — original cover illustration">
<defs>
<linearGradient id="bg" x1="0" y1="0" x2="1" y2="1">
<stop offset="0" stop-color="#413f16"/><stop offset="0.55" stop-color="#23120f"/><stop offset="1" stop-color="#79351c"/>
</linearGradient>
<radialGradient id="core" cx="0.4" cy="0.35" r="0.75">
<stop offset="0" stop-color="#bdfd66" stop-opacity="0.95"/><stop offset="0.5" stop-color="#e3fa52" stop-opacity="0.55"/><stop offset="1" stop-color="#ec7612" stop-opacity="0"/>
</radialGradient>
<radialGradient id="halo" cx="0.63" cy="0.31" r="0.85">
<stop offset="0" stop-color="#bdfd66" stop-opacity="0.4"/><stop offset="1" stop-color="#bdfd66" stop-opacity="0"/>
</radialGradient>
<radialGradient id="vig" cx="0.5" cy="0.5" r="0.75">
<stop offset="0.55" stop-color="#000000" stop-opacity="0"/><stop offset="1" stop-color="#000000" stop-opacity="0.55"/>
</radialGradient>
<filter id="grain" x="0" y="0" width="100%" height="100%">
<feTurbulence type="fractalNoise" baseFrequency="0.85" numOctaves="3" stitchTiles="stitch" result="t"/>
<feColorMatrix type="saturate" values="0" in="t" result="g"/>
</filter>
<clipPath id="frame"><rect x="0" y="0" width="1200" height="675"/></clipPath>
</defs>
<rect width="1200" height="675" fill="url(#bg)"/>
<g clip-path="url(#frame)" opacity="0.42"><path d="M 664.59 822.67 A 817.25 817.25 0 0 1 554.62 -149.85" fill="none" stroke="#bdfd66" stroke-opacity="0.06" stroke-width="1"/><path d="M 733.55 757.84 A 722.59 722.59 0 0 1 636.32 -102.04" fill="none" stroke="#ec7612" stroke-opacity="0.1" stroke-width="1.5"/><path d="M 802.51 693 A 627.94 627.94 0 0 1 718.02 -54.24" fill="none" stroke="#ec7612" stroke-opacity="0.14" stroke-width="2"/><path d="M 871.47 628.16 A 533.28 533.28 0 0 1 799.72 -6.44" fill="none" stroke="#ec7612" stroke-opacity="0.17" stroke-width="2.5"/><path d="M 940.44 563.32 A 438.62 438.62 0 0 1 881.42 41.36" fill="none" stroke="#bdfd66" stroke-opacity="0.21" stroke-width="3"/><path d="M 1009.4 498.48 A 343.97 343.97 0 0 1 963.12 89.16" fill="none" stroke="#ec7612" stroke-opacity="0.25" stroke-width="3.5"/><path d="M 1078.36 433.65 A 249.31 249.31 0 0 1 1044.81 136.97" fill="none" stroke="#ec7612" stroke-opacity="0.28" stroke-width="4"/><path d="M 1147.32 368.81 A 154.66 154.66 0 0 1 1126.51 184.77" fill="none" stroke="#ec7612" stroke-opacity="0.32" stroke-width="4.5"/><circle cx="1260" cy="262.87" r="14" fill="#bdfd66" fill-opacity="0.9"/></g>
<rect width="1200" height="675" fill="url(#halo)" style="mix-blend-mode:screen"/>
<g clip-path="url(#frame)"><line x1="0" y1="0" x2="0" y2="675" stroke="#ffffff" stroke-opacity="0.035" stroke-width="1"/><line x1="100" y1="0" x2="100" y2="675" stroke="#ffffff" stroke-opacity="0.035" stroke-width="1"/><line x1="200" y1="0" x2="200" y2="675" stroke="#ffffff" stroke-opacity="0.035" stroke-width="1"/><line x1="300" y1="0" x2="300" y2="675" stroke="#ffffff" stroke-opacity="0.035" stroke-width="1"/><line x1="400" y1="0" x2="400" y2="675" stroke="#ffffff" stroke-opacity="0.035" stroke-width="1"/><line x1="500" y1="0" x2="500" y2="675" stroke="#ffffff" stroke-opacity="0.035" stroke-width="1"/><line x1="600" y1="0" x2="600" y2="675" stroke="#ffffff" stroke-opacity="0.035" stroke-width="1"/><line x1="700" y1="0" x2="700" y2="675" stroke="#ffffff" stroke-opacity="0.035" stroke-width="1"/><line x1="800" y1="0" x2="800" y2="675" stroke="#ffffff" stroke-opacity="0.035" stroke-width="1"/><line x1="900" y1="0" x2="900" y2="675" stroke="#ffffff" stroke-opacity="0.035" stroke-width="1"/><line x1="1000" y1="0" x2="1000" y2="675" stroke="#ffffff" stroke-opacity="0.035" stroke-width="1"/><line x1="1100" y1="0" x2="1100" y2="675" stroke="#ffffff" stroke-opacity="0.035" stroke-width="1"/><line x1="1200" y1="0" x2="1200" y2="675" stroke="#ffffff" stroke-opacity="0.035" stroke-width="1"/><line x1="0" y1="0" x2="1200" y2="0" stroke="#ffffff" stroke-opacity="0.035" stroke-width="1"/><line x1="0" y1="100" x2="1200" y2="100" stroke="#ffffff" stroke-opacity="0.035" stroke-width="1"/><line x1="0" y1="200" x2="1200" y2="200" stroke="#ffffff" stroke-opacity="0.035" stroke-width="1"/><line x1="0" y1="300" x2="1200" y2="300" stroke="#ffffff" stroke-opacity="0.035" stroke-width="1"/><line x1="0" y1="400" x2="1200" y2="400" stroke="#ffffff" stroke-opacity="0.035" stroke-width="1"/><line x1="0" y1="500" x2="1200" y2="500" stroke="#ffffff" stroke-opacity="0.035" stroke-width="1"/><line x1="0" y1="600" x2="1200" y2="600" stroke="#ffffff" stroke-opacity="0.035" stroke-width="1"/></g>
<rect width="1200" height="675" fill="#23120f" opacity="0.3"/>
<g clip-path="url(#frame)"><circle cx="600" cy="340" r="200" fill="#ec7612" fill-opacity="0.35" stroke="#bdfd66" stroke-opacity="0.85" stroke-width="3"/><ellipse cx="600" cy="220" rx="160" ry="35.2" fill="none" stroke="#e3fa52" stroke-opacity="0.45" stroke-width="1.8"/><ellipse cx="600" cy="300" rx="195.96" ry="43.11" fill="none" stroke="#e3fa52" stroke-opacity="0.45" stroke-width="1.8"/><ellipse cx="600" cy="380" rx="195.96" ry="43.11" fill="none" stroke="#e3fa52" stroke-opacity="0.45" stroke-width="1.8"/><ellipse cx="600" cy="460" rx="160" ry="35.2" fill="none" stroke="#e3fa52" stroke-opacity="0.45" stroke-width="1.8"/><ellipse cx="600" cy="340" rx="184" ry="200" fill="none" stroke="#e3fa52" stroke-opacity="0.4" stroke-width="1.8"/><ellipse cx="600" cy="340" rx="130.11" ry="200" fill="none" stroke="#e3fa52" stroke-opacity="0.4" stroke-width="1.8"/><ellipse cx="600" cy="340" rx="0" ry="200" fill="none" stroke="#e3fa52" stroke-opacity="0.4" stroke-width="1.8"/><ellipse cx="600" cy="340" rx="130.11" ry="200" fill="none" stroke="#e3fa52" stroke-opacity="0.4" stroke-width="1.8"/><path d="M 599.53 156 Q 600 340 774.15 280.61" fill="none" stroke="#bdfd66" stroke-opacity="0.7" stroke-width="2.5"/><circle cx="599.53" cy="156" r="7" fill="#bdfd66"/><circle cx="774.15" cy="280.61" r="7" fill="#bdfd66"/><path d="M 746.13 228.19 Q 600 340 503.64 496.75" fill="none" stroke="#bdfd66" stroke-opacity="0.7" stroke-width="2.5"/><circle cx="746.13" cy="228.19" r="7" fill="#bdfd66"/><circle cx="503.64" cy="496.75" r="7" fill="#bdfd66"/><path d="M 439.44 429.87 Q 600 340 459.04 221.74" fill="none" stroke="#bdfd66" stroke-opacity="0.7" stroke-width="2.5"/><circle cx="439.44" cy="429.87" r="7" fill="#bdfd66"/><circle cx="459.04" cy="221.74" r="7" fill="#bdfd66"/><path d="M 781.64 310.63 Q 600 340 575.83 522.4" fill="none" stroke="#bdfd66" stroke-opacity="0.7" stroke-width="2.5"/><circle cx="781.64" cy="310.63" r="7" fill="#bdfd66"/><circle cx="575.83" cy="522.4" r="7" fill="#bdfd66"/></g>
<rect width="1200" height="675" fill="url(#vig)"/>
<rect width="1200" height="675" filter="url(#grain)" opacity="0.14" style="mix-blend-mode:overlay"/>
</svg>