<svg xmlns="http://www.w3.org/2000/svg" viewBox="0 0 1200 675" width="1200" height="675" role="img" aria-label="A ring of people connected by lines — original cover illustration">
<defs>
<linearGradient id="bg" x1="0" y1="0" x2="1" y2="1">
<stop offset="0" stop-color="#21193f"/><stop offset="0.55" stop-color="#101921"/><stop offset="1" stop-color="#1a3257"/>
</linearGradient>
<radialGradient id="core" cx="0.4" cy="0.35" r="0.75">
<stop offset="0" stop-color="#d18bfd" stop-opacity="0.95"/><stop offset="0.5" stop-color="#7f41ec" stop-opacity="0.55"/><stop offset="1" stop-color="#1a45cf" stop-opacity="0"/>
</radialGradient>
<radialGradient id="halo" cx="0.4" cy="0.57" r="0.85">
<stop offset="0" stop-color="#d18bfd" stop-opacity="0.4"/><stop offset="1" stop-color="#d18bfd" stop-opacity="0"/>
</radialGradient>
<radialGradient id="vig" cx="0.5" cy="0.5" r="0.75">
<stop offset="0.55" stop-color="#000000" stop-opacity="0"/><stop offset="1" stop-color="#000000" stop-opacity="0.55"/>
</radialGradient>
<filter id="grain" x="0" y="0" width="100%" height="100%">
<feTurbulence type="fractalNoise" baseFrequency="0.85" numOctaves="3" stitchTiles="stitch" result="t"/>
<feColorMatrix type="saturate" values="0" in="t" result="g"/>
</filter>
<clipPath id="frame"><rect x="0" y="0" width="1200" height="675"/></clipPath>
</defs>
<rect width="1200" height="675" fill="url(#bg)"/>
<g clip-path="url(#frame)" opacity="0.42"><path d="M 407.64 166.61 L 409.48 169.29 L 410.59 172.18 L 410.65 175.13 L 409.45 177.95 L 407.01 180.44 L 403.55 182.46 L 399.39 183.93 L 394.93 184.9 L 390.53 185.52 L 386.42 186 L 382.68 186.54 L 379.22 187.31 L 375.83 188.36 L 372.27 189.63 L 368.37 190.96 L 364.05 192.1 L 359.4 192.79 L 354.63 192.82 L 350.08 192.08 L 346.06 190.57 L 342.81 188.42 L 340.44 185.84 L 338.87 183.08 L 337.87 180.35 L 337.1 177.8 L 336.23 175.48 L 334.99 173.34 L 333.3 171.23 L 331.24 169.03 L 329.1 166.61 L 327.26 163.93 L 326.15 161.05 L 326.09 158.1 L 327.29 155.27 L 329.73 152.78 L 333.19 150.77 L 337.35 149.3 L 341.81 148.32 L 346.21 147.7 L 350.32 147.22 L 354.06 146.68 L 357.52 145.92 L 360.91 144.87 L 364.47 143.59 L 368.37 142.26 L 372.69 141.13 L 377.34 140.43 L 382.11 140.4 L 386.66 141.14 L 390.68 142.65 L 393.93 144.8 L 396.3 147.38 L 397.87 150.14 L 398.87 152.87 L 399.64 155.42 L 400.51 157.74 L 401.75 159.89 L 403.44 161.99 L 405.5 164.19 L 407.64 166.61 Z" fill="none" stroke="#7f41ec" stroke-opacity="0.57" stroke-width="2.3"/><path d="M 456.91 166.61 L 460.88 172.64 L 462.97 179.08 L 462.51 185.58 L 459.22 191.69 L 453.26 197 L 445.19 201.22 L 435.83 204.27 L 426.05 206.33 L 416.58 207.76 L 407.86 209.02 L 399.92 210.55 L 392.49 212.64 L 385.08 215.35 L 377.16 218.45 L 368.37 221.51 L 358.65 223.97 L 348.26 225.26 L 337.78 224.98 L 327.92 222.94 L 319.36 219.25 L 312.56 214.24 L 307.63 208.44 L 304.31 202.37 L 302.01 196.5 L 299.98 191.09 L 297.5 186.17 L 294.13 181.57 L 289.77 176.97 L 284.76 172.06 L 279.83 166.61 L 275.86 160.58 L 273.77 154.14 L 274.23 147.65 L 277.52 141.53 L 283.48 136.22 L 291.55 132.01 L 300.91 128.95 L 310.69 126.89 L 320.16 125.47 L 328.88 124.21 L 336.82 122.67 L 344.25 120.58 L 351.66 117.88 L 359.58 114.77 L 368.37 111.71 L 378.09 109.26 L 388.48 107.96 L 398.96 108.24 L 408.82 110.28 L 417.38 113.98 L 424.18 118.98 L 429.11 124.79 L 432.43 130.85 L 434.73 136.72 L 436.76 142.13 L 439.24 147.05 L 442.61 151.66 L 446.97 156.25 L 451.98 161.16 L 456.91 166.61 Z" fill="none" stroke="#1a45cf" stroke-opacity="0.54" stroke-width="2.2"/><path d="M 507.99 166.61 L 513.81 176.09 L 516.34 186.11 L 514.68 196.09 L 508.6 205.32 L 498.54 213.21 L 485.54 219.39 L 470.92 223.86 L 456.03 226.97 L 441.87 229.33 L 428.95 231.67 L 417.19 234.59 L 406.02 238.45 L 394.62 243.18 L 382.23 248.34 L 368.37 253.18 L 353.08 256.78 L 336.92 258.35 L 320.83 257.32 L 305.94 253.55 L 293.21 247.32 L 283.24 239.26 L 276.03 230.19 L 271.02 220.96 L 267.21 212.18 L 263.44 204.17 L 258.72 196.88 L 252.51 189.95 L 244.87 182.89 L 236.55 175.2 L 228.75 166.61 L 222.93 157.13 L 220.4 147.11 L 222.06 137.14 L 228.14 127.9 L 238.2 120.01 L 251.2 113.83 L 265.82 109.36 L 280.71 106.25 L 294.87 103.89 L 307.79 101.56 L 319.55 98.63 L 330.72 94.78 L 342.12 90.04 L 354.51 84.88 L 368.37 80.05 L 383.66 76.44 L 399.82 74.87 L 415.91 75.9 L 430.8 79.67 L 443.53 85.9 L 453.5 93.97 L 460.71 103.03 L 465.72 112.26 L 469.53 121.04 L 473.3 129.05 L 478.02 136.34 L 484.23 143.27 L 491.87 150.34 L 500.19 158.02 L 507.99 166.61 Z" fill="none" stroke="#1a45cf" stroke-opacity="0.51" stroke-width="2.1"/><path d="M 560.79 166.61 L 568.05 179.62 L 570.36 193.23 L 566.76 206.58 L 557.22 218.74 L 542.59 228.97 L 524.45 236.92 L 504.66 242.7 L 484.97 246.9 L 466.56 250.4 L 449.89 254.16 L 434.64 258.9 L 419.89 264.93 L 404.5 272.01 L 387.49 279.37 L 368.37 285.91 L 347.38 290.41 L 325.44 291.84 L 303.91 289.62 L 284.29 283.7 L 267.78 274.63 L 254.97 263.38 L 245.65 251.11 L 238.88 238.9 L 233.22 227.49 L 227.16 217.16 L 219.52 207.7 L 209.79 198.56 L 198.38 189.01 L 186.5 178.46 L 175.95 166.61 L 168.69 153.6 L 166.38 139.99 L 169.98 126.64 L 179.52 114.48 L 194.15 104.25 L 212.29 96.3 L 232.08 90.53 L 251.77 86.33 L 270.18 82.82 L 286.85 79.06 L 302.1 74.32 L 316.85 68.29 L 332.24 61.22 L 349.25 53.85 L 368.37 47.31 L 389.36 42.81 L 411.3 41.38 L 432.83 43.61 L 452.45 49.53 L 468.96 58.59 L 481.77 69.84 L 491.09 82.11 L 497.86 94.32 L 503.52 105.73 L 509.57 116.07 L 517.22 125.52 L 526.95 134.67 L 538.36 144.21 L 550.24 154.76 L 560.79 166.61 Z" fill="none" stroke="#1a45cf" stroke-opacity="0.49" stroke-width="2"/><path d="M 615.15 166.61 L 623.29 183.22 L 624.66 200.39 L 618.38 216.98 L 604.75 231.86 L 585.18 244.22 L 561.84 253.76 L 537.11 260.81 L 513.02 266.22 L 490.86 271.14 L 470.89 276.71 L 452.45 283.7 L 434.23 292.28 L 414.76 301.93 L 392.94 311.54 L 368.37 319.62 L 341.58 324.66 L 313.89 325.51 L 287.14 321.61 L 263.13 313.17 L 243.19 301.04 L 227.8 286.57 L 216.44 271.23 L 207.72 256.3 L 199.77 242.56 L 190.79 230.18 L 179.52 218.74 L 165.69 207.44 L 150.11 195.37 L 134.61 181.84 L 121.59 166.61 L 113.45 150 L 112.08 132.84 L 118.36 116.25 L 131.99 101.36 L 151.56 89 L 174.9 79.46 L 199.63 72.41 L 223.72 67.01 L 245.88 62.08 L 265.85 56.51 L 284.29 49.53 L 302.51 40.95 L 321.98 31.29 L 343.8 21.68 L 368.37 13.61 L 395.16 8.56 L 422.85 7.71 L 449.6 11.61 L 473.61 20.06 L 493.55 32.19 L 508.94 46.66 L 520.3 61.99 L 529.02 76.93 L 536.97 90.67 L 545.95 103.05 L 557.22 114.48 L 571.05 125.78 L 586.63 137.85 L 602.13 151.38 L 615.15 166.61 Z" fill="none" stroke="#1a45cf" stroke-opacity="0.46" stroke-width="1.9"/><path d="M 670.85 166.61 L 679.19 186.87 L 678.83 207.53 L 669.14 227.2 L 650.9 244.6 L 626.17 258.89 L 597.71 269.92 L 568.37 278.26 L 540.4 285.07 L 515 291.74 L 492.16 299.54 L 470.76 309.19 L 449.09 320.64 L 425.42 333.02 L 398.58 344.81 L 368.37 354.15 L 335.7 359.32 L 302.38 359.1 L 270.65 353.09 L 242.58 341.78 L 219.53 326.45 L 201.74 308.8 L 188.29 290.61 L 177.31 273.27 L 166.54 257.53 L 153.97 243.36 L 138.41 230.09 L 119.94 216.66 L 99.97 201.98 L 80.96 185.34 L 65.89 166.61 L 57.55 146.36 L 57.91 125.7 L 67.6 106.02 L 85.84 88.62 L 110.57 74.33 L 139.03 63.3 L 168.37 54.96 L 196.34 48.16 L 221.73 41.48 L 244.58 33.68 L 265.98 24.03 L 287.65 12.59 L 311.32 0.2 L 338.16 -11.58 L 368.37 -20.93 L 401.04 -26.09 L 434.36 -25.87 L 466.09 -19.86 L 494.16 -8.56 L 517.21 6.78 L 535 24.42 L 548.45 42.61 L 559.43 59.95 L 570.2 75.7 L 582.77 89.86 L 598.33 103.13 L 616.8 116.57 L 636.77 131.24 L 655.78 147.88 L 670.85 166.61 Z" fill="none" stroke="#7f41ec" stroke-opacity="0.43" stroke-width="1.8"/><path d="M 727.59 166.61 L 735.35 190.53 L 732.47 214.59 L 718.69 237.18 L 695.44 256.9 L 665.45 272.95 L 632.1 285.41 L 598.62 295.15 L 567.33 303.61 L 539.23 312.42 L 513.88 322.87 L 489.69 335.56 L 464.54 350.13 L 436.48 365.28 L 404.39 379.08 L 368.37 389.33 L 329.8 394.14 L 290.98 392.35 L 254.54 383.81 L 222.75 369.39 L 196.85 350.8 L 176.76 330.13 L 161.06 309.36 L 147.4 289.97 L 133.2 272.55 L 116.34 256.83 L 95.87 241.83 L 72.38 226.24 L 47.93 208.84 L 25.69 188.94 L 9.15 166.61 L 1.39 142.7 L 4.27 118.63 L 18.05 96.04 L 41.3 76.33 L 71.29 60.27 L 104.64 47.81 L 138.12 38.08 L 169.41 29.61 L 197.51 20.81 L 222.86 10.35 L 247.05 -2.34 L 272.2 -16.9 L 300.26 -32.06 L 332.35 -45.85 L 368.37 -56.1 L 406.94 -60.92 L 445.76 -59.13 L 482.2 -50.59 L 513.99 -36.17 L 539.89 -17.58 L 559.98 3.1 L 575.68 23.86 L 589.34 43.26 L 603.54 60.68 L 620.4 76.39 L 640.87 91.39 L 664.36 106.98 L 688.81 124.38 L 711.05 144.28 L 727.59 166.61 Z" fill="none" stroke="#1a45cf" stroke-opacity="0.4" stroke-width="1.7"/><path d="M 785.01 166.61 L 791.37 194.18 L 785.17 221.54 L 766.72 246.86 L 738.18 268.69 L 703.01 286.4 L 665.14 300.29 L 628.07 311.59 L 594.08 322.03 L 563.79 333.38 L 536.26 346.91 L 509.37 362.97 L 480.62 380.81 L 447.93 398.68 L 410.34 414.21 L 368.37 424.93 L 323.91 428.87 L 279.78 425.02 L 238.94 413.59 L 203.72 395.89 L 175.17 374.09 L 152.75 350.61 L 134.53 327.63 L 117.7 306.55 L 99.39 287.77 L 77.57 270.7 L 51.67 254.03 L 22.89 236.21 L -5.94 215.94 L -30.98 192.63 L -48.27 166.61 L -54.63 139.05 L -48.43 111.68 L -29.98 86.36 L -1.44 64.53 L 33.73 46.83 L 71.6 32.93 L 108.67 21.63 L 142.66 11.19 L 172.95 -0.15 L 200.48 -13.68 L 227.37 -29.74 L 256.12 -47.58 L 288.81 -65.46 L 326.4 -80.99 L 368.37 -91.71 L 412.83 -95.65 L 456.96 -91.8 L 497.8 -80.37 L 533.02 -62.67 L 561.57 -40.86 L 583.99 -17.39 L 602.21 5.6 L 619.04 26.67 L 637.35 45.45 L 659.17 62.52 L 685.07 79.19 L 713.85 97.02 L 742.67 117.28 L 767.72 140.59 L 785.01 166.61 Z" fill="none" stroke="#1a45cf" stroke-opacity="0.37" stroke-width="1.6"/><path d="M 842.71 166.61 L 846.8 197.79 L 836.55 228.31 L 812.96 256.17 L 779.01 279.97 L 738.89 299.24 L 697.01 314.65 L 657 327.74 L 620.92 340.52 L 588.93 354.83 L 559.47 371.83 L 529.88 391.52 L 497.34 412.7 L 459.74 433.13 L 416.41 450.02 L 368.37 460.7 L 318.08 463.24 L 268.86 456.88 L 223.91 442.26 L 185.54 421.21 L 154.45 396.33 L 129.6 370.37 L 108.48 345.56 L 87.88 323.2 L 64.79 303.36 L 37.38 285.09 L 5.61 266.75 L -28.55 246.57 L -61.5 223.26 L -88.74 196.4 L -105.97 166.61 L -110.06 135.43 L -99.81 104.91 L -76.22 77.05 L -42.27 53.26 L -2.15 33.98 L 39.73 18.57 L 79.74 5.48 L 115.82 -7.29 L 147.81 -21.61 L 177.27 -38.6 L 206.86 -58.3 L 239.4 -79.48 L 277 -99.91 L 320.33 -116.8 L 368.37 -127.48 L 418.66 -130.02 L 467.88 -123.66 L 512.83 -109.03 L 551.2 -87.99 L 582.29 -63.11 L 607.14 -37.15 L 628.26 -12.34 L 648.86 10.03 L 671.95 29.86 L 699.36 48.13 L 731.13 66.48 L 765.29 86.65 L 798.24 109.96 L 825.48 136.82 L 842.71 166.61 Z" fill="none" stroke="#1a45cf" stroke-opacity="0.35" stroke-width="1.5"/><path d="M 900.27 166.61 L 901.23 201.34 L 886.26 234.86 L 857.21 265.09 L 817.89 290.7 L 773.21 311.53 L 727.95 328.59 L 685.71 343.76 L 648.17 359.27 L 614.89 376.98 L 583.64 397.79 L 551.26 421.3 L 514.67 445.78 L 471.86 468.49 L 422.56 486.29 L 368.37 496.39 L 312.36 496.99 L 258.29 487.7 L 209.54 469.69 L 168.23 445.32 L 134.63 417.61 L 107.12 389.55 L 82.64 363.36 L 57.62 340.09 L 29.07 319.45 L -4.49 300.08 L -42.42 280.01 L -81.9 257.32 L -118.53 230.78 L -147.25 200.21 L -163.53 166.61 L -164.49 131.89 L -149.52 98.36 L -120.47 68.14 L -81.15 42.52 L -36.47 21.7 L 8.79 4.64 L 51.03 -10.54 L 88.57 -26.05 L 121.85 -43.76 L 153.1 -64.56 L 185.48 -88.08 L 222.07 -112.56 L 264.88 -135.27 L 314.18 -153.07 L 368.37 -163.17 L 424.38 -163.76 L 478.45 -154.48 L 527.2 -136.47 L 568.51 -112.09 L 602.11 -84.39 L 629.62 -56.33 L 654.1 -30.14 L 679.12 -6.86 L 707.67 13.77 L 741.23 33.14 L 779.16 53.22 L 818.64 75.9 L 855.27 102.45 L 883.98 133.01 L 900.27 166.61 Z" fill="none" stroke="#1a45cf" stroke-opacity="0.32" stroke-width="1.4"/><path d="M 957.24 166.61 L 954.25 204.79 L 934.02 241.16 L 899.33 273.57 L 854.87 300.91 L 806.17 323.33 L 758.25 342.23 L 714.5 359.84 L 676.1 378.51 L 641.87 400 L 608.9 424.91 L 573.55 452.33 L 532.58 479.96 L 484.24 504.58 L 428.75 522.77 L 368.37 531.71 L 306.79 529.86 L 248.14 517.31 L 195.85 495.8 L 151.76 468.24 L 115.6 438.05 L 85.11 408.33 L 56.71 381.22 L 26.6 357.4 L -8.07 336.18 L -48.25 315.74 L -92.47 293.82 L -137.03 268.42 L -176.74 238.45 L -206.08 204.05 L -220.5 166.61 L -217.51 128.43 L -197.28 92.07 L -162.59 59.65 L -118.13 32.32 L -69.43 9.9 L -21.51 -9.01 L 22.23 -26.62 L 60.64 -45.29 L 94.87 -66.78 L 127.84 -91.69 L 163.19 -119.11 L 204.15 -146.74 L 252.5 -171.36 L 307.99 -189.55 L 368.37 -198.49 L 429.95 -196.63 L 488.6 -184.09 L 540.89 -162.58 L 584.98 -135.02 L 621.14 -104.83 L 651.63 -75.11 L 680.03 -47.99 L 710.14 -24.18 L 744.81 -2.96 L 784.98 17.48 L 829.21 39.4 L 873.77 64.8 L 913.48 94.77 L 942.82 129.18 L 957.24 166.61 Z" fill="none" stroke="#7f41ec" stroke-opacity="0.29" stroke-width="1.3"/><path d="M 1013.17 166.61 L 1005.48 208.13 L 979.59 247.16 L 939.26 281.62 L 890.07 310.62 L 838.03 334.73 L 788.24 355.74 L 743.74 376.16 L 705 398.41 L 670.07 424.07 L 635.32 453.28 L 596.71 484.59 L 551.01 515.12 L 496.79 541.19 L 434.92 559.19 L 368.37 566.39 L 301.41 561.62 L 238.45 545.57 L 182.88 520.56 L 136.1 490.06 L 97.21 457.8 L 63.32 426.93 L 30.39 399.34 L -5.5 375.32 L -46.88 353.66 L -94 332.12 L -144.5 308.19 L -193.74 279.85 L -235.79 246.23 L -264.82 207.87 L -276.43 166.61 L -268.74 125.09 L -242.85 86.06 L -202.52 51.61 L -153.33 22.6 L -101.29 -1.51 L -51.5 -22.52 L -7 -42.94 L 31.74 -65.19 L 66.67 -90.84 L 101.42 -120.06 L 140.02 -151.37 L 185.73 -181.89 L 239.95 -207.97 L 301.82 -225.96 L 368.37 -233.16 L 435.33 -228.4 L 498.29 -212.34 L 553.86 -187.34 L 600.64 -156.84 L 639.53 -124.58 L 673.42 -93.71 L 706.35 -66.12 L 742.24 -42.1 L 783.62 -20.44 L 830.74 1.1 L 881.24 25.04 L 930.47 53.38 L 972.53 86.99 L 1001.56 125.35 L 1013.17 166.61 Z" fill="none" stroke="#1a45cf" stroke-opacity="0.26" stroke-width="1.2"/><path d="M 1067.62 166.61 L 1054.61 211.33 L 1022.8 252.86 L 977.04 289.23 L 923.67 319.9 L 869.09 345.85 L 818.29 369.28 L 773.75 392.92 L 735.14 419.16 L 699.62 449.29 L 662.93 482.94 L 620.72 518.01 L 569.85 551.07 L 509.43 578.06 L 441.03 595.25 L 368.37 600.15 L 296.24 592.08 L 229.27 572.36 L 170.6 543.98 L 121.14 510.89 L 79.28 477.06 L 41.49 445.56 L 3.36 417.95 L -38.97 394.01 L -87.56 371.99 L -141.83 349.24 L -198.41 323.07 L -251.73 291.53 L -295.25 254.07 L -322.98 211.66 L -330.88 166.61 L -317.87 121.89 L -286.06 80.37 L -240.3 44 L -186.93 13.33 L -132.35 -12.63 L -81.55 -36.06 L -37.01 -59.69 L 1.6 -85.94 L 37.12 -116.06 L 73.8 -149.71 L 116.02 -184.79 L 166.89 -217.85 L 227.31 -244.83 L 295.71 -262.03 L 368.37 -266.92 L 440.5 -258.86 L 507.47 -239.14 L 566.14 -210.76 L 615.6 -177.67 L 657.46 -143.84 L 695.25 -112.34 L 733.38 -84.73 L 775.71 -60.78 L 824.3 -38.76 L 878.57 -16.02 L 935.15 10.16 L 988.47 41.69 L 1031.99 79.16 L 1059.72 121.56 L 1067.62 166.61 Z" fill="none" stroke="#1a45cf" stroke-opacity="0.23" stroke-width="1.1"/><path d="M 1120.19 166.61 L 1101.35 214.38 L 1063.59 258.23 L 1012.77 296.43 L 955.94 328.81 L 899.73 356.81 L 848.78 383.02 L 804.87 410.29 L 766.73 440.91 L 730.64 475.76 L 691.73 513.86 L 645.47 552.48 L 589 587.62 L 522.06 614.91 L 447.04 630.67 L 368.37 632.74 L 291.33 621.06 L 220.6 597.65 L 158.99 566.14 L 106.77 530.91 L 61.59 496.05 L 19.33 464.47 L -24.66 437.24 L -74.05 413.59 L -130.25 391.22 L -191.71 367.1 L -254 338.41 L -310.67 303.4 L -354.69 261.9 L -380.11 215.39 L -383.45 166.61 L -364.61 118.85 L -326.85 74.99 L -276.03 36.8 L -219.2 4.42 L -162.99 -23.59 L -112.04 -49.79 L -68.13 -77.07 L -29.99 -107.69 L 6.1 -142.53 L 45.01 -180.64 L 91.27 -219.26 L 147.74 -254.39 L 214.68 -281.69 L 289.7 -297.44 L 368.37 -299.52 L 445.41 -287.84 L 516.14 -264.43 L 577.75 -232.91 L 629.97 -197.68 L 675.15 -162.83 L 717.41 -131.24 L 761.4 -104.02 L 810.79 -80.37 L 866.99 -58 L 928.45 -33.87 L 990.74 -5.19 L 1047.41 29.82 L 1091.43 71.32 L 1116.85 117.84 L 1120.19 166.61 Z" fill="none" stroke="#1a45cf" stroke-opacity="0.2" stroke-width="1"/><path d="M 1170.53 166.61 L 1145.53 217.25 L 1101.95 263.29 L 1046.64 303.25 L 987.23 337.44 L 930.34 367.77 L 880.11 397.13 L 837.42 428.46 L 799.97 463.8 L 763.18 503.53 L 721.66 546 L 670.85 587.82 L 608.33 624.49 L 534.59 651.45 L 452.88 665.16 L 368.37 663.95 L 286.69 648.45 L 212.44 621.43 L 147.99 587.14 L 92.84 550.31 L 43.92 515.03 L -3.43 483.89 L -53.96 457.42 L -110.97 434.2 L -175.04 411.39 L -243.55 385.65 L -311.01 354.15 L -370.15 315.39 L -413.63 269.67 L -435.74 219.01 L -433.79 166.61 L -408.79 115.97 L -365.21 69.94 L -309.9 29.97 L -250.49 -4.22 L -193.6 -34.55 L -143.37 -63.9 L -100.68 -95.23 L -63.23 -130.58 L -26.44 -170.3 L 15.08 -212.78 L 65.89 -254.6 L 128.41 -291.27 L 202.15 -318.23 L 283.85 -331.93 L 368.37 -330.73 L 450.05 -315.23 L 524.3 -288.21 L 588.75 -253.92 L 643.9 -217.08 L 692.82 -181.81 L 740.17 -150.67 L 790.7 -124.2 L 847.71 -100.98 L 911.78 -78.17 L 980.29 -52.43 L 1047.75 -20.92 L 1106.89 17.84 L 1150.37 63.56 L 1172.48 114.21 L 1170.53 166.61 Z" fill="none" stroke="#1a45cf" stroke-opacity="0.18" stroke-width="0.9"/><path d="M 1218.33 166.61 L 1187.04 219.96 L 1137.98 268.03 L 1078.93 309.75 L 1017.92 345.91 L 961.35 378.87 L 912.65 411.79 L 871.66 447.57 L 835 487.92 L 797.25 532.6 L 752.63 579.26 L 696.71 623.84 L 627.68 661.43 L 546.91 687.38 L 458.53 698.45 L 368.37 693.59 L 282.32 674.18 L 204.78 643.77 L 137.49 607.16 L 79.17 569.33 L 26.01 534.26 L -27.07 504.07 L -84.79 478.65 L -149.87 455.92 L -221.93 432.51 L -297.19 404.85 L -369.1 370.18 L -429.72 327.39 L -471.58 277.3 L -489.44 222.51 L -481.59 166.61 L -450.3 113.26 L -401.24 65.19 L -342.19 23.47 L -281.18 -12.69 L -224.61 -45.65 L -175.91 -78.56 L -134.92 -114.35 L -98.26 -154.7 L -60.51 -199.37 L -15.89 -246.03 L 40.03 -290.62 L 109.06 -328.2 L 189.83 -354.16 L 278.21 -365.23 L 368.37 -360.37 L 454.42 -340.96 L 531.96 -310.55 L 599.25 -273.94 L 657.57 -236.11 L 710.73 -201.04 L 763.81 -170.84 L 821.53 -145.43 L 886.61 -122.7 L 958.67 -99.29 L 1033.93 -71.63 L 1105.83 -36.96 L 1166.46 5.84 L 1208.32 55.92 L 1226.18 110.71 L 1218.33 166.61 Z" fill="none" stroke="#7f41ec" stroke-opacity="0.15" stroke-width="0.8"/></g>
<rect width="1200" height="675" fill="url(#halo)" style="mix-blend-mode:screen"/>
<g clip-path="url(#frame)"><line x1="0" y1="0" x2="0" y2="675" stroke="#ffffff" stroke-opacity="0.035" stroke-width="1"/><line x1="100" y1="0" x2="100" y2="675" stroke="#ffffff" stroke-opacity="0.035" stroke-width="1"/><line x1="200" y1="0" x2="200" y2="675" stroke="#ffffff" stroke-opacity="0.035" stroke-width="1"/><line x1="300" y1="0" x2="300" y2="675" stroke="#ffffff" stroke-opacity="0.035" stroke-width="1"/><line x1="400" y1="0" x2="400" y2="675" stroke="#ffffff" stroke-opacity="0.035" stroke-width="1"/><line x1="500" y1="0" x2="500" y2="675" stroke="#ffffff" stroke-opacity="0.035" stroke-width="1"/><line x1="600" y1="0" x2="600" y2="675" stroke="#ffffff" stroke-opacity="0.035" stroke-width="1"/><line x1="700" y1="0" x2="700" y2="675" stroke="#ffffff" stroke-opacity="0.035" stroke-width="1"/><line x1="800" y1="0" x2="800" y2="675" stroke="#ffffff" stroke-opacity="0.035" stroke-width="1"/><line x1="900" y1="0" x2="900" y2="675" stroke="#ffffff" stroke-opacity="0.035" stroke-width="1"/><line x1="1000" y1="0" x2="1000" y2="675" stroke="#ffffff" stroke-opacity="0.035" stroke-width="1"/><line x1="1100" y1="0" x2="1100" y2="675" stroke="#ffffff" stroke-opacity="0.035" stroke-width="1"/><line x1="1200" y1="0" x2="1200" y2="675" stroke="#ffffff" stroke-opacity="0.035" stroke-width="1"/><line x1="0" y1="0" x2="1200" y2="0" stroke="#ffffff" stroke-opacity="0.035" stroke-width="1"/><line x1="0" y1="100" x2="1200" y2="100" stroke="#ffffff" stroke-opacity="0.035" stroke-width="1"/><line x1="0" y1="200" x2="1200" y2="200" stroke="#ffffff" stroke-opacity="0.035" stroke-width="1"/><line x1="0" y1="300" x2="1200" y2="300" stroke="#ffffff" stroke-opacity="0.035" stroke-width="1"/><line x1="0" y1="400" x2="1200" y2="400" stroke="#ffffff" stroke-opacity="0.035" stroke-width="1"/><line x1="0" y1="500" x2="1200" y2="500" stroke="#ffffff" stroke-opacity="0.035" stroke-width="1"/><line x1="0" y1="600" x2="1200" y2="600" stroke="#ffffff" stroke-opacity="0.035" stroke-width="1"/></g>
<rect width="1200" height="675" fill="#101921" opacity="0.3"/>
<g clip-path="url(#frame)"><line x1="600" y1="167.8" x2="691.12" y2="495.15" stroke="#1a45cf" stroke-opacity="0.35" stroke-width="1.5"/><line x1="600" y1="167.8" x2="508.88" y2="495.15" stroke="#1a45cf" stroke-opacity="0.35" stroke-width="1.5"/><line x1="600" y1="167.8" x2="435.82" y2="232.64" stroke="#1a45cf" stroke-opacity="0.35" stroke-width="1.5"/><line x1="764.18" y1="232.64" x2="804.73" y2="378.32" stroke="#1a45cf" stroke-opacity="0.35" stroke-width="1.5"/><line x1="764.18" y1="232.64" x2="691.12" y2="495.15" stroke="#1a45cf" stroke-opacity="0.35" stroke-width="1.5"/><line x1="764.18" y1="232.64" x2="508.88" y2="495.15" stroke="#1a45cf" stroke-opacity="0.35" stroke-width="1.5"/><line x1="764.18" y1="232.64" x2="435.82" y2="232.64" stroke="#1a45cf" stroke-opacity="0.35" stroke-width="1.5"/><line x1="804.73" y1="378.32" x2="691.12" y2="495.15" stroke="#1a45cf" stroke-opacity="0.35" stroke-width="1.5"/><line x1="804.73" y1="378.32" x2="395.27" y2="378.32" stroke="#1a45cf" stroke-opacity="0.35" stroke-width="1.5"/><line x1="691.12" y1="495.15" x2="435.82" y2="232.64" stroke="#1a45cf" stroke-opacity="0.35" stroke-width="1.5"/><line x1="395.27" y1="378.32" x2="435.82" y2="232.64" stroke="#1a45cf" stroke-opacity="0.35" stroke-width="1.5"/><circle cx="600" cy="147.8" r="20" fill="#d18bfd" fill-opacity="0.9"/><path d="M 570 201.8 Q 600 163.8 630 201.8 Z" fill="#7f41ec" fill-opacity="0.85"/><circle cx="764.18" cy="212.64" r="20" fill="#d18bfd" fill-opacity="0.9"/><path d="M 734.18 266.64 Q 764.18 228.64 794.18 266.64 Z" fill="#7f41ec" fill-opacity="0.85"/><circle cx="804.73" cy="358.32" r="20" fill="#d18bfd" fill-opacity="0.9"/><path d="M 774.73 412.32 Q 804.73 374.32 834.73 412.32 Z" fill="#7f41ec" fill-opacity="0.85"/><circle cx="691.12" cy="475.15" r="20" fill="#d18bfd" fill-opacity="0.9"/><path d="M 661.12 529.15 Q 691.12 491.15 721.12 529.15 Z" fill="#7f41ec" fill-opacity="0.85"/><circle cx="508.88" cy="475.15" r="20" fill="#d18bfd" fill-opacity="0.9"/><path d="M 478.88 529.15 Q 508.88 491.15 538.88 529.15 Z" fill="#7f41ec" fill-opacity="0.85"/><circle cx="395.27" cy="358.32" r="20" fill="#d18bfd" fill-opacity="0.9"/><path d="M 365.27 412.32 Q 395.27 374.32 425.27 412.32 Z" fill="#7f41ec" fill-opacity="0.85"/><circle cx="435.82" cy="212.64" r="20" fill="#d18bfd" fill-opacity="0.9"/><path d="M 405.82 266.64 Q 435.82 228.64 465.82 266.64 Z" fill="#7f41ec" fill-opacity="0.85"/><circle cx="600" cy="340" r="34" fill="#d18bfd" fill-opacity="0.28"/></g>
<rect width="1200" height="675" fill="url(#vig)"/>
<rect width="1200" height="675" filter="url(#grain)" opacity="0.14" style="mix-blend-mode:overlay"/>
</svg>