<svg xmlns="http://www.w3.org/2000/svg" viewBox="0 0 1200 675" width="1200" height="675" role="img" aria-label="A stylised computer chip with pins and traces — original cover illustration">
<defs>
<linearGradient id="bg" x1="0" y1="0" x2="1" y2="1">
<stop offset="0" stop-color="#511d4b"/><stop offset="0.55" stop-color="#251228"/><stop offset="1" stop-color="#5f1a69"/>
</linearGradient>
<radialGradient id="core" cx="0.4" cy="0.35" r="0.75">
<stop offset="0" stop-color="#f882d7" stop-opacity="0.95"/><stop offset="0.5" stop-color="#f52ed2" stop-opacity="0.55"/><stop offset="1" stop-color="#e11cee" stop-opacity="0"/>
</radialGradient>
<radialGradient id="halo" cx="0.23" cy="0.11" r="0.85">
<stop offset="0" stop-color="#f882d7" stop-opacity="0.4"/><stop offset="1" stop-color="#f882d7" stop-opacity="0"/>
</radialGradient>
<radialGradient id="vig" cx="0.5" cy="0.5" r="0.75">
<stop offset="0.55" stop-color="#000000" stop-opacity="0"/><stop offset="1" stop-color="#000000" stop-opacity="0.55"/>
</radialGradient>
<filter id="grain" x="0" y="0" width="100%" height="100%">
<feTurbulence type="fractalNoise" baseFrequency="0.85" numOctaves="3" stitchTiles="stitch" result="t"/>
<feColorMatrix type="saturate" values="0" in="t" result="g"/>
</filter>
<clipPath id="frame"><rect x="0" y="0" width="1200" height="675"/></clipPath>
</defs>
<rect width="1200" height="675" fill="url(#bg)"/>
<g clip-path="url(#frame)" opacity="0.42"><path d="M -40 695 L -40 -86.75 L 0.61 -86.75 L 24.77 90.47 L 24.77 -89.32 L 65.37 -89.32 L 75.73 80.18 L 75.73 53.03 L 116.34 53.03 L 142.28 141.29 L 142.28 -115.4 L 182.89 -115.4 L 217.07 2.07 L 217.07 -101.2 L 257.67 -101.2 L 288.9 35.34 L 288.9 213.3 L 329.5 213.3 L 358.87 229.13 L 358.87 87.11 L 399.48 87.11 L 423.03 168.11 L 423.03 237.37 L 463.64 237.37 L 492.7 243.52 L 492.7 -125.52 L 533.31 -125.52 L 545.43 109.15 L 545.43 -67.93 L 586.04 -67.93 L 594.37 131.65 L 594.37 -86.78 L 634.98 -86.78 L 648.83 99.14 L 648.83 -76.7 L 689.44 -76.7 L 706.72 50.87 L 706.72 49.96 L 747.33 49.96 L 760.82 156.81 L 760.82 63.22 L 801.43 63.22 L 803.98 115.77 L 803.98 0.93 L 844.58 0.93 L 845.6 153.18 L 845.6 124.43 L 886.21 124.43 L 920.49 162.09 L 920.49 188.86 L 961.1 188.86 L 969.96 207.57 L 969.96 -111.07 L 1010.57 -111.07 L 1029.05 -34.08 L 1029.05 169.42 L 1069.65 169.42 L 1097.93 224.46 L 1097.93 209.48 L 1138.54 209.48 L 1168.25 234.23 L 1168.25 -130.84 L 1208.86 -130.84 L 1218.62 12.24 L 1218.62 193.33 L 1259.23 193.33 L 1272.45 237.29 L 1240 695 Z" fill="#e11cee" fill-opacity="0.16"/><path d="M -40 695 L -40 206.62 L -4.19 206.62 L -1.84 256.07 L -1.84 291.32 L 33.97 291.32 L 42.31 326.4 L 42.31 268.58 L 78.12 268.58 L 82.61 298.68 L 82.61 27.66 L 118.43 27.66 L 118.76 196.97 L 118.76 109.05 L 154.57 109.05 L 167.86 143.29 L 167.86 47.47 L 203.68 47.47 L 206.02 221.99 L 206.02 248.94 L 241.84 248.94 L 260.87 288.95 L 260.87 124.19 L 296.69 124.19 L 325.37 211.6 L 325.37 117.81 L 361.18 117.81 L 385.84 256.06 L 385.84 88.99 L 421.65 88.99 L 436.5 194.28 L 436.5 148.18 L 472.32 148.18 L 491.69 268.22 L 491.69 166.41 L 527.5 166.41 L 539.21 195.56 L 539.21 178.31 L 575.02 178.31 L 591.51 244.97 L 591.51 68.03 L 627.32 68.03 L 652.84 186.45 L 652.84 308.2 L 688.65 308.2 L 710.29 325.49 L 710.29 46.69 L 746.1 46.69 L 772.93 161.72 L 772.93 254.57 L 808.74 254.57 L 821.24 285.94 L 821.24 166.67 L 857.05 166.67 L 870.92 253.89 L 870.92 157.52 L 906.73 157.52 L 928.48 240.68 L 928.48 287.23 L 964.29 287.23 L 985.39 305.35 L 985.39 267.85 L 1021.2 267.85 L 1050.64 303.11 L 1050.64 163.57 L 1086.46 163.57 L 1087.3 252.41 L 1087.3 72.02 L 1123.11 72.02 L 1139.74 171.34 L 1139.74 190.36 L 1175.55 190.36 L 1185.04 244.27 L 1185.04 65.9 L 1220.85 65.9 L 1243.93 106.74 L 1240 695 Z" fill="#e11cee" fill-opacity="0.29"/><path d="M -40 695 L -40 183.38 L 12.11 183.38 L 56.67 240.68 L 56.67 331.64 L 108.78 331.64 L 148.61 359.45 L 148.61 162.05 L 200.73 162.05 L 222.65 217.88 L 222.65 352.68 L 274.76 352.68 L 318.35 380.91 L 318.35 314.5 L 370.47 314.5 L 413.42 334.02 L 413.42 203.3 L 465.54 203.3 L 506.3 319.45 L 506.3 312.72 L 558.41 312.72 L 583.98 377.99 L 583.98 340.87 L 636.09 340.87 L 666.84 356.9 L 666.84 366.27 L 718.95 366.27 L 732.01 384.23 L 732.01 203.16 L 784.12 203.16 L 812.83 311.75 L 812.83 359.77 L 864.95 359.77 L 883.65 382.92 L 883.65 201.54 L 935.76 201.54 L 943.2 300.47 L 943.2 396 L 995.32 396 L 996.05 402.49 L 996.05 392.44 L 1048.16 392.44 L 1055.72 402.59 L 1055.72 226.28 L 1107.83 226.28 L 1123.28 296.05 L 1123.28 364.42 L 1175.39 364.42 L 1187.91 385.64 L 1187.91 159.93 L 1240.02 159.93 L 1264.06 285.35 L 1240 695 Z" fill="#e11cee" fill-opacity="0.41"/><path d="M -40 695 L -40 337.8 L -11.28 337.8 L 11.91 431.35 L 11.91 408.3 L 40.62 408.3 L 42.79 423.08 L 42.79 493.1 L 71.51 493.1 L 89.92 507.66 L 89.92 321.03 L 118.63 321.03 L 123.99 362.63 L 123.99 346.64 L 152.71 346.64 L 156.36 393.6 L 156.36 323.89 L 185.08 323.89 L 205.04 384.55 L 205.04 386.5 L 233.76 386.5 L 239.1 412.05 L 239.1 438.59 L 267.82 438.59 L 281 483.48 L 281 300.82 L 309.71 300.82 L 313.72 355.23 L 313.72 303.19 L 342.43 303.19 L 356.07 359.67 L 356.07 420.61 L 384.79 420.61 L 396.25 435.56 L 396.25 398.53 L 424.96 398.53 L 444.55 418.91 L 444.55 309.58 L 473.26 309.58 L 477.01 347.56 L 477.01 387.56 L 505.72 387.56 L 524.58 461.85 L 524.58 475.44 L 553.29 475.44 L 563.66 488.1 L 563.66 309.42 L 592.38 309.42 L 600.56 385.54 L 600.56 414.16 L 629.27 414.16 L 638.03 428.16 L 638.03 369.28 L 666.75 369.28 L 676.7 403.92 L 676.7 377.1 L 705.42 377.1 L 723.71 447.25 L 723.71 302.23 L 752.42 302.23 L 758.05 341.36 L 758.05 484.69 L 786.76 484.69 L 807.41 489.97 L 807.41 314.78 L 836.13 314.78 L 854.23 373.62 L 854.23 331.84 L 882.94 331.84 L 896.47 415.72 L 896.47 347.44 L 925.19 347.44 L 931.35 413.69 L 931.35 344.91 L 960.06 344.91 L 963.44 418.15 L 963.44 444.28 L 992.16 444.28 L 999.6 474.9 L 999.6 492.05 L 1028.32 492.05 L 1036.27 499.35 L 1036.27 441.9 L 1064.99 441.9 L 1073.99 467.83 L 1073.99 375.76 L 1102.71 375.76 L 1123.37 454.69 L 1123.37 330.57 L 1152.09 330.57 L 1162.9 437.92 L 1162.9 490.93 L 1191.62 490.93 L 1200.56 509.87 L 1200.56 463.3 L 1229.28 463.3 L 1232.67 488.81 L 1232.67 395.43 L 1261.38 395.43 L 1279.16 435.72 L 1240 695 Z" fill="#f52ed2" fill-opacity="0.54"/></g>
<rect width="1200" height="675" fill="url(#halo)" style="mix-blend-mode:screen"/>
<g clip-path="url(#frame)"><line x1="0" y1="0" x2="0" y2="675" stroke="#ffffff" stroke-opacity="0.035" stroke-width="1"/><line x1="100" y1="0" x2="100" y2="675" stroke="#ffffff" stroke-opacity="0.035" stroke-width="1"/><line x1="200" y1="0" x2="200" y2="675" stroke="#ffffff" stroke-opacity="0.035" stroke-width="1"/><line x1="300" y1="0" x2="300" y2="675" stroke="#ffffff" stroke-opacity="0.035" stroke-width="1"/><line x1="400" y1="0" x2="400" y2="675" stroke="#ffffff" stroke-opacity="0.035" stroke-width="1"/><line x1="500" y1="0" x2="500" y2="675" stroke="#ffffff" stroke-opacity="0.035" stroke-width="1"/><line x1="600" y1="0" x2="600" y2="675" stroke="#ffffff" stroke-opacity="0.035" stroke-width="1"/><line x1="700" y1="0" x2="700" y2="675" stroke="#ffffff" stroke-opacity="0.035" stroke-width="1"/><line x1="800" y1="0" x2="800" y2="675" stroke="#ffffff" stroke-opacity="0.035" stroke-width="1"/><line x1="900" y1="0" x2="900" y2="675" stroke="#ffffff" stroke-opacity="0.035" stroke-width="1"/><line x1="1000" y1="0" x2="1000" y2="675" stroke="#ffffff" stroke-opacity="0.035" stroke-width="1"/><line x1="1100" y1="0" x2="1100" y2="675" stroke="#ffffff" stroke-opacity="0.035" stroke-width="1"/><line x1="1200" y1="0" x2="1200" y2="675" stroke="#ffffff" stroke-opacity="0.035" stroke-width="1"/><line x1="0" y1="0" x2="1200" y2="0" stroke="#ffffff" stroke-opacity="0.035" stroke-width="1"/><line x1="0" y1="100" x2="1200" y2="100" stroke="#ffffff" stroke-opacity="0.035" stroke-width="1"/><line x1="0" y1="200" x2="1200" y2="200" stroke="#ffffff" stroke-opacity="0.035" stroke-width="1"/><line x1="0" y1="300" x2="1200" y2="300" stroke="#ffffff" stroke-opacity="0.035" stroke-width="1"/><line x1="0" y1="400" x2="1200" y2="400" stroke="#ffffff" stroke-opacity="0.035" stroke-width="1"/><line x1="0" y1="500" x2="1200" y2="500" stroke="#ffffff" stroke-opacity="0.035" stroke-width="1"/><line x1="0" y1="600" x2="1200" y2="600" stroke="#ffffff" stroke-opacity="0.035" stroke-width="1"/></g>
<rect width="1200" height="675" fill="#251228" opacity="0.3"/>
<g clip-path="url(#frame)"><line x1="484.44" y1="210" x2="484.44" y2="152" stroke="#f52ed2" stroke-opacity="0.75" stroke-width="7" stroke-linecap="round"/><line x1="484.44" y1="470" x2="484.44" y2="528" stroke="#f52ed2" stroke-opacity="0.75" stroke-width="7" stroke-linecap="round"/><line x1="470" y1="224.44" x2="412" y2="224.44" stroke="#f52ed2" stroke-opacity="0.75" stroke-width="7" stroke-linecap="round"/><line x1="730" y1="224.44" x2="788" y2="224.44" stroke="#f52ed2" stroke-opacity="0.75" stroke-width="7" stroke-linecap="round"/><line x1="513.33" y1="210" x2="513.33" y2="152" stroke="#f52ed2" stroke-opacity="0.75" stroke-width="7" stroke-linecap="round"/><line x1="513.33" y1="470" x2="513.33" y2="528" stroke="#f52ed2" stroke-opacity="0.75" stroke-width="7" stroke-linecap="round"/><line x1="470" y1="253.33" x2="412" y2="253.33" stroke="#f52ed2" stroke-opacity="0.75" stroke-width="7" stroke-linecap="round"/><line x1="730" y1="253.33" x2="788" y2="253.33" stroke="#f52ed2" stroke-opacity="0.75" stroke-width="7" stroke-linecap="round"/><line x1="542.22" y1="210" x2="542.22" y2="152" stroke="#f52ed2" stroke-opacity="0.75" stroke-width="7" stroke-linecap="round"/><line x1="542.22" y1="470" x2="542.22" y2="528" stroke="#f52ed2" stroke-opacity="0.75" stroke-width="7" stroke-linecap="round"/><line x1="470" y1="282.22" x2="412" y2="282.22" stroke="#f52ed2" stroke-opacity="0.75" stroke-width="7" stroke-linecap="round"/><line x1="730" y1="282.22" x2="788" y2="282.22" stroke="#f52ed2" stroke-opacity="0.75" stroke-width="7" stroke-linecap="round"/><line x1="571.11" y1="210" x2="571.11" y2="152" stroke="#f52ed2" stroke-opacity="0.75" stroke-width="7" stroke-linecap="round"/><line x1="571.11" y1="470" x2="571.11" y2="528" stroke="#f52ed2" stroke-opacity="0.75" stroke-width="7" stroke-linecap="round"/><line x1="470" y1="311.11" x2="412" y2="311.11" stroke="#f52ed2" stroke-opacity="0.75" stroke-width="7" stroke-linecap="round"/><line x1="730" y1="311.11" x2="788" y2="311.11" stroke="#f52ed2" stroke-opacity="0.75" stroke-width="7" stroke-linecap="round"/><line x1="600" y1="210" x2="600" y2="152" stroke="#f52ed2" stroke-opacity="0.75" stroke-width="7" stroke-linecap="round"/><line x1="600" y1="470" x2="600" y2="528" stroke="#f52ed2" stroke-opacity="0.75" stroke-width="7" stroke-linecap="round"/><line x1="470" y1="340" x2="412" y2="340" stroke="#f52ed2" stroke-opacity="0.75" stroke-width="7" stroke-linecap="round"/><line x1="730" y1="340" x2="788" y2="340" stroke="#f52ed2" stroke-opacity="0.75" stroke-width="7" stroke-linecap="round"/><line x1="628.89" y1="210" x2="628.89" y2="152" stroke="#f52ed2" stroke-opacity="0.75" stroke-width="7" stroke-linecap="round"/><line x1="628.89" y1="470" x2="628.89" y2="528" stroke="#f52ed2" stroke-opacity="0.75" stroke-width="7" stroke-linecap="round"/><line x1="470" y1="368.89" x2="412" y2="368.89" stroke="#f52ed2" stroke-opacity="0.75" stroke-width="7" stroke-linecap="round"/><line x1="730" y1="368.89" x2="788" y2="368.89" stroke="#f52ed2" stroke-opacity="0.75" stroke-width="7" stroke-linecap="round"/><line x1="657.78" y1="210" x2="657.78" y2="152" stroke="#f52ed2" stroke-opacity="0.75" stroke-width="7" stroke-linecap="round"/><line x1="657.78" y1="470" x2="657.78" y2="528" stroke="#f52ed2" stroke-opacity="0.75" stroke-width="7" stroke-linecap="round"/><line x1="470" y1="397.78" x2="412" y2="397.78" stroke="#f52ed2" stroke-opacity="0.75" stroke-width="7" stroke-linecap="round"/><line x1="730" y1="397.78" x2="788" y2="397.78" stroke="#f52ed2" stroke-opacity="0.75" stroke-width="7" stroke-linecap="round"/><line x1="686.67" y1="210" x2="686.67" y2="152" stroke="#f52ed2" stroke-opacity="0.75" stroke-width="7" stroke-linecap="round"/><line x1="686.67" y1="470" x2="686.67" y2="528" stroke="#f52ed2" stroke-opacity="0.75" stroke-width="7" stroke-linecap="round"/><line x1="470" y1="426.67" x2="412" y2="426.67" stroke="#f52ed2" stroke-opacity="0.75" stroke-width="7" stroke-linecap="round"/><line x1="730" y1="426.67" x2="788" y2="426.67" stroke="#f52ed2" stroke-opacity="0.75" stroke-width="7" stroke-linecap="round"/><line x1="715.56" y1="210" x2="715.56" y2="152" stroke="#f52ed2" stroke-opacity="0.75" stroke-width="7" stroke-linecap="round"/><line x1="715.56" y1="470" x2="715.56" y2="528" stroke="#f52ed2" stroke-opacity="0.75" stroke-width="7" stroke-linecap="round"/><line x1="470" y1="455.56" x2="412" y2="455.56" stroke="#f52ed2" stroke-opacity="0.75" stroke-width="7" stroke-linecap="round"/><line x1="730" y1="455.56" x2="788" y2="455.56" stroke="#f52ed2" stroke-opacity="0.75" stroke-width="7" stroke-linecap="round"/><rect x="470" y="210" width="260" height="260" rx="10" fill="#5f1a69" fill-opacity="0.9" stroke="#f882d7" stroke-opacity="0.8" stroke-width="3"/><rect x="522" y="262" width="156" height="156" rx="4" fill="#e11cee" fill-opacity="0.85"/><line x1="522" y1="280" x2="678" y2="280" stroke="#f882d7" stroke-opacity="0.44" stroke-width="2"/><line x1="540" y1="262" x2="540" y2="418" stroke="#f882d7" stroke-opacity="0.48" stroke-width="2"/><line x1="522" y1="310" x2="678" y2="310" stroke="#f882d7" stroke-opacity="0.55" stroke-width="2"/><line x1="570" y1="262" x2="570" y2="418" stroke="#f882d7" stroke-opacity="0.51" stroke-width="2"/><line x1="522" y1="340" x2="678" y2="340" stroke="#f882d7" stroke-opacity="0.35" stroke-width="2"/><line x1="600" y1="262" x2="600" y2="418" stroke="#f882d7" stroke-opacity="0.37" stroke-width="2"/><line x1="522" y1="370" x2="678" y2="370" stroke="#f882d7" stroke-opacity="0.37" stroke-width="2"/><line x1="630" y1="262" x2="630" y2="418" stroke="#f882d7" stroke-opacity="0.71" stroke-width="2"/><line x1="522" y1="400" x2="678" y2="400" stroke="#f882d7" stroke-opacity="0.45" stroke-width="2"/><line x1="660" y1="262" x2="660" y2="418" stroke="#f882d7" stroke-opacity="0.71" stroke-width="2"/><circle cx="600" cy="340" r="22" fill="#f882d7" fill-opacity="0.95"/></g>
<rect width="1200" height="675" fill="url(#vig)"/>
<rect width="1200" height="675" filter="url(#grain)" opacity="0.14" style="mix-blend-mode:overlay"/>
</svg>