<svg xmlns="http://www.w3.org/2000/svg" viewBox="0 0 1200 675" width="1200" height="675" role="img" aria-label="A laboratory flask beside a molecular diagram — original cover illustration">
<defs>
<linearGradient id="bg" x1="0" y1="0" x2="1" y2="1">
<stop offset="0" stop-color="#1c152e"/><stop offset="0.55" stop-color="#100911"/><stop offset="1" stop-color="#4d205a"/>
</linearGradient>
<radialGradient id="core" cx="0.4" cy="0.35" r="0.75">
<stop offset="0" stop-color="#6070f8" stop-opacity="0.95"/><stop offset="0.5" stop-color="#7b6de6" stop-opacity="0.55"/><stop offset="1" stop-color="#7921ac" stop-opacity="0"/>
</radialGradient>
<radialGradient id="halo" cx="0.74" cy="0.6" r="0.85">
<stop offset="0" stop-color="#6070f8" stop-opacity="0.4"/><stop offset="1" stop-color="#6070f8" stop-opacity="0"/>
</radialGradient>
<radialGradient id="vig" cx="0.5" cy="0.5" r="0.75">
<stop offset="0.55" stop-color="#000000" stop-opacity="0"/><stop offset="1" stop-color="#000000" stop-opacity="0.55"/>
</radialGradient>
<filter id="grain" x="0" y="0" width="100%" height="100%">
<feTurbulence type="fractalNoise" baseFrequency="0.85" numOctaves="3" stitchTiles="stitch" result="t"/>
<feColorMatrix type="saturate" values="0" in="t" result="g"/>
</filter>
<clipPath id="frame"><rect x="0" y="0" width="1200" height="675"/></clipPath>
</defs>
<rect width="1200" height="675" fill="url(#bg)"/>
<g clip-path="url(#frame)" opacity="0.42"><circle cx="157.23" cy="451.24" r="256.93" fill="#6070f8" fill-opacity="0.1"/><circle cx="346.69" cy="608.19" r="123.2" fill="#7921ac" fill-opacity="0.15"/><circle cx="9.94" cy="621.99" r="249.06" fill="#7921ac" fill-opacity="0.2"/><circle cx="690.39" cy="496.07" r="70.77" fill="#7b6de6" fill-opacity="0.08"/><circle cx="889.36" cy="555.81" r="211.29" fill="#6070f8" fill-opacity="0.18"/><circle cx="1160.44" cy="477.57" r="219.52" fill="#7921ac" fill-opacity="0.19"/><circle cx="844.54" cy="204.03" r="60.96" fill="#7b6de6" fill-opacity="0.18"/><circle cx="1164.35" cy="352.77" r="75.28" fill="#7921ac" fill-opacity="0.13"/><circle cx="534.81" cy="462.59" r="115.63" fill="#6070f8" fill-opacity="0.11"/><circle cx="931.67" cy="158.92" r="42.73" fill="#7b6de6" fill-opacity="0.12"/><circle cx="727.85" cy="133.28" r="121.51" fill="#7921ac" fill-opacity="0.08"/></g>
<rect width="1200" height="675" fill="url(#halo)" style="mix-blend-mode:screen"/>
<g clip-path="url(#frame)"><line x1="0" y1="0" x2="0" y2="675" stroke="#ffffff" stroke-opacity="0.035" stroke-width="1"/><line x1="100" y1="0" x2="100" y2="675" stroke="#ffffff" stroke-opacity="0.035" stroke-width="1"/><line x1="200" y1="0" x2="200" y2="675" stroke="#ffffff" stroke-opacity="0.035" stroke-width="1"/><line x1="300" y1="0" x2="300" y2="675" stroke="#ffffff" stroke-opacity="0.035" stroke-width="1"/><line x1="400" y1="0" x2="400" y2="675" stroke="#ffffff" stroke-opacity="0.035" stroke-width="1"/><line x1="500" y1="0" x2="500" y2="675" stroke="#ffffff" stroke-opacity="0.035" stroke-width="1"/><line x1="600" y1="0" x2="600" y2="675" stroke="#ffffff" stroke-opacity="0.035" stroke-width="1"/><line x1="700" y1="0" x2="700" y2="675" stroke="#ffffff" stroke-opacity="0.035" stroke-width="1"/><line x1="800" y1="0" x2="800" y2="675" stroke="#ffffff" stroke-opacity="0.035" stroke-width="1"/><line x1="900" y1="0" x2="900" y2="675" stroke="#ffffff" stroke-opacity="0.035" stroke-width="1"/><line x1="1000" y1="0" x2="1000" y2="675" stroke="#ffffff" stroke-opacity="0.035" stroke-width="1"/><line x1="1100" y1="0" x2="1100" y2="675" stroke="#ffffff" stroke-opacity="0.035" stroke-width="1"/><line x1="1200" y1="0" x2="1200" y2="675" stroke="#ffffff" stroke-opacity="0.035" stroke-width="1"/><line x1="0" y1="0" x2="1200" y2="0" stroke="#ffffff" stroke-opacity="0.035" stroke-width="1"/><line x1="0" y1="100" x2="1200" y2="100" stroke="#ffffff" stroke-opacity="0.035" stroke-width="1"/><line x1="0" y1="200" x2="1200" y2="200" stroke="#ffffff" stroke-opacity="0.035" stroke-width="1"/><line x1="0" y1="300" x2="1200" y2="300" stroke="#ffffff" stroke-opacity="0.035" stroke-width="1"/><line x1="0" y1="400" x2="1200" y2="400" stroke="#ffffff" stroke-opacity="0.035" stroke-width="1"/><line x1="0" y1="500" x2="1200" y2="500" stroke="#ffffff" stroke-opacity="0.035" stroke-width="1"/><line x1="0" y1="600" x2="1200" y2="600" stroke="#ffffff" stroke-opacity="0.035" stroke-width="1"/></g>
<rect width="1200" height="675" fill="#100911" opacity="0.3"/>
<g clip-path="url(#frame)"><path d="M 566 210 L 566 300 L 470 470 Q 460 500 495 500 L 705 500 Q 740 500 730 470 L 634 300 L 634 210 Z" fill="#7921ac" fill-opacity="0.3" stroke="#6070f8" stroke-opacity="0.85" stroke-width="4"/><path d="M 492 400 L 708 400 L 728 468 Q 740 500 705 500 L 495 500 Q 460 500 472 468 Z" fill="#7b6de6" fill-opacity="0.75"/><rect x="554" y="200" width="92" height="16" rx="4" fill="#6070f8" fill-opacity="0.9"/><circle cx="561.21" cy="436.88" r="6.9" fill="#6070f8" fill-opacity="0.59"/><circle cx="641.62" cy="458.76" r="10.22" fill="#6070f8" fill-opacity="0.66"/><circle cx="595.26" cy="473.07" r="9.35" fill="#6070f8" fill-opacity="0.41"/><circle cx="589.44" cy="435.33" r="5.4" fill="#6070f8" fill-opacity="0.68"/><circle cx="630.14" cy="423.49" r="4.09" fill="#6070f8" fill-opacity="0.87"/><circle cx="557.4" cy="467.15" r="3.18" fill="#6070f8" fill-opacity="0.88"/><circle cx="582.18" cy="453.04" r="10.55" fill="#6070f8" fill-opacity="0.78"/><circle cx="531.3" cy="435.74" r="10.73" fill="#6070f8" fill-opacity="0.45"/><circle cx="561.13" cy="486.24" r="5.6" fill="#6070f8" fill-opacity="0.62"/><line x1="810" y1="230" x2="856" y2="204" stroke="#7b6de6" stroke-opacity="0.5" stroke-width="2"/><line x1="810" y1="230" x2="856" y2="260" stroke="#7b6de6" stroke-opacity="0.5" stroke-width="2"/><line x1="810" y1="230" x2="766" y2="252" stroke="#7b6de6" stroke-opacity="0.5" stroke-width="2"/><line x1="856" y1="204" x2="856" y2="260" stroke="#7b6de6" stroke-opacity="0.5" stroke-width="2"/><line x1="856" y1="204" x2="766" y2="252" stroke="#7b6de6" stroke-opacity="0.5" stroke-width="2"/><line x1="856" y1="260" x2="766" y2="252" stroke="#7b6de6" stroke-opacity="0.5" stroke-width="2"/><circle cx="810" cy="230" r="12" fill="#6070f8" fill-opacity="0.9"/><circle cx="856" cy="204" r="12" fill="#6070f8" fill-opacity="0.9"/><circle cx="856" cy="260" r="12" fill="#6070f8" fill-opacity="0.9"/><circle cx="766" cy="252" r="12" fill="#6070f8" fill-opacity="0.9"/></g>
<rect width="1200" height="675" fill="url(#vig)"/>
<rect width="1200" height="675" filter="url(#grain)" opacity="0.14" style="mix-blend-mode:overlay"/>
</svg>